<?xml version="1.0" standalone="no"?>
<!DOCTYPE svg PUBLIC "-//W3C//DTD SVG 1.1//EN" "http://www.w3.org/Graphics/SVG/1.1/DTD/svg11.dtd" >
<svg xmlns="http://www.w3.org/2000/svg" xmlns:xlink="http://www.w3.org/1999/xlink" version="1.1">
<metadata>
Created by FontForge 20170731 at Thu May 18 10:24:27 2017
 By Aleksey,,,
Copyright, 2018 tptq-arabic.com All rights reserved. For exclusive use on TPTQ Arabic Web Font servers.
</metadata>
<defs>
<font id="TeshrinAR+LT-Thin" horiz-adv-x="600" >
  <font-face 
    font-family="Teshrin AR+LT Thin"
    font-weight="250"
    font-stretch="normal"
    units-per-em="1000"
    panose-1="2 0 0 0 0 0 0 0 0 0"
    ascent="780"
    descent="-220"
    x-height="535"
    cap-height="764"
    bbox="-227 -590 2429 1009"
    underline-thickness="50"
    underline-position="-200"
    unicode-range="U+000D-1F6CF"
  />
<missing-glyph horiz-adv-x="712" 
d="M107 702v-27h-27v27h27zM182 702v-27h-27v27h27zM257 702v-27h-27v27h27zM332 702v-27h-27v27h27zM407 702v-27h-27v27h27zM482 702v-27h-27v27h27zM557 702v-27h-27v27h27zM632 702v-27h-27v27h27zM107 627v-27h-27v27h27zM632 627v-27h-27v27h27zM107 552v-27h-27v27
h27zM257 552v-27h-27v27h27zM332 552v-27h-27v27h27zM407 552v-27h-27v27h27zM482 552v-27h-27v27h27zM632 552v-27h-27v27h27zM107 477v-27h-27v27h27zM482 477v-27h-27v27h27zM632 477v-27h-27v27h27zM107 402v-27h-27v27h27zM332 402v-27h-27v27h27zM407 402v-27h-27v27
h27zM482 402v-27h-27v27h27zM632 402v-27h-27v27h27zM107 327v-27h-27v27h27zM332 327v-27h-27v27h27zM632 327v-27h-27v27h27zM107 252v-27h-27v27h27zM632 252v-27h-27v27h27zM107 177v-27h-27v27h27zM332 177v-27h-27v27h27zM632 177v-27h-27v27h27zM107 102v-27h-27v27
h27zM632 102v-27h-27v27h27zM107 27v-27h-27v27h27zM182 27v-27h-27v27h27zM257 27v-27h-27v27h27zM332 27v-27h-27v27h27zM407 27v-27h-27v27h27zM482 27v-27h-27v27h27zM557 27v-27h-27v27h27zM632 27v-27h-27v27h27z" />
    <glyph glyph-name="uniFC03" unicode="&#xfe8b;&#xfef0;" horiz-adv-x="762" arabic-form="isolated" 
d="M673 55.5q-39 -46.5 -112 -52.5q71 -31 71 -106q0 -84 -80 -132t-222 -48q-150 0 -221 59.5t-71 184.5q0 55 12.5 102t22.5 69q6 14 18 11q7 -1 9 -6.5t0 -13.5q-1 -2 -9 -24.5t-16 -62t-8 -75.5q0 -109 63.5 -160t201.5 -51q129 0 201.5 39t72.5 108q0 49 -37 72
t-113 38q-7 1 -11.5 6t-4.5 11q1 7 6 11.5t13 3.5q34 -6 77 -6q78 0 113 39.5t35 125.5q0 62 -13 130v2q0 8 4 12t10 4q13 0 14 -15q13 -59 13 -133q0 -96 -39 -142.5zM763 450q0 -9 -11 -12q-89 -11 -152 -17h-2q-14 0 -14 12v2q0 9 13 11l31 3q-26 16 -26 57
q0 39 22.5 58.5t55.5 19.5q14 0 26.5 -4t17.5 -8q11 -7 10 -14q0 -6 -5 -8.5t-11 -0.5q-22 9 -38 9q-56 0 -56 -53q0 -27 11.5 -38.5t34.5 -11.5q13 0 77 8h3q5 0 9 -3t4 -8v-2z" />
    <glyph glyph-name="uniFC04" unicode="&#xfe8b;&#xfef2;" horiz-adv-x="762" arabic-form="isolated" 
d="M673 55.5q-39 -46.5 -112 -52.5q71 -31 71 -106q0 -84 -80 -132t-222 -48q-150 0 -221 59.5t-71 184.5q0 55 12.5 102t22.5 69q6 14 18 11q7 -1 9 -6.5t0 -13.5q-1 -2 -9 -24.5t-16 -62t-8 -75.5q0 -109 63.5 -160t201.5 -51q129 0 201.5 39t72.5 108q0 49 -37 72
t-113 38q-7 1 -11.5 6t-4.5 11q1 7 6 11.5t13 3.5q34 -6 77 -6q78 0 113 39.5t35 125.5q0 62 -13 130v2q0 8 4 12t10 4q13 0 14 -15q13 -59 13 -133q0 -96 -39 -142.5zM763 450q0 -9 -11 -12q-89 -11 -152 -17h-2q-14 0 -14 12v2q0 9 13 11l31 3q-26 16 -26 57
q0 39 22.5 58.5t55.5 19.5q14 0 26.5 -4t17.5 -8q11 -7 10 -14q0 -6 -5 -8.5t-11 -0.5q-22 9 -38 9q-56 0 -56 -53q0 -27 11.5 -38.5t34.5 -11.5q13 0 77 8h3q5 0 9 -3t4 -8v-2zM263.5 -418.5q-7.5 7.5 -7.5 17.5t7.5 17.5t17.5 7.5t17.5 -7.5t7.5 -17.5t-7.5 -17.5
t-17.5 -7.5t-17.5 7.5zM360 -418.5q-8 7.5 -8 17.5t8 17.5t18 7.5t17.5 -7.5t7.5 -17.5t-7.5 -17.5t-17.5 -7.5t-18 7.5z" />
    <glyph glyph-name="uniFC09" unicode="&#xfe91;&#xfef0;" horiz-adv-x="762" arabic-form="isolated" 
d="M673 55.5q-39 -46.5 -112 -52.5q71 -31 71 -106q0 -84 -80 -132t-222 -48q-150 0 -221 59.5t-71 184.5q0 55 12.5 102t22.5 69q6 14 18 11q7 -1 9 -6.5t0 -13.5q-1 -2 -9 -24.5t-16 -62t-8 -75.5q0 -109 63.5 -160t201.5 -51q129 0 201.5 39t72.5 108q0 49 -37 72
t-113 38q-7 1 -11.5 6t-4.5 11q1 7 6 11.5t13 3.5q34 -6 77 -6q78 0 113 39.5t35 125.5q0 62 -13 130v2q0 8 4 12t10 4q13 0 14 -15q13 -59 13 -133q0 -96 -39 -142.5zM630 -349.5q-8 7.5 -8 18.5q0 10 8 17.5t19 7.5q10 0 18 -7.5t8 -17.5t-7.5 -18t-18.5 -8t-19 7.5z" />
    <glyph glyph-name="uniFC0A" unicode="&#xfe91;&#xfef2;" horiz-adv-x="762" arabic-form="isolated" 
d="M673 55.5q-39 -46.5 -112 -52.5q71 -31 71 -106q0 -84 -80 -132t-222 -48q-150 0 -221 59.5t-71 184.5q0 55 12.5 102t22.5 69q6 14 18 11q7 -1 9 -6.5t0 -13.5q-1 -2 -9 -24.5t-16 -62t-8 -75.5q0 -109 63.5 -160t201.5 -51q129 0 201.5 39t72.5 108q0 49 -37 72
t-113 38q-7 1 -11.5 6t-4.5 11q1 7 6 11.5t13 3.5q34 -6 77 -6q78 0 113 39.5t35 125.5q0 62 -13 130v2q0 8 4 12t10 4q13 0 14 -15q13 -59 13 -133q0 -96 -39 -142.5zM630 -349.5q-8 7.5 -8 18.5q0 10 8 17.5t19 7.5q10 0 18 -7.5t8 -17.5t-7.5 -18t-18.5 -8t-19 7.5z
M263.5 -418.5q-7.5 7.5 -7.5 17.5t7.5 17.5t17.5 7.5t17.5 -7.5t7.5 -17.5t-7.5 -17.5t-17.5 -7.5t-17.5 7.5zM360 -418.5q-8 7.5 -8 17.5t8 17.5t18 7.5t17.5 -7.5t7.5 -17.5t-7.5 -17.5t-17.5 -7.5t-18 7.5z" />
    <glyph glyph-name="uniFC0F" unicode="&#xfe97;&#xfef0;" horiz-adv-x="762" arabic-form="isolated" 
d="M673 55.5q-39 -46.5 -112 -52.5q71 -31 71 -106q0 -84 -80 -132t-222 -48q-150 0 -221 59.5t-71 184.5q0 55 12.5 102t22.5 69q6 14 18 11q7 -1 9 -6.5t0 -13.5q-1 -2 -9 -24.5t-16 -62t-8 -75.5q0 -109 63.5 -160t201.5 -51q129 0 201.5 39t72.5 108q0 49 -37 72
t-113 38q-7 1 -11.5 6t-4.5 11q1 7 6 11.5t13 3.5q34 -6 77 -6q78 0 113 39.5t35 125.5q0 62 -13 130v2q0 8 4 12t10 4q13 0 14 -15q13 -59 13 -133q0 -96 -39 -142.5zM618.5 454.5q-7.5 7.5 -7.5 17.5t7.5 17.5t17.5 7.5t17.5 -7.5t7.5 -17.5t-7.5 -17.5t-17.5 -7.5
t-17.5 7.5zM715 454.5q-8 7.5 -8 17.5t8 17.5t18 7.5t17.5 -7.5t7.5 -17.5t-7.5 -17.5t-17.5 -7.5t-18 7.5z" />
    <glyph glyph-name="uniFC10" unicode="&#xfe97;&#xfef2;" horiz-adv-x="762" arabic-form="isolated" 
d="M673 55.5q-39 -46.5 -112 -52.5q71 -31 71 -106q0 -84 -80 -132t-222 -48q-150 0 -221 59.5t-71 184.5q0 55 12.5 102t22.5 69q6 14 18 11q7 -1 9 -6.5t0 -13.5q-1 -2 -9 -24.5t-16 -62t-8 -75.5q0 -109 63.5 -160t201.5 -51q129 0 201.5 39t72.5 108q0 49 -37 72
t-113 38q-7 1 -11.5 6t-4.5 11q1 7 6 11.5t13 3.5q34 -6 77 -6q78 0 113 39.5t35 125.5q0 62 -13 130v2q0 8 4 12t10 4q13 0 14 -15q13 -59 13 -133q0 -96 -39 -142.5zM618.5 454.5q-7.5 7.5 -7.5 17.5t7.5 17.5t17.5 7.5t17.5 -7.5t7.5 -17.5t-7.5 -17.5t-17.5 -7.5
t-17.5 7.5zM715 454.5q-8 7.5 -8 17.5t8 17.5t18 7.5t17.5 -7.5t7.5 -17.5t-7.5 -17.5t-17.5 -7.5t-18 7.5zM263.5 -418.5q-7.5 7.5 -7.5 17.5t7.5 17.5t17.5 7.5t17.5 -7.5t7.5 -17.5t-7.5 -17.5t-17.5 -7.5t-17.5 7.5zM360 -418.5q-8 7.5 -8 17.5t8 17.5t18 7.5t17.5 -7.5
t7.5 -17.5t-7.5 -17.5t-17.5 -7.5t-18 7.5z" />
    <glyph glyph-name="uniFC13" unicode="&#xfe9b;&#xfef0;" horiz-adv-x="762" arabic-form="isolated" 
d="M673 55.5q-39 -46.5 -112 -52.5q71 -31 71 -106q0 -84 -80 -132t-222 -48q-150 0 -221 59.5t-71 184.5q0 55 12.5 102t22.5 69q6 14 18 11q7 -1 9 -6.5t0 -13.5q-1 -2 -9 -24.5t-16 -62t-8 -75.5q0 -109 63.5 -160t201.5 -51q129 0 201.5 39t72.5 108q0 49 -37 72
t-113 38q-7 1 -11.5 6t-4.5 11q1 7 6 11.5t13 3.5q34 -6 77 -6q78 0 113 39.5t35 125.5q0 62 -13 130v2q0 8 4 12t10 4q13 0 14 -15q13 -59 13 -133q0 -96 -39 -142.5zM702.5 562.5q7.5 -7.5 7.5 -17.5q0 -9 -7.5 -16.5t-17.5 -7.5t-17.5 7.5t-7.5 16.5q0 10 7.5 17.5
t17.5 7.5t17.5 -7.5zM653.5 484.5q7.5 -7.5 7.5 -17.5t-7.5 -17t-17.5 -7t-17.5 7t-7.5 17t7.5 17.5t17.5 7.5t17.5 -7.5zM750.5 484.5q7.5 -7.5 7.5 -17.5t-7.5 -17t-17.5 -7q-11 0 -18.5 7t-7.5 17t8 17.5t18 7.5t17.5 -7.5z" />
    <glyph glyph-name="uniFC14" unicode="&#xfe9b;&#xfef2;" horiz-adv-x="762" arabic-form="isolated" 
d="M673 55.5q-39 -46.5 -112 -52.5q71 -31 71 -106q0 -84 -80 -132t-222 -48q-150 0 -221 59.5t-71 184.5q0 55 12.5 102t22.5 69q6 14 18 11q7 -1 9 -6.5t0 -13.5q-1 -2 -9 -24.5t-16 -62t-8 -75.5q0 -109 63.5 -160t201.5 -51q129 0 201.5 39t72.5 108q0 49 -37 72
t-113 38q-7 1 -11.5 6t-4.5 11q1 7 6 11.5t13 3.5q34 -6 77 -6q78 0 113 39.5t35 125.5q0 62 -13 130v2q0 8 4 12t10 4q13 0 14 -15q13 -59 13 -133q0 -96 -39 -142.5zM702.5 562.5q7.5 -7.5 7.5 -17.5q0 -9 -7.5 -16.5t-17.5 -7.5t-17.5 7.5t-7.5 16.5q0 10 7.5 17.5
t17.5 7.5t17.5 -7.5zM653.5 484.5q7.5 -7.5 7.5 -17.5t-7.5 -17t-17.5 -7t-17.5 7t-7.5 17t7.5 17.5t17.5 7.5t17.5 -7.5zM750.5 484.5q7.5 -7.5 7.5 -17.5t-7.5 -17t-17.5 -7q-11 0 -18.5 7t-7.5 17t8 17.5t18 7.5t17.5 -7.5zM263.5 -418.5q-7.5 7.5 -7.5 17.5t7.5 17.5
t17.5 7.5t17.5 -7.5t7.5 -17.5t-7.5 -17.5t-17.5 -7.5t-17.5 7.5zM360 -418.5q-8 7.5 -8 17.5t8 17.5t18 7.5t17.5 -7.5t7.5 -17.5t-7.5 -17.5t-17.5 -7.5t-18 7.5z" />
    <glyph glyph-name="uniFC31" unicode="&#xfed3;&#xfef0;" horiz-adv-x="794" arabic-form="isolated" 
d="M702.5 421q41.5 -59 41.5 -157v-48q0 -73 -16.5 -117t-58 -67.5t-116.5 -27.5q79 -32 79 -107q0 -84 -80 -132t-222 -48q-150 0 -221 59.5t-71 184.5q0 55 12.5 102t23.5 70q5 12 15 12q6 0 10 -3.5t4 -9.5l-2 -8q-1 -2 -17.5 -46t-16.5 -117q0 -109 63.5 -160t201.5 -51
q129 0 201.5 39t72.5 108q0 48 -43.5 71t-129.5 36q-16 3 -16 18q0 6 5.5 11t13.5 4q31 -4 80 -4q76 0 119 14.5t63 51t20 103.5v22q-15 -28 -52 -43t-91 -15q-78 0 -112.5 32t-34.5 101q0 52 20.5 93t56.5 64.5t80 23.5q76 0 117.5 -59zM718 250v17q-1 80 -35.5 129.5
t-97.5 49.5q-57 0 -94 -41t-37 -106q0 -54 28 -77.5t96 -23.5q110 0 140 52zM566 598.5q-8 7.5 -8 18.5t8 18.5t19 7.5t18.5 -7.5t7.5 -18.5q0 -10 -7.5 -18t-18.5 -8t-19 7.5z" />
    <glyph glyph-name="uniFC32" unicode="&#xfed3;&#xfef2;" horiz-adv-x="794" arabic-form="isolated" 
d="M702.5 421q41.5 -59 41.5 -157v-48q0 -73 -16.5 -117t-58 -67.5t-116.5 -27.5q79 -32 79 -107q0 -84 -80 -132t-222 -48q-150 0 -221 59.5t-71 184.5q0 55 12.5 102t23.5 70q5 12 15 12q6 0 10 -3.5t4 -9.5l-2 -8q-1 -2 -17.5 -46t-16.5 -117q0 -109 63.5 -160t201.5 -51
q129 0 201.5 39t72.5 108q0 48 -43.5 71t-129.5 36q-16 3 -16 18q0 6 5.5 11t13.5 4q31 -4 80 -4q76 0 119 14.5t63 51t20 103.5v22q-15 -28 -52 -43t-91 -15q-78 0 -112.5 32t-34.5 101q0 52 20.5 93t56.5 64.5t80 23.5q76 0 117.5 -59zM718 250v17q-1 80 -35.5 129.5
t-97.5 49.5q-57 0 -94 -41t-37 -106q0 -54 28 -77.5t96 -23.5q110 0 140 52zM279.5 -418.5q-7.5 7.5 -7.5 17.5t7.5 17.5t17.5 7.5t17.5 -7.5t7.5 -17.5t-7.5 -17.5t-17.5 -7.5t-17.5 7.5zM376 -418.5q-8 7.5 -8 17.5t8 17.5t18 7.5t17.5 -7.5t7.5 -17.5t-7.5 -17.5
t-17.5 -7.5t-18 7.5zM566 598.5q-8 7.5 -8 18.5t8 18.5t19 7.5t18.5 -7.5t7.5 -18.5q0 -10 -7.5 -18t-18.5 -8t-19 7.5z" />
    <glyph glyph-name="uniFC35" unicode="&#xfed7;&#xfef0;" horiz-adv-x="794" arabic-form="isolated" 
d="M702.5 421q41.5 -59 41.5 -157v-48q0 -73 -16.5 -117t-58 -67.5t-116.5 -27.5q79 -32 79 -107q0 -84 -80 -132t-222 -48q-150 0 -221 59.5t-71 184.5q0 55 12.5 102t23.5 70q5 12 15 12q6 0 10 -3.5t4 -9.5l-2 -8q-1 -2 -17.5 -46t-16.5 -117q0 -109 63.5 -160t201.5 -51
q129 0 201.5 39t72.5 108q0 48 -43.5 71t-129.5 36q-16 3 -16 18q0 6 5.5 11t13.5 4q31 -4 80 -4q76 0 119 14.5t63 51t20 103.5v22q-15 -28 -52 -43t-91 -15q-78 0 -112.5 32t-34.5 101q0 52 20.5 93t56.5 64.5t80 23.5q76 0 117.5 -59zM718 250v17q-1 80 -35.5 129.5
t-97.5 49.5q-57 0 -94 -41t-37 -106q0 -54 28 -77.5t96 -23.5q110 0 140 52zM518.5 596.5q-7.5 7.5 -7.5 17.5t7.5 17.5t17.5 7.5t17.5 -7.5t7.5 -17.5t-7.5 -17.5t-17.5 -7.5t-17.5 7.5zM615 596.5q-8 7.5 -8 17.5t8 17.5t18 7.5t17.5 -7.5t7.5 -17.5t-7.5 -17.5
t-17.5 -7.5t-18 7.5z" />
    <glyph glyph-name="uniFC36" unicode="&#xfed7;&#xfef2;" horiz-adv-x="794" arabic-form="isolated" 
d="M702.5 421q41.5 -59 41.5 -157v-48q0 -73 -16.5 -117t-58 -67.5t-116.5 -27.5q79 -32 79 -107q0 -84 -80 -132t-222 -48q-150 0 -221 59.5t-71 184.5q0 55 12.5 102t23.5 70q5 12 15 12q6 0 10 -3.5t4 -9.5l-2 -8q-1 -2 -17.5 -46t-16.5 -117q0 -109 63.5 -160t201.5 -51
q129 0 201.5 39t72.5 108q0 48 -43.5 71t-129.5 36q-16 3 -16 18q0 6 5.5 11t13.5 4q31 -4 80 -4q76 0 119 14.5t63 51t20 103.5v22q-15 -28 -52 -43t-91 -15q-78 0 -112.5 32t-34.5 101q0 52 20.5 93t56.5 64.5t80 23.5q76 0 117.5 -59zM718 250v17q-1 80 -35.5 129.5
t-97.5 49.5q-57 0 -94 -41t-37 -106q0 -54 28 -77.5t96 -23.5q110 0 140 52zM518.5 596.5q-7.5 7.5 -7.5 17.5t7.5 17.5t17.5 7.5t17.5 -7.5t7.5 -17.5t-7.5 -17.5t-17.5 -7.5t-17.5 7.5zM615 596.5q-8 7.5 -8 17.5t8 17.5t18 7.5t17.5 -7.5t7.5 -17.5t-7.5 -17.5
t-17.5 -7.5t-18 7.5zM279.5 -418.5q-7.5 7.5 -7.5 17.5t7.5 17.5t17.5 7.5t17.5 -7.5t7.5 -17.5t-7.5 -17.5t-17.5 -7.5t-17.5 7.5zM376 -418.5q-8 7.5 -8 17.5t8 17.5t18 7.5t17.5 -7.5t7.5 -17.5t-7.5 -17.5t-17.5 -7.5t-18 7.5z" />
    <glyph glyph-name="uniFC3D" unicode="&#xfedb;&#xfef0;" horiz-adv-x="822" arabic-form="isolated" 
d="M816 697q0 -8 -10 -15l-358 -238q121 -55 186.5 -98t94 -86.5t28.5 -99.5q0 -78 -55 -115.5t-140 -41.5q70 -33 70 -106q0 -84 -80 -132t-222 -48q-150 0 -221 59.5t-71 184.5q0 55 12.5 102t23.5 70q5 12 15 12q6 0 10 -3.5t4 -9.5l-2 -8q-1 -2 -17.5 -46t-16.5 -117
q0 -109 63.5 -160t201.5 -51q129 0 201.5 39t72.5 108q0 50 -36 73t-113 37q-7 1 -12 6t-5 11q1 7 6 12t13 4q33 -7 79 -7q76 0 134 26.5t58 97.5q0 47 -25 85.5t-88.5 79.5t-180.5 94q-21 9 -21 26q0 14 12 22l364 243q5 4 11 4q8 0 12 -7q2 -4 2 -7z" />
    <glyph glyph-name="uniFC3E" unicode="&#xfedb;&#xfef2;" horiz-adv-x="822" arabic-form="isolated" 
d="M816 697q0 -8 -10 -15l-358 -238q121 -55 186.5 -98t94 -86.5t28.5 -99.5q0 -78 -55 -115.5t-140 -41.5q70 -33 70 -106q0 -84 -80 -132t-222 -48q-150 0 -221 59.5t-71 184.5q0 55 12.5 102t23.5 70q5 12 15 12q6 0 10 -3.5t4 -9.5l-2 -8q-1 -2 -17.5 -46t-16.5 -117
q0 -109 63.5 -160t201.5 -51q129 0 201.5 39t72.5 108q0 50 -36 73t-113 37q-7 1 -12 6t-5 11q1 7 6 12t13 4q33 -7 79 -7q76 0 134 26.5t58 97.5q0 47 -25 85.5t-88.5 79.5t-180.5 94q-21 9 -21 26q0 14 12 22l364 243q5 4 11 4q8 0 12 -7q2 -4 2 -7zM263.5 -418.5
q-7.5 7.5 -7.5 17.5t7.5 17.5t17.5 7.5t17.5 -7.5t7.5 -17.5t-7.5 -17.5t-17.5 -7.5t-17.5 7.5zM360 -418.5q-8 7.5 -8 17.5t8 17.5t18 7.5t17.5 -7.5t7.5 -17.5t-7.5 -17.5t-17.5 -7.5t-18 7.5z" />
    <glyph glyph-name="uniFC43" unicode="&#xfedf;&#xfef0;" horiz-adv-x="792" arabic-form="isolated" 
d="M697 693v-479q0 -69 -9.5 -111.5t-38.5 -68t-88 -31.5q71 -31 71 -106q0 -84 -80 -132t-222 -48q-150 0 -221 59t-71 184q0 52 13 101.5t23 70.5q6 14 18 11q10 -2 10 -11l-2 -8q-1 -2 -9 -24.5t-16 -63t-8 -75.5q0 -109 63.5 -160t201.5 -51q129 0 201.5 39t72.5 108
q0 50 -36 73t-113 37q-7 1 -12 6t-5 11q1 7 6 12t13 4q30 -7 71 -7q64 0 93.5 20.5t36.5 55t7 97.5v487q0 17 15 17t15 -17z" />
    <glyph glyph-name="uniFC44" unicode="&#xfedf;&#xfef2;" horiz-adv-x="792" arabic-form="isolated" 
d="M697 693v-479q0 -69 -9.5 -111.5t-38.5 -68t-88 -31.5q71 -31 71 -106q0 -84 -80 -132t-222 -48q-150 0 -221 59t-71 184q0 52 13 101.5t23 70.5q6 14 18 11q10 -2 10 -11l-2 -8q-1 -2 -9 -24.5t-16 -63t-8 -75.5q0 -109 63.5 -160t201.5 -51q129 0 201.5 39t72.5 108
q0 50 -36 73t-113 37q-7 1 -12 6t-5 11q1 7 6 12t13 4q30 -7 71 -7q64 0 93.5 20.5t36.5 55t7 97.5v487q0 17 15 17t15 -17zM263.5 -418.5q-7.5 7.5 -7.5 17.5t7.5 17.5t17.5 7.5t17.5 -7.5t7.5 -17.5t-7.5 -17.5t-17.5 -7.5t-17.5 7.5zM360 -418.5q-8 7.5 -8 17.5t8 17.5
t18 7.5t17.5 -7.5t7.5 -17.5t-7.5 -17.5t-17.5 -7.5t-18 7.5z" />
    <glyph glyph-name="uniFC4F" unicode="&#xfee7;&#xfef0;" horiz-adv-x="762" arabic-form="isolated" 
d="M673 55.5q-39 -46.5 -112 -52.5q71 -31 71 -106q0 -84 -80 -132t-222 -48q-150 0 -221 59.5t-71 184.5q0 55 12.5 102t22.5 69q6 14 18 11q7 -1 9 -6.5t0 -13.5q-1 -2 -9 -24.5t-16 -62t-8 -75.5q0 -109 63.5 -160t201.5 -51q129 0 201.5 39t72.5 108q0 49 -37 72
t-113 38q-7 1 -11.5 6t-4.5 11q1 7 6 11.5t13 3.5q34 -6 77 -6q78 0 113 39.5t35 125.5q0 62 -13 130v2q0 8 4 12t10 4q13 0 14 -15q13 -59 13 -133q0 -96 -39 -142.5zM666 456.5q-8 7.5 -8 18.5t8 18.5t19 7.5t18.5 -7.5t7.5 -18.5q0 -10 -7.5 -18t-18.5 -8t-19 7.5z" />
    <glyph glyph-name="uniFC50" unicode="&#xfee7;&#xfef2;" horiz-adv-x="762" arabic-form="isolated" 
d="M673 55.5q-39 -46.5 -112 -52.5q71 -31 71 -106q0 -84 -80 -132t-222 -48q-150 0 -221 59.5t-71 184.5q0 55 12.5 102t22.5 69q6 14 18 11q7 -1 9 -6.5t0 -13.5q-1 -2 -9 -24.5t-16 -62t-8 -75.5q0 -109 63.5 -160t201.5 -51q129 0 201.5 39t72.5 108q0 49 -37 72
t-113 38q-7 1 -11.5 6t-4.5 11q1 7 6 11.5t13 3.5q34 -6 77 -6q78 0 113 39.5t35 125.5q0 62 -13 130v2q0 8 4 12t10 4q13 0 14 -15q13 -59 13 -133q0 -96 -39 -142.5zM666 456.5q-8 7.5 -8 18.5t8 18.5t19 7.5t18.5 -7.5t7.5 -18.5q0 -10 -7.5 -18t-18.5 -8t-19 7.5z
M263.5 -418.5q-7.5 7.5 -7.5 17.5t7.5 17.5t17.5 7.5t17.5 -7.5t7.5 -17.5t-7.5 -17.5t-17.5 -7.5t-17.5 7.5zM360 -418.5q-8 7.5 -8 17.5t8 17.5t18 7.5t17.5 -7.5t7.5 -17.5t-7.5 -17.5t-17.5 -7.5t-18 7.5z" />
    <glyph glyph-name="uniFC59" unicode="&#xfef3;&#xfef0;" horiz-adv-x="762" arabic-form="isolated" 
d="M673 55.5q-39 -46.5 -112 -52.5q71 -31 71 -106q0 -84 -80 -132t-222 -48q-150 0 -221 59.5t-71 184.5q0 55 12.5 102t22.5 69q6 14 18 11q7 -1 9 -6.5t0 -13.5q-1 -2 -9 -24.5t-16 -62t-8 -75.5q0 -109 63.5 -160t201.5 -51q129 0 201.5 39t72.5 108q0 49 -37 72
t-113 38q-7 1 -11.5 6t-4.5 11q1 7 6 11.5t13 3.5q34 -6 77 -6q78 0 113 39.5t35 125.5q0 62 -13 130v2q0 8 4 12t10 4q13 0 14 -15q13 -59 13 -133q0 -96 -39 -142.5zM582.5 -358.5q-7.5 7.5 -7.5 17.5t7.5 17.5t17.5 7.5t17.5 -7.5t7.5 -17.5t-7.5 -17.5t-17.5 -7.5
t-17.5 7.5zM679 -358.5q-8 7.5 -8 17.5t8 17.5t18 7.5t17.5 -7.5t7.5 -17.5t-7.5 -17.5t-17.5 -7.5t-18 7.5z" />
    <glyph glyph-name="uniFC5A" unicode="&#xfef3;&#xfef2;" horiz-adv-x="762" arabic-form="isolated" 
d="M673 55.5q-39 -46.5 -112 -52.5q71 -31 71 -106q0 -84 -80 -132t-222 -48q-150 0 -221 59.5t-71 184.5q0 55 12.5 102t22.5 69q6 14 18 11q7 -1 9 -6.5t0 -13.5q-1 -2 -9 -24.5t-16 -62t-8 -75.5q0 -109 63.5 -160t201.5 -51q129 0 201.5 39t72.5 108q0 49 -37 72
t-113 38q-7 1 -11.5 6t-4.5 11q1 7 6 11.5t13 3.5q34 -6 77 -6q78 0 113 39.5t35 125.5q0 62 -13 130v2q0 8 4 12t10 4q13 0 14 -15q13 -59 13 -133q0 -96 -39 -142.5zM582.5 -358.5q-7.5 7.5 -7.5 17.5t7.5 17.5t17.5 7.5t17.5 -7.5t7.5 -17.5t-7.5 -17.5t-17.5 -7.5
t-17.5 7.5zM679 -358.5q-8 7.5 -8 17.5t8 17.5t18 7.5t17.5 -7.5t7.5 -17.5t-7.5 -17.5t-17.5 -7.5t-18 7.5zM263.5 -418.5q-7.5 7.5 -7.5 17.5t7.5 17.5t17.5 7.5t17.5 -7.5t7.5 -17.5t-7.5 -17.5t-17.5 -7.5t-17.5 7.5zM360 -418.5q-8 7.5 -8 17.5t8 17.5t18 7.5
t17.5 -7.5t7.5 -17.5t-7.5 -17.5t-17.5 -7.5t-18 7.5z" />
    <glyph glyph-name="uniFC64" unicode="&#xfe8c;&#xfeae;" horiz-adv-x="665" arabic-form="final" 
d="M682 30v-27l-17 -3q-95 0 -135.5 38.5t-40.5 126.5v19q-14 -33 -49 -48.5t-94 -15.5q-78 0 -105 40q5 -48 5 -98q0 -87 -26.5 -155.5t-74 -107t-108.5 -38.5q-28 0 -50.5 5t-32.5 11q-6 3 -9 9.5t0 12.5q5 11 20 7q36 -12 71 -12q52 0 94 33t65.5 94t23.5 141
q0 81 -18 164v5q0 13 11 16h2q10 0 15 -14q5 -26 15 -43t34 -27t68 -10q52 0 82.5 10.5t45.5 38t15 78.5q0 6 3.5 10t10.5 4q6 0 9.5 -4t3.5 -10v-109q0 -52 14 -81.5t46.5 -43t88.5 -13.5zM581 395q0 -9 -11 -12q-89 -11 -152 -17h-2q-14 0 -14 12v2q0 9 13 11l31 3
q-26 16 -26 57q0 39 22.5 58.5t55.5 19.5q14 0 26.5 -4t17.5 -8q11 -7 10 -14q0 -6 -5 -8.5t-11 -0.5q-22 9 -38 9q-56 0 -56 -53q0 -27 11.5 -38.5t34.5 -11.5q13 0 77 8h3q5 0 9 -3t4 -8v-2z" />
    <glyph glyph-name="uniFC65" unicode="&#xfe8c;&#xfeb0;" horiz-adv-x="665" arabic-form="final" 
d="M682 30v-27l-17 -3q-95 0 -135.5 38.5t-40.5 126.5v19q-14 -33 -49 -48.5t-94 -15.5q-78 0 -105 40q5 -48 5 -98q0 -87 -26.5 -155.5t-74 -107t-108.5 -38.5q-28 0 -50.5 5t-32.5 11q-6 3 -9 9.5t0 12.5q5 11 20 7q36 -12 71 -12q52 0 94 33t65.5 94t23.5 141
q0 81 -18 164v5q0 13 11 16h2q10 0 15 -14q5 -26 15 -43t34 -27t68 -10q52 0 82.5 10.5t45.5 38t15 78.5q0 6 3.5 10t10.5 4q6 0 9.5 -4t3.5 -10v-109q0 -52 14 -81.5t46.5 -43t88.5 -13.5zM581 395q0 -9 -11 -12q-89 -11 -152 -17h-2q-14 0 -14 12v2q0 9 13 11l31 3
q-26 16 -26 57q0 39 22.5 58.5t55.5 19.5q14 0 26.5 -4t17.5 -8q11 -7 10 -14q0 -6 -5 -8.5t-11 -0.5q-22 9 -38 9q-56 0 -56 -53q0 -27 11.5 -38.5t34.5 -11.5q13 0 77 8h3q5 0 9 -3t4 -8v-2zM195 351.5q-8 7.5 -8 18.5t8 18.5t19 7.5t18.5 -7.5t7.5 -18.5q0 -10 -7.5 -18
t-18.5 -8t-19 7.5z" />
    <glyph glyph-name="uniFC67" unicode="&#xfe8c;&#xfee6;" horiz-adv-x="1008" arabic-form="final" 
d="M1025 30v-27l-17 -3q-95 0 -135.5 38.5t-40.5 126.5v19q-14 -33 -49 -48.5t-94 -15.5q-41 0 -66 10t-39 29q9 -64 9 -118q0 -95 -28 -153.5t-90 -86t-166 -27.5q-100 0 -159 25.5t-85.5 80t-26.5 143.5q0 63 13.5 109t25.5 70q2 6 7.5 9t11.5 1q9 -3 9 -13l-2 -8
q-36 -81 -36 -168q0 -79 23.5 -126t76.5 -68.5t143 -21.5q93 0 148.5 22.5t81 71.5t25.5 130q0 86 -21 198v4q0 6 3.5 10.5t9.5 4.5q12 0 15 -13q5 -27 15 -44t34 -27.5t68 -10.5q52 0 82.5 10.5t45.5 38t15 78.5q0 6 3.5 10t10.5 4q6 0 9.5 -4t3.5 -10v-109q0 -52 14 -81.5
t46.5 -43t88.5 -13.5zM303 334.5q-8 7.5 -8 18.5t8 18.5t19 7.5t18.5 -7.5t7.5 -18.5q0 -10 -7.5 -18t-18.5 -8t-19 7.5zM923 395q0 -9 -11 -12q-89 -11 -152 -17h-2q-14 0 -14 12v2q0 9 13 11l31 3q-26 16 -26 57q0 39 22.5 58.5t55.5 19.5q14 0 26.5 -4t17.5 -8
q11 -7 10 -14q0 -6 -5 -8.5t-11 -0.5q-22 9 -38 9q-56 0 -56 -53q0 -27 11.5 -38.5t34.5 -11.5q13 0 77 8h3q5 0 9 -3t4 -8v-2z" />
    <glyph glyph-name="uniFC68" unicode="&#xfe8c;&#xfef0;" horiz-adv-x="885" arabic-form="final" 
d="M74 146q6 14 19 11q6 -1 8 -6t0 -13q-1 -2 -17.5 -46t-16.5 -112q0 -119 66 -174.5t210 -55.5q142 0 219.5 39.5t77.5 114.5q0 34 -15 55t-46 35t-89 29q-84 22 -118 51.5t-34 81.5q0 46 26.5 86.5t71 64.5t95.5 24q56 0 92.5 -21t58.5 -52.5t49 -85.5l17 -33
q22 -43 37.5 -64t38.5 -31.5t61 -10.5l17 -3v-27l-17 -3q-45 0 -73 12.5t-46.5 36.5t-40.5 68l-19 37q-25 50 -46 79.5t-52.5 46.5t-77.5 17q-44 0 -82 -19.5t-61 -51.5t-23 -67q0 -27 14 -45t45 -31.5t87 -28.5q58 -16 91 -33.5t49 -45t16 -70.5q0 -91 -84 -139.5
t-239 -48.5q-157 0 -231 64t-74 199q0 76 36 166zM610 435q0 -9 -11 -12q-89 -11 -152 -17h-2q-14 0 -14 12v2q0 9 13 11l31 3q-26 16 -26 57q0 39 22.5 58.5t55.5 19.5q14 0 26.5 -4t17.5 -8q11 -7 10 -14q0 -6 -5 -8.5t-11 -0.5q-22 9 -38 9q-56 0 -56 -53
q0 -27 11.5 -38.5t34.5 -11.5q13 0 77 8h3q5 0 9 -3t4 -8v-2z" />
    <glyph glyph-name="uniFC69" unicode="&#xfe8c;&#xfef2;" horiz-adv-x="885" arabic-form="final" 
d="M74 146q6 14 19 11q6 -1 8 -6t0 -13q-1 -2 -17.5 -46t-16.5 -112q0 -119 66 -174.5t210 -55.5q142 0 219.5 39.5t77.5 114.5q0 34 -15 55t-46 35t-89 29q-84 22 -118 51.5t-34 81.5q0 46 26.5 86.5t71 64.5t95.5 24q56 0 92.5 -21t58.5 -52.5t49 -85.5l17 -33
q22 -43 37.5 -64t38.5 -31.5t61 -10.5l17 -3v-27l-17 -3q-45 0 -73 12.5t-46.5 36.5t-40.5 68l-19 37q-25 50 -46 79.5t-52.5 46.5t-77.5 17q-44 0 -82 -19.5t-61 -51.5t-23 -67q0 -27 14 -45t45 -31.5t87 -28.5q58 -16 91 -33.5t49 -45t16 -70.5q0 -91 -84 -139.5
t-239 -48.5q-157 0 -231 64t-74 199q0 76 36 166zM610 435q0 -9 -11 -12q-89 -11 -152 -17h-2q-14 0 -14 12v2q0 9 13 11l31 3q-26 16 -26 57q0 39 22.5 58.5t55.5 19.5q14 0 26.5 -4t17.5 -8q11 -7 10 -14q0 -6 -5 -8.5t-11 -0.5q-22 9 -38 9q-56 0 -56 -53
q0 -27 11.5 -38.5t34.5 -11.5q13 0 77 8h3q5 0 9 -3t4 -8v-2zM272.5 -418.5q-7.5 7.5 -7.5 17.5t7.5 17.5t17.5 7.5t17.5 -7.5t7.5 -17.5t-7.5 -17.5t-17.5 -7.5t-17.5 7.5zM369 -418.5q-8 7.5 -8 17.5t8 17.5t18 7.5t17.5 -7.5t7.5 -17.5t-7.5 -17.5t-17.5 -7.5t-18 7.5z
" />
    <glyph glyph-name="uniFC6A" unicode="&#xfe92;&#xfeae;" horiz-adv-x="665" arabic-form="final" 
d="M682 30v-27l-17 -3q-95 0 -135.5 38.5t-40.5 126.5v19q-14 -33 -49 -48.5t-94 -15.5q-78 0 -105 40q5 -48 5 -98q0 -87 -26.5 -155.5t-74 -107t-108.5 -38.5q-28 0 -50.5 5t-32.5 11q-6 3 -9 9.5t0 12.5q5 11 20 7q36 -12 71 -12q52 0 94 33t65.5 94t23.5 141
q0 81 -18 164v5q0 13 11 16h2q10 0 15 -14q5 -26 15 -43t34 -27t68 -10q52 0 82.5 10.5t45.5 38t15 78.5q0 6 3.5 10t10.5 4q6 0 9.5 -4t3.5 -10v-109q0 -52 14 -81.5t46.5 -43t88.5 -13.5zM481 -106.5q-8 7.5 -8 18.5q0 10 8 17.5t19 7.5q10 0 18 -7.5t8 -17.5t-7.5 -18
t-18.5 -8t-19 7.5z" />
    <glyph glyph-name="uniFC6B" unicode="&#xfe92;&#xfeb0;" horiz-adv-x="665" arabic-form="final" 
d="M682 30v-27l-17 -3q-95 0 -135.5 38.5t-40.5 126.5v19q-14 -33 -49 -48.5t-94 -15.5q-78 0 -105 40q5 -48 5 -98q0 -87 -26.5 -155.5t-74 -107t-108.5 -38.5q-28 0 -50.5 5t-32.5 11q-6 3 -9 9.5t0 12.5q5 11 20 7q36 -12 71 -12q52 0 94 33t65.5 94t23.5 141
q0 81 -18 164v5q0 13 11 16h2q10 0 15 -14q5 -26 15 -43t34 -27t68 -10q52 0 82.5 10.5t45.5 38t15 78.5q0 6 3.5 10t10.5 4q6 0 9.5 -4t3.5 -10v-109q0 -52 14 -81.5t46.5 -43t88.5 -13.5zM481 -106.5q-8 7.5 -8 18.5q0 10 8 17.5t19 7.5q10 0 18 -7.5t8 -17.5t-7.5 -18
t-18.5 -8t-19 7.5zM195 351.5q-8 7.5 -8 18.5t8 18.5t19 7.5t18.5 -7.5t7.5 -18.5q0 -10 -7.5 -18t-18.5 -8t-19 7.5z" />
    <glyph glyph-name="uniFC6D" unicode="&#xfe92;&#xfee6;" horiz-adv-x="1008" arabic-form="final" 
d="M1025 30v-27l-17 -3q-95 0 -135.5 38.5t-40.5 126.5v19q-14 -33 -49 -48.5t-94 -15.5q-41 0 -66 10t-39 29q9 -64 9 -118q0 -95 -28 -153.5t-90 -86t-166 -27.5q-100 0 -159 25.5t-85.5 80t-26.5 143.5q0 63 13.5 109t25.5 70q2 6 7.5 9t11.5 1q9 -3 9 -13l-2 -8
q-36 -81 -36 -168q0 -79 23.5 -126t76.5 -68.5t143 -21.5q93 0 148.5 22.5t81 71.5t25.5 130q0 86 -21 198v4q0 6 3.5 10.5t9.5 4.5q12 0 15 -13q5 -27 15 -44t34 -27.5t68 -10.5q52 0 82.5 10.5t45.5 38t15 78.5q0 6 3.5 10t10.5 4q6 0 9.5 -4t3.5 -10v-109q0 -52 14 -81.5
t46.5 -43t88.5 -13.5zM825 -106.5q-8 7.5 -8 18.5q0 10 8 17.5t19 7.5q10 0 18 -7.5t8 -17.5t-7.5 -18t-18.5 -8t-19 7.5zM303 334.5q-8 7.5 -8 18.5t8 18.5t19 7.5t18.5 -7.5t7.5 -18.5q0 -10 -7.5 -18t-18.5 -8t-19 7.5z" />
    <glyph glyph-name="uniFC6E" unicode="&#xfe92;&#xfef0;" horiz-adv-x="885" arabic-form="final" 
d="M74 146q6 14 19 11q6 -1 8 -6t0 -13q-1 -2 -17.5 -46t-16.5 -112q0 -119 66 -174.5t210 -55.5q142 0 219.5 39.5t77.5 114.5q0 34 -15 55t-46 35t-89 29q-84 22 -118 51.5t-34 81.5q0 46 26.5 86.5t71 64.5t95.5 24q56 0 92.5 -21t58.5 -52.5t49 -85.5l17 -33
q22 -43 37.5 -64t38.5 -31.5t61 -10.5l17 -3v-27l-17 -3q-45 0 -73 12.5t-46.5 36.5t-40.5 68l-19 37q-25 50 -46 79.5t-52.5 46.5t-77.5 17q-44 0 -82 -19.5t-61 -51.5t-23 -67q0 -27 14 -45t45 -31.5t87 -28.5q58 -16 91 -33.5t49 -45t16 -70.5q0 -91 -84 -139.5
t-239 -48.5q-157 0 -231 64t-74 199q0 76 36 166zM773 -144.5q-8 7.5 -8 18.5q0 10 8 17.5t19 7.5q10 0 18 -7.5t8 -17.5t-7.5 -18t-18.5 -8t-19 7.5z" />
    <glyph glyph-name="uniFC6F" unicode="&#xfe92;&#xfef2;" horiz-adv-x="885" arabic-form="final" 
d="M74 146q6 14 19 11q6 -1 8 -6t0 -13q-1 -2 -17.5 -46t-16.5 -112q0 -119 66 -174.5t210 -55.5q142 0 219.5 39.5t77.5 114.5q0 34 -15 55t-46 35t-89 29q-84 22 -118 51.5t-34 81.5q0 46 26.5 86.5t71 64.5t95.5 24q56 0 92.5 -21t58.5 -52.5t49 -85.5l17 -33
q22 -43 37.5 -64t38.5 -31.5t61 -10.5l17 -3v-27l-17 -3q-45 0 -73 12.5t-46.5 36.5t-40.5 68l-19 37q-25 50 -46 79.5t-52.5 46.5t-77.5 17q-44 0 -82 -19.5t-61 -51.5t-23 -67q0 -27 14 -45t45 -31.5t87 -28.5q58 -16 91 -33.5t49 -45t16 -70.5q0 -91 -84 -139.5
t-239 -48.5q-157 0 -231 64t-74 199q0 76 36 166zM773 -144.5q-8 7.5 -8 18.5q0 10 8 17.5t19 7.5q10 0 18 -7.5t8 -17.5t-7.5 -18t-18.5 -8t-19 7.5zM272.5 -418.5q-7.5 7.5 -7.5 17.5t7.5 17.5t17.5 7.5t17.5 -7.5t7.5 -17.5t-7.5 -17.5t-17.5 -7.5t-17.5 7.5zM369 -418.5
q-8 7.5 -8 17.5t8 17.5t18 7.5t17.5 -7.5t7.5 -17.5t-7.5 -17.5t-17.5 -7.5t-18 7.5z" />
    <glyph glyph-name="uniFC70" unicode="&#xfe98;&#xfeae;" horiz-adv-x="665" arabic-form="final" 
d="M682 30v-27l-17 -3q-95 0 -135.5 38.5t-40.5 126.5v19q-14 -33 -49 -48.5t-94 -15.5q-78 0 -105 40q5 -48 5 -98q0 -87 -26.5 -155.5t-74 -107t-108.5 -38.5q-28 0 -50.5 5t-32.5 11q-6 3 -9 9.5t0 12.5q5 11 20 7q36 -12 71 -12q52 0 94 33t65.5 94t23.5 141
q0 81 -18 164v5q0 13 11 16h2q10 0 15 -14q5 -26 15 -43t34 -27t68 -10q52 0 82.5 10.5t45.5 38t15 78.5q0 6 3.5 10t10.5 4q6 0 9.5 -4t3.5 -10v-109q0 -52 14 -81.5t46.5 -43t88.5 -13.5zM436.5 399.5q-7.5 7.5 -7.5 17.5t7.5 17.5t17.5 7.5t17.5 -7.5t7.5 -17.5
t-7.5 -17.5t-17.5 -7.5t-17.5 7.5zM533 399.5q-8 7.5 -8 17.5t8 17.5t18 7.5t17.5 -7.5t7.5 -17.5t-7.5 -17.5t-17.5 -7.5t-18 7.5z" />
    <glyph glyph-name="uniFC71" unicode="&#xfe98;&#xfeb0;" horiz-adv-x="665" arabic-form="final" 
d="M682 30v-27l-17 -3q-95 0 -135.5 38.5t-40.5 126.5v19q-14 -33 -49 -48.5t-94 -15.5q-78 0 -105 40q5 -48 5 -98q0 -87 -26.5 -155.5t-74 -107t-108.5 -38.5q-28 0 -50.5 5t-32.5 11q-6 3 -9 9.5t0 12.5q5 11 20 7q36 -12 71 -12q52 0 94 33t65.5 94t23.5 141
q0 81 -18 164v5q0 13 11 16h2q10 0 15 -14q5 -26 15 -43t34 -27t68 -10q52 0 82.5 10.5t45.5 38t15 78.5q0 6 3.5 10t10.5 4q6 0 9.5 -4t3.5 -10v-109q0 -52 14 -81.5t46.5 -43t88.5 -13.5zM195 351.5q-8 7.5 -8 18.5t8 18.5t19 7.5t18.5 -7.5t7.5 -18.5q0 -10 -7.5 -18
t-18.5 -8t-19 7.5zM436.5 399.5q-7.5 7.5 -7.5 17.5t7.5 17.5t17.5 7.5t17.5 -7.5t7.5 -17.5t-7.5 -17.5t-17.5 -7.5t-17.5 7.5zM533 399.5q-8 7.5 -8 17.5t8 17.5t18 7.5t17.5 -7.5t7.5 -17.5t-7.5 -17.5t-17.5 -7.5t-18 7.5z" />
    <glyph glyph-name="uniFC73" unicode="&#xfe98;&#xfee6;" horiz-adv-x="1008" arabic-form="final" 
d="M1025 30v-27l-17 -3q-95 0 -135.5 38.5t-40.5 126.5v19q-14 -33 -49 -48.5t-94 -15.5q-41 0 -66 10t-39 29q9 -64 9 -118q0 -95 -28 -153.5t-90 -86t-166 -27.5q-100 0 -159 25.5t-85.5 80t-26.5 143.5q0 63 13.5 109t25.5 70q2 6 7.5 9t11.5 1q9 -3 9 -13l-2 -8
q-36 -81 -36 -168q0 -79 23.5 -126t76.5 -68.5t143 -21.5q93 0 148.5 22.5t81 71.5t25.5 130q0 86 -21 198v4q0 6 3.5 10.5t9.5 4.5q12 0 15 -13q5 -27 15 -44t34 -27.5t68 -10.5q52 0 82.5 10.5t45.5 38t15 78.5q0 6 3.5 10t10.5 4q6 0 9.5 -4t3.5 -10v-109q0 -52 14 -81.5
t46.5 -43t88.5 -13.5zM303 334.5q-8 7.5 -8 18.5t8 18.5t19 7.5t18.5 -7.5t7.5 -18.5q0 -10 -7.5 -18t-18.5 -8t-19 7.5zM778.5 399.5q-7.5 7.5 -7.5 17.5t7.5 17.5t17.5 7.5t17.5 -7.5t7.5 -17.5t-7.5 -17.5t-17.5 -7.5t-17.5 7.5zM875 399.5q-8 7.5 -8 17.5t8 17.5t18 7.5
t17.5 -7.5t7.5 -17.5t-7.5 -17.5t-17.5 -7.5t-18 7.5z" />
    <glyph glyph-name="uniFC74" unicode="&#xfe98;&#xfef0;" horiz-adv-x="885" arabic-form="final" 
d="M74 146q6 14 19 11q6 -1 8 -6t0 -13q-1 -2 -17.5 -46t-16.5 -112q0 -119 66 -174.5t210 -55.5q142 0 219.5 39.5t77.5 114.5q0 34 -15 55t-46 35t-89 29q-84 22 -118 51.5t-34 81.5q0 46 26.5 86.5t71 64.5t95.5 24q56 0 92.5 -21t58.5 -52.5t49 -85.5l17 -33
q22 -43 37.5 -64t38.5 -31.5t61 -10.5l17 -3v-27l-17 -3q-45 0 -73 12.5t-46.5 36.5t-40.5 68l-19 37q-25 50 -46 79.5t-52.5 46.5t-77.5 17q-44 0 -82 -19.5t-61 -51.5t-23 -67q0 -27 14 -45t45 -31.5t87 -28.5q58 -16 91 -33.5t49 -45t16 -70.5q0 -91 -84 -139.5
t-239 -48.5q-157 0 -231 64t-74 199q0 76 36 166zM465.5 439.5q-7.5 7.5 -7.5 17.5t7.5 17.5t17.5 7.5t17.5 -7.5t7.5 -17.5t-7.5 -17.5t-17.5 -7.5t-17.5 7.5zM562 439.5q-8 7.5 -8 17.5t8 17.5t18 7.5t17.5 -7.5t7.5 -17.5t-7.5 -17.5t-17.5 -7.5t-18 7.5z" />
    <glyph glyph-name="uniFC75" unicode="&#xfe98;&#xfef2;" horiz-adv-x="885" arabic-form="final" 
d="M74 146q6 14 19 11q6 -1 8 -6t0 -13q-1 -2 -17.5 -46t-16.5 -112q0 -119 66 -174.5t210 -55.5q142 0 219.5 39.5t77.5 114.5q0 34 -15 55t-46 35t-89 29q-84 22 -118 51.5t-34 81.5q0 46 26.5 86.5t71 64.5t95.5 24q56 0 92.5 -21t58.5 -52.5t49 -85.5l17 -33
q22 -43 37.5 -64t38.5 -31.5t61 -10.5l17 -3v-27l-17 -3q-45 0 -73 12.5t-46.5 36.5t-40.5 68l-19 37q-25 50 -46 79.5t-52.5 46.5t-77.5 17q-44 0 -82 -19.5t-61 -51.5t-23 -67q0 -27 14 -45t45 -31.5t87 -28.5q58 -16 91 -33.5t49 -45t16 -70.5q0 -91 -84 -139.5
t-239 -48.5q-157 0 -231 64t-74 199q0 76 36 166zM465.5 439.5q-7.5 7.5 -7.5 17.5t7.5 17.5t17.5 7.5t17.5 -7.5t7.5 -17.5t-7.5 -17.5t-17.5 -7.5t-17.5 7.5zM562 439.5q-8 7.5 -8 17.5t8 17.5t18 7.5t17.5 -7.5t7.5 -17.5t-7.5 -17.5t-17.5 -7.5t-18 7.5zM272.5 -418.5
q-7.5 7.5 -7.5 17.5t7.5 17.5t17.5 7.5t17.5 -7.5t7.5 -17.5t-7.5 -17.5t-17.5 -7.5t-17.5 7.5zM369 -418.5q-8 7.5 -8 17.5t8 17.5t18 7.5t17.5 -7.5t7.5 -17.5t-7.5 -17.5t-17.5 -7.5t-18 7.5z" />
    <glyph glyph-name="uniFC76" unicode="&#xfe9c;&#xfeae;" horiz-adv-x="665" arabic-form="final" 
d="M682 30v-27l-17 -3q-95 0 -135.5 38.5t-40.5 126.5v19q-14 -33 -49 -48.5t-94 -15.5q-78 0 -105 40q5 -48 5 -98q0 -87 -26.5 -155.5t-74 -107t-108.5 -38.5q-28 0 -50.5 5t-32.5 11q-6 3 -9 9.5t0 12.5q5 11 20 7q36 -12 71 -12q52 0 94 33t65.5 94t23.5 141
q0 81 -18 164v5q0 13 11 16h2q10 0 15 -14q5 -26 15 -43t34 -27t68 -10q52 0 82.5 10.5t45.5 38t15 78.5q0 6 3.5 10t10.5 4q6 0 9.5 -4t3.5 -10v-109q0 -52 14 -81.5t46.5 -43t88.5 -13.5zM520.5 507.5q7.5 -7.5 7.5 -17.5q0 -9 -7.5 -16.5t-17.5 -7.5t-17.5 7.5t-7.5 16.5
q0 10 7.5 17.5t17.5 7.5t17.5 -7.5zM471.5 429.5q7.5 -7.5 7.5 -17.5t-7.5 -17t-17.5 -7t-17.5 7t-7.5 17t7.5 17.5t17.5 7.5t17.5 -7.5zM568.5 429.5q7.5 -7.5 7.5 -17.5t-7.5 -17t-17.5 -7q-11 0 -18.5 7t-7.5 17t8 17.5t18 7.5t17.5 -7.5z" />
    <glyph glyph-name="uniFC77" unicode="&#xfe9c;&#xfeb0;" horiz-adv-x="665" arabic-form="final" 
d="M682 30v-27l-17 -3q-95 0 -135.5 38.5t-40.5 126.5v19q-14 -33 -49 -48.5t-94 -15.5q-78 0 -105 40q5 -48 5 -98q0 -87 -26.5 -155.5t-74 -107t-108.5 -38.5q-28 0 -50.5 5t-32.5 11q-6 3 -9 9.5t0 12.5q5 11 20 7q36 -12 71 -12q52 0 94 33t65.5 94t23.5 141
q0 81 -18 164v5q0 13 11 16h2q10 0 15 -14q5 -26 15 -43t34 -27t68 -10q52 0 82.5 10.5t45.5 38t15 78.5q0 6 3.5 10t10.5 4q6 0 9.5 -4t3.5 -10v-109q0 -52 14 -81.5t46.5 -43t88.5 -13.5zM195 351.5q-8 7.5 -8 18.5t8 18.5t19 7.5t18.5 -7.5t7.5 -18.5q0 -10 -7.5 -18
t-18.5 -8t-19 7.5zM520.5 507.5q7.5 -7.5 7.5 -17.5q0 -9 -7.5 -16.5t-17.5 -7.5t-17.5 7.5t-7.5 16.5q0 10 7.5 17.5t17.5 7.5t17.5 -7.5zM471.5 429.5q7.5 -7.5 7.5 -17.5t-7.5 -17t-17.5 -7t-17.5 7t-7.5 17t7.5 17.5t17.5 7.5t17.5 -7.5zM568.5 429.5
q7.5 -7.5 7.5 -17.5t-7.5 -17t-17.5 -7q-11 0 -18.5 7t-7.5 17t8 17.5t18 7.5t17.5 -7.5z" />
    <glyph glyph-name="uniFC79" unicode="&#xfe9c;&#xfee6;" horiz-adv-x="1008" arabic-form="final" 
d="M1025 30v-27l-17 -3q-95 0 -135.5 38.5t-40.5 126.5v19q-14 -33 -49 -48.5t-94 -15.5q-41 0 -66 10t-39 29q9 -64 9 -118q0 -95 -28 -153.5t-90 -86t-166 -27.5q-100 0 -159 25.5t-85.5 80t-26.5 143.5q0 63 13.5 109t25.5 70q2 6 7.5 9t11.5 1q9 -3 9 -13l-2 -8
q-36 -81 -36 -168q0 -79 23.5 -126t76.5 -68.5t143 -21.5q93 0 148.5 22.5t81 71.5t25.5 130q0 86 -21 198v4q0 6 3.5 10.5t9.5 4.5q12 0 15 -13q5 -27 15 -44t34 -27.5t68 -10.5q52 0 82.5 10.5t45.5 38t15 78.5q0 6 3.5 10t10.5 4q6 0 9.5 -4t3.5 -10v-109q0 -52 14 -81.5
t46.5 -43t88.5 -13.5zM303 334.5q-8 7.5 -8 18.5t8 18.5t19 7.5t18.5 -7.5t7.5 -18.5q0 -10 -7.5 -18t-18.5 -8t-19 7.5zM862.5 507.5q7.5 -7.5 7.5 -17.5q0 -9 -7.5 -16.5t-17.5 -7.5t-17.5 7.5t-7.5 16.5q0 10 7.5 17.5t17.5 7.5t17.5 -7.5zM813.5 429.5
q7.5 -7.5 7.5 -17.5t-7.5 -17t-17.5 -7t-17.5 7t-7.5 17t7.5 17.5t17.5 7.5t17.5 -7.5zM910.5 429.5q7.5 -7.5 7.5 -17.5t-7.5 -17t-17.5 -7q-11 0 -18.5 7t-7.5 17t8 17.5t18 7.5t17.5 -7.5z" />
    <glyph glyph-name="uniFC7A" unicode="&#xfe9c;&#xfef0;" horiz-adv-x="885" arabic-form="final" 
d="M74 146q6 14 19 11q6 -1 8 -6t0 -13q-1 -2 -17.5 -46t-16.5 -112q0 -119 66 -174.5t210 -55.5q142 0 219.5 39.5t77.5 114.5q0 34 -15 55t-46 35t-89 29q-84 22 -118 51.5t-34 81.5q0 46 26.5 86.5t71 64.5t95.5 24q56 0 92.5 -21t58.5 -52.5t49 -85.5l17 -33
q22 -43 37.5 -64t38.5 -31.5t61 -10.5l17 -3v-27l-17 -3q-45 0 -73 12.5t-46.5 36.5t-40.5 68l-19 37q-25 50 -46 79.5t-52.5 46.5t-77.5 17q-44 0 -82 -19.5t-61 -51.5t-23 -67q0 -27 14 -45t45 -31.5t87 -28.5q58 -16 91 -33.5t49 -45t16 -70.5q0 -91 -84 -139.5
t-239 -48.5q-157 0 -231 64t-74 199q0 76 36 166zM549.5 547.5q7.5 -7.5 7.5 -17.5q0 -9 -7.5 -16.5t-17.5 -7.5t-17.5 7.5t-7.5 16.5q0 10 7.5 17.5t17.5 7.5t17.5 -7.5zM500.5 469.5q7.5 -7.5 7.5 -17.5t-7.5 -17t-17.5 -7t-17.5 7t-7.5 17t7.5 17.5t17.5 7.5t17.5 -7.5z
M597.5 469.5q7.5 -7.5 7.5 -17.5t-7.5 -17t-17.5 -7q-11 0 -18.5 7t-7.5 17t8 17.5t18 7.5t17.5 -7.5z" />
    <glyph glyph-name="uniFC7B" unicode="&#xfe9c;&#xfef2;" horiz-adv-x="885" arabic-form="final" 
d="M74 146q6 14 19 11q6 -1 8 -6t0 -13q-1 -2 -17.5 -46t-16.5 -112q0 -119 66 -174.5t210 -55.5q142 0 219.5 39.5t77.5 114.5q0 34 -15 55t-46 35t-89 29q-84 22 -118 51.5t-34 81.5q0 46 26.5 86.5t71 64.5t95.5 24q56 0 92.5 -21t58.5 -52.5t49 -85.5l17 -33
q22 -43 37.5 -64t38.5 -31.5t61 -10.5l17 -3v-27l-17 -3q-45 0 -73 12.5t-46.5 36.5t-40.5 68l-19 37q-25 50 -46 79.5t-52.5 46.5t-77.5 17q-44 0 -82 -19.5t-61 -51.5t-23 -67q0 -27 14 -45t45 -31.5t87 -28.5q58 -16 91 -33.5t49 -45t16 -70.5q0 -91 -84 -139.5
t-239 -48.5q-157 0 -231 64t-74 199q0 76 36 166zM549.5 547.5q7.5 -7.5 7.5 -17.5q0 -9 -7.5 -16.5t-17.5 -7.5t-17.5 7.5t-7.5 16.5q0 10 7.5 17.5t17.5 7.5t17.5 -7.5zM500.5 469.5q7.5 -7.5 7.5 -17.5t-7.5 -17t-17.5 -7t-17.5 7t-7.5 17t7.5 17.5t17.5 7.5t17.5 -7.5z
M597.5 469.5q7.5 -7.5 7.5 -17.5t-7.5 -17t-17.5 -7q-11 0 -18.5 7t-7.5 17t8 17.5t18 7.5t17.5 -7.5zM272.5 -418.5q-7.5 7.5 -7.5 17.5t7.5 17.5t17.5 7.5t17.5 -7.5t7.5 -17.5t-7.5 -17.5t-17.5 -7.5t-17.5 7.5zM369 -418.5q-8 7.5 -8 17.5t8 17.5t18 7.5t17.5 -7.5
t7.5 -17.5t-7.5 -17.5t-17.5 -7.5t-18 7.5z" />
    <glyph glyph-name="uniFC83" unicode="&#xfedc;&#xfef0;" horiz-adv-x="1008" arabic-form="final" 
d="M1025 30v-27l-17 -3q-47 0 -78.5 10t-58.5 34t-61 69q-19 -56 -67.5 -84.5t-152.5 -28.5h-24q66 -33 66 -103q0 -84 -80 -132t-222 -48q-150 0 -221 59.5t-71 184.5q0 55 12.5 102t23.5 70q5 12 15 12q6 0 10 -3.5t4 -9.5l-2 -8q-1 -2 -17.5 -46t-16.5 -117
q0 -109 63.5 -160t201.5 -51q129 0 201.5 39t72.5 108q0 49 -35.5 72t-112.5 38q-7 1 -11.5 6t-4.5 11q0 7 5 12t13 4q34 -7 129 -7q71 0 112.5 12.5t61 33.5t30.5 53q-144 203 -212 294q-10 13 -10 27t18 25l354 229q5 4 11 4q8 0 12 -7q2 -4 2 -7q0 -8 -10 -15l-358 -232
l142 -195l72 -100q39 -53 66 -78.5t55.5 -34.5t72.5 -9z" />
    <glyph glyph-name="uniFC84" unicode="&#xfedc;&#xfef2;" horiz-adv-x="1008" arabic-form="final" 
d="M1025 30v-27l-17 -3q-47 0 -78.5 10t-58.5 34t-61 69q-19 -56 -67.5 -84.5t-152.5 -28.5h-24q66 -33 66 -103q0 -84 -80 -132t-222 -48q-150 0 -221 59.5t-71 184.5q0 55 12.5 102t23.5 70q5 12 15 12q6 0 10 -3.5t4 -9.5l-2 -8q-1 -2 -17.5 -46t-16.5 -117
q0 -109 63.5 -160t201.5 -51q129 0 201.5 39t72.5 108q0 49 -35.5 72t-112.5 38q-7 1 -11.5 6t-4.5 11q0 7 5 12t13 4q34 -7 129 -7q71 0 112.5 12.5t61 33.5t30.5 53q-144 203 -212 294q-10 13 -10 27t18 25l354 229q5 4 11 4q8 0 12 -7q2 -4 2 -7q0 -8 -10 -15l-358 -232
l142 -195l72 -100q39 -53 66 -78.5t55.5 -34.5t72.5 -9zM271.5 -418.5q-7.5 7.5 -7.5 17.5t7.5 17.5t17.5 7.5t17.5 -7.5t7.5 -17.5t-7.5 -17.5t-17.5 -7.5t-17.5 7.5zM368 -418.5q-8 7.5 -8 17.5t8 17.5t18 7.5t17.5 -7.5t7.5 -17.5t-7.5 -17.5t-17.5 -7.5t-18 7.5z" />
    <glyph glyph-name="uniFC86" unicode="&#xfee0;&#xfef0;" horiz-adv-x="845" arabic-form="final" 
d="M862 30v-27l-17 -3q-73 0 -111 19.5t-51 67.5q-12 -37 -41 -58t-81 -26q71 -31 71 -106q0 -84 -80 -132t-222 -48q-150 0 -221 59t-71 184q0 52 13 101.5t23 70.5q6 14 18 11q10 -2 10 -11l-2 -8q-1 -2 -9 -24.5t-16 -63t-8 -75.5q0 -109 63.5 -160t201.5 -51
q129 0 201.5 39t72.5 108q0 50 -36 73t-113 37q-7 1 -12 6t-5 11q1 7 6 12t13 4q30 -7 71 -7q64 0 93.5 20.5t36.5 55t7 97.5v487q0 17 15 17t15 -17v-479q0 -32 -1 -46q1 -55 15.5 -84t45.5 -40t88 -11z" />
    <glyph glyph-name="uniFC87" unicode="&#xfee0;&#xfef2;" horiz-adv-x="845" arabic-form="final" 
d="M862 30v-27l-17 -3q-73 0 -111 19.5t-51 67.5q-12 -37 -41 -58t-81 -26q71 -31 71 -106q0 -84 -80 -132t-222 -48q-150 0 -221 59t-71 184q0 52 13 101.5t23 70.5q6 14 18 11q10 -2 10 -11l-2 -8q-1 -2 -9 -24.5t-16 -63t-8 -75.5q0 -109 63.5 -160t201.5 -51
q129 0 201.5 39t72.5 108q0 50 -36 73t-113 37q-7 1 -12 6t-5 11q1 7 6 12t13 4q30 -7 71 -7q64 0 93.5 20.5t36.5 55t7 97.5v487q0 17 15 17t15 -17v-479q0 -32 -1 -46q1 -55 15.5 -84t45.5 -40t88 -11zM263.5 -418.5q-7.5 7.5 -7.5 17.5t7.5 17.5t17.5 7.5t17.5 -7.5
t7.5 -17.5t-7.5 -17.5t-17.5 -7.5t-17.5 7.5zM360 -418.5q-8 7.5 -8 17.5t8 17.5t18 7.5t17.5 -7.5t7.5 -17.5t-7.5 -17.5t-17.5 -7.5t-18 7.5z" />
    <glyph glyph-name="uniFC8A" unicode="&#xfee8;&#xfeae;" horiz-adv-x="665" arabic-form="final" 
d="M682 30v-27l-17 -3q-95 0 -135.5 38.5t-40.5 126.5v19q-14 -33 -49 -48.5t-94 -15.5q-78 0 -105 40q5 -48 5 -98q0 -87 -26.5 -155.5t-74 -107t-108.5 -38.5q-28 0 -50.5 5t-32.5 11q-6 3 -9 9.5t0 12.5q5 11 20 7q36 -12 71 -12q52 0 94 33t65.5 94t23.5 141
q0 81 -18 164v5q0 13 11 16h2q10 0 15 -14q5 -26 15 -43t34 -27t68 -10q52 0 82.5 10.5t45.5 38t15 78.5q0 6 3.5 10t10.5 4q6 0 9.5 -4t3.5 -10v-109q0 -52 14 -81.5t46.5 -43t88.5 -13.5zM484 401.5q-8 7.5 -8 18.5t8 18.5t19 7.5t18.5 -7.5t7.5 -18.5q0 -10 -7.5 -18
t-18.5 -8t-19 7.5z" />
    <glyph glyph-name="uniFC8B" unicode="&#xfee8;&#xfeb0;" horiz-adv-x="665" arabic-form="final" 
d="M682 30v-27l-17 -3q-95 0 -135.5 38.5t-40.5 126.5v19q-14 -33 -49 -48.5t-94 -15.5q-78 0 -105 40q5 -48 5 -98q0 -87 -26.5 -155.5t-74 -107t-108.5 -38.5q-28 0 -50.5 5t-32.5 11q-6 3 -9 9.5t0 12.5q5 11 20 7q36 -12 71 -12q52 0 94 33t65.5 94t23.5 141
q0 81 -18 164v5q0 13 11 16h2q10 0 15 -14q5 -26 15 -43t34 -27t68 -10q52 0 82.5 10.5t45.5 38t15 78.5q0 6 3.5 10t10.5 4q6 0 9.5 -4t3.5 -10v-109q0 -52 14 -81.5t46.5 -43t88.5 -13.5zM484 401.5q-8 7.5 -8 18.5t8 18.5t19 7.5t18.5 -7.5t7.5 -18.5q0 -10 -7.5 -18
t-18.5 -8t-19 7.5zM195 351.5q-8 7.5 -8 18.5t8 18.5t19 7.5t18.5 -7.5t7.5 -18.5q0 -10 -7.5 -18t-18.5 -8t-19 7.5z" />
    <glyph glyph-name="uniFC8D" unicode="&#xfee8;&#xfee6;" horiz-adv-x="1008" arabic-form="final" 
d="M1025 30v-27l-17 -3q-95 0 -135.5 38.5t-40.5 126.5v19q-14 -33 -49 -48.5t-94 -15.5q-41 0 -66 10t-39 29q9 -64 9 -118q0 -95 -28 -153.5t-90 -86t-166 -27.5q-100 0 -159 25.5t-85.5 80t-26.5 143.5q0 63 13.5 109t25.5 70q2 6 7.5 9t11.5 1q9 -3 9 -13l-2 -8
q-36 -81 -36 -168q0 -79 23.5 -126t76.5 -68.5t143 -21.5q93 0 148.5 22.5t81 71.5t25.5 130q0 86 -21 198v4q0 6 3.5 10.5t9.5 4.5q12 0 15 -13q5 -27 15 -44t34 -27.5t68 -10.5q52 0 82.5 10.5t45.5 38t15 78.5q0 6 3.5 10t10.5 4q6 0 9.5 -4t3.5 -10v-109q0 -52 14 -81.5
t46.5 -43t88.5 -13.5zM303 334.5q-8 7.5 -8 18.5t8 18.5t19 7.5t18.5 -7.5t7.5 -18.5q0 -10 -7.5 -18t-18.5 -8t-19 7.5zM826 401.5q-8 7.5 -8 18.5t8 18.5t19 7.5t18.5 -7.5t7.5 -18.5q0 -10 -7.5 -18t-18.5 -8t-19 7.5z" />
    <glyph glyph-name="uniFC8E" unicode="&#xfee8;&#xfef0;" horiz-adv-x="885" arabic-form="final" 
d="M74 146q6 14 19 11q6 -1 8 -6t0 -13q-1 -2 -17.5 -46t-16.5 -112q0 -119 66 -174.5t210 -55.5q142 0 219.5 39.5t77.5 114.5q0 34 -15 55t-46 35t-89 29q-84 22 -118 51.5t-34 81.5q0 46 26.5 86.5t71 64.5t95.5 24q56 0 92.5 -21t58.5 -52.5t49 -85.5l17 -33
q22 -43 37.5 -64t38.5 -31.5t61 -10.5l17 -3v-27l-17 -3q-45 0 -73 12.5t-46.5 36.5t-40.5 68l-19 37q-25 50 -46 79.5t-52.5 46.5t-77.5 17q-44 0 -82 -19.5t-61 -51.5t-23 -67q0 -27 14 -45t45 -31.5t87 -28.5q58 -16 91 -33.5t49 -45t16 -70.5q0 -91 -84 -139.5
t-239 -48.5q-157 0 -231 64t-74 199q0 76 36 166zM513 441.5q-8 7.5 -8 18.5t8 18.5t19 7.5t18.5 -7.5t7.5 -18.5q0 -10 -7.5 -18t-18.5 -8t-19 7.5z" />
    <glyph glyph-name="uniFC8F" unicode="&#xfee8;&#xfef2;" horiz-adv-x="885" arabic-form="final" 
d="M74 146q6 14 19 11q6 -1 8 -6t0 -13q-1 -2 -17.5 -46t-16.5 -112q0 -119 66 -174.5t210 -55.5q142 0 219.5 39.5t77.5 114.5q0 34 -15 55t-46 35t-89 29q-84 22 -118 51.5t-34 81.5q0 46 26.5 86.5t71 64.5t95.5 24q56 0 92.5 -21t58.5 -52.5t49 -85.5l17 -33
q22 -43 37.5 -64t38.5 -31.5t61 -10.5l17 -3v-27l-17 -3q-45 0 -73 12.5t-46.5 36.5t-40.5 68l-19 37q-25 50 -46 79.5t-52.5 46.5t-77.5 17q-44 0 -82 -19.5t-61 -51.5t-23 -67q0 -27 14 -45t45 -31.5t87 -28.5q58 -16 91 -33.5t49 -45t16 -70.5q0 -91 -84 -139.5
t-239 -48.5q-157 0 -231 64t-74 199q0 76 36 166zM513 441.5q-8 7.5 -8 18.5t8 18.5t19 7.5t18.5 -7.5t7.5 -18.5q0 -10 -7.5 -18t-18.5 -8t-19 7.5zM272.5 -418.5q-7.5 7.5 -7.5 17.5t7.5 17.5t17.5 7.5t17.5 -7.5t7.5 -17.5t-7.5 -17.5t-17.5 -7.5t-17.5 7.5zM369 -418.5
q-8 7.5 -8 17.5t8 17.5t18 7.5t17.5 -7.5t7.5 -17.5t-7.5 -17.5t-17.5 -7.5t-18 7.5z" />
    <glyph glyph-name="uniFC91" unicode="&#xfef4;&#xfeae;" horiz-adv-x="665" arabic-form="final" 
d="M682 30v-27l-17 -3q-95 0 -135.5 38.5t-40.5 126.5v19q-14 -33 -49 -48.5t-94 -15.5q-78 0 -105 40q5 -48 5 -98q0 -87 -26.5 -155.5t-74 -107t-108.5 -38.5q-28 0 -50.5 5t-32.5 11q-6 3 -9 9.5t0 12.5q5 11 20 7q36 -12 71 -12q52 0 94 33t65.5 94t23.5 141
q0 81 -18 164v5q0 13 11 16h2q10 0 15 -14q5 -26 15 -43t34 -27t68 -10q52 0 82.5 10.5t45.5 38t15 78.5q0 6 3.5 10t10.5 4q6 0 9.5 -4t3.5 -10v-109q0 -52 14 -81.5t46.5 -43t88.5 -13.5zM433.5 -115.5q-7.5 7.5 -7.5 17.5t7.5 17.5t17.5 7.5t17.5 -7.5t7.5 -17.5
t-7.5 -17.5t-17.5 -7.5t-17.5 7.5zM530 -115.5q-8 7.5 -8 17.5t8 17.5t18 7.5t17.5 -7.5t7.5 -17.5t-7.5 -17.5t-17.5 -7.5t-18 7.5z" />
    <glyph glyph-name="uniFC92" unicode="&#xfef4;&#xfeb0;" horiz-adv-x="665" arabic-form="final" 
d="M682 30v-27l-17 -3q-95 0 -135.5 38.5t-40.5 126.5v19q-14 -33 -49 -48.5t-94 -15.5q-78 0 -105 40q5 -48 5 -98q0 -87 -26.5 -155.5t-74 -107t-108.5 -38.5q-28 0 -50.5 5t-32.5 11q-6 3 -9 9.5t0 12.5q5 11 20 7q36 -12 71 -12q52 0 94 33t65.5 94t23.5 141
q0 81 -18 164v5q0 13 11 16h2q10 0 15 -14q5 -26 15 -43t34 -27t68 -10q52 0 82.5 10.5t45.5 38t15 78.5q0 6 3.5 10t10.5 4q6 0 9.5 -4t3.5 -10v-109q0 -52 14 -81.5t46.5 -43t88.5 -13.5zM433.5 -115.5q-7.5 7.5 -7.5 17.5t7.5 17.5t17.5 7.5t17.5 -7.5t7.5 -17.5
t-7.5 -17.5t-17.5 -7.5t-17.5 7.5zM530 -115.5q-8 7.5 -8 17.5t8 17.5t18 7.5t17.5 -7.5t7.5 -17.5t-7.5 -17.5t-17.5 -7.5t-18 7.5zM195 351.5q-8 7.5 -8 18.5t8 18.5t19 7.5t18.5 -7.5t7.5 -18.5q0 -10 -7.5 -18t-18.5 -8t-19 7.5z" />
    <glyph glyph-name="uniFC94" unicode="&#xfef4;&#xfee6;" horiz-adv-x="1008" arabic-form="final" 
d="M1025 30v-27l-17 -3q-95 0 -135.5 38.5t-40.5 126.5v19q-14 -33 -49 -48.5t-94 -15.5q-41 0 -66 10t-39 29q9 -64 9 -118q0 -95 -28 -153.5t-90 -86t-166 -27.5q-100 0 -159 25.5t-85.5 80t-26.5 143.5q0 63 13.5 109t25.5 70q2 6 7.5 9t11.5 1q9 -3 9 -13l-2 -8
q-36 -81 -36 -168q0 -79 23.5 -126t76.5 -68.5t143 -21.5q93 0 148.5 22.5t81 71.5t25.5 130q0 86 -21 198v4q0 6 3.5 10.5t9.5 4.5q12 0 15 -13q5 -27 15 -44t34 -27.5t68 -10.5q52 0 82.5 10.5t45.5 38t15 78.5q0 6 3.5 10t10.5 4q6 0 9.5 -4t3.5 -10v-109q0 -52 14 -81.5
t46.5 -43t88.5 -13.5zM303 334.5q-8 7.5 -8 18.5t8 18.5t19 7.5t18.5 -7.5t7.5 -18.5q0 -10 -7.5 -18t-18.5 -8t-19 7.5zM777.5 -115.5q-7.5 7.5 -7.5 17.5t7.5 17.5t17.5 7.5t17.5 -7.5t7.5 -17.5t-7.5 -17.5t-17.5 -7.5t-17.5 7.5zM874 -115.5q-8 7.5 -8 17.5t8 17.5
t18 7.5t17.5 -7.5t7.5 -17.5t-7.5 -17.5t-17.5 -7.5t-18 7.5z" />
    <glyph glyph-name="uniFC95" unicode="&#xfef4;&#xfef0;" horiz-adv-x="885" arabic-form="final" 
d="M74 146q6 14 19 11q6 -1 8 -6t0 -13q-1 -2 -17.5 -46t-16.5 -112q0 -119 66 -174.5t210 -55.5q142 0 219.5 39.5t77.5 114.5q0 34 -15 55t-46 35t-89 29q-84 22 -118 51.5t-34 81.5q0 46 26.5 86.5t71 64.5t95.5 24q56 0 92.5 -21t58.5 -52.5t49 -85.5l17 -33
q22 -43 37.5 -64t38.5 -31.5t61 -10.5l17 -3v-27l-17 -3q-45 0 -73 12.5t-46.5 36.5t-40.5 68l-19 37q-25 50 -46 79.5t-52.5 46.5t-77.5 17q-44 0 -82 -19.5t-61 -51.5t-23 -67q0 -27 14 -45t45 -31.5t87 -28.5q58 -16 91 -33.5t49 -45t16 -70.5q0 -91 -84 -139.5
t-239 -48.5q-157 0 -231 64t-74 199q0 76 36 166zM725.5 -153.5q-7.5 7.5 -7.5 17.5t7.5 17.5t17.5 7.5t17.5 -7.5t7.5 -17.5t-7.5 -17.5t-17.5 -7.5t-17.5 7.5zM822 -153.5q-8 7.5 -8 17.5t8 17.5t18 7.5t17.5 -7.5t7.5 -17.5t-7.5 -17.5t-17.5 -7.5t-18 7.5z" />
    <glyph glyph-name="uniFC96" unicode="&#xfef4;&#xfef2;" horiz-adv-x="885" arabic-form="final" 
d="M74 146q6 14 19 11q6 -1 8 -6t0 -13q-1 -2 -17.5 -46t-16.5 -112q0 -119 66 -174.5t210 -55.5q142 0 219.5 39.5t77.5 114.5q0 34 -15 55t-46 35t-89 29q-84 22 -118 51.5t-34 81.5q0 46 26.5 86.5t71 64.5t95.5 24q56 0 92.5 -21t58.5 -52.5t49 -85.5l17 -33
q22 -43 37.5 -64t38.5 -31.5t61 -10.5l17 -3v-27l-17 -3q-45 0 -73 12.5t-46.5 36.5t-40.5 68l-19 37q-25 50 -46 79.5t-52.5 46.5t-77.5 17q-44 0 -82 -19.5t-61 -51.5t-23 -67q0 -27 14 -45t45 -31.5t87 -28.5q58 -16 91 -33.5t49 -45t16 -70.5q0 -91 -84 -139.5
t-239 -48.5q-157 0 -231 64t-74 199q0 76 36 166zM725.5 -153.5q-7.5 7.5 -7.5 17.5t7.5 17.5t17.5 7.5t17.5 -7.5t7.5 -17.5t-7.5 -17.5t-17.5 -7.5t-17.5 7.5zM822 -153.5q-8 7.5 -8 17.5t8 17.5t18 7.5t17.5 -7.5t7.5 -17.5t-7.5 -17.5t-17.5 -7.5t-18 7.5zM272.5 -418.5
q-7.5 7.5 -7.5 17.5t7.5 17.5t17.5 7.5t17.5 -7.5t7.5 -17.5t-7.5 -17.5t-17.5 -7.5t-17.5 7.5zM369 -418.5q-8 7.5 -8 17.5t8 17.5t18 7.5t17.5 -7.5t7.5 -17.5t-7.5 -17.5t-17.5 -7.5t-18 7.5z" />
    <glyph glyph-name="uniFCFB" unicode="&#xfeb3;&#xfef0;" horiz-adv-x="1322" arabic-form="isolated" 
d="M1264.5 229.5q7.5 -35.5 7.5 -74.5q0 -82 -33.5 -118.5t-103.5 -36.5q-55 0 -85 16t-40 48q-22 -64 -125 -64q-47 0 -75 13t-45.5 36t-39.5 68l-19 37q-26 51 -47 80t-52 46t-77 17q-44 0 -82 -19.5t-61 -51.5t-23 -67q0 -27 14 -45t45 -31.5t87 -28.5q58 -16 91 -33.5
t49 -45t16 -70.5q0 -91 -84 -139.5t-239 -48.5q-157 0 -231 64t-74 199q0 79 37 168q6 13 19 11q6 -2 8.5 -8t-0.5 -13q-10 -23 -22.5 -66t-12.5 -92q0 -119 66 -174.5t210 -55.5q142 0 219.5 39.5t77.5 114.5q0 34 -15 55t-46 35t-89 29q-84 22 -118 51.5t-34 81.5
q0 46 26.5 86.5t71 64.5t95.5 24q56 0 92 -21t57.5 -52t50.5 -86l17 -33q22 -44 36.5 -64.5t37.5 -31t64 -10.5q61 0 87 22.5t26 77.5v109q0 7 4 11t10 4q5 0 9 -4t4 -11v-109q0 -56 23.5 -78t85.5 -22q59 0 84.5 26.5t25.5 93.5q0 48 -9.5 83.5t-10.5 39.5q-1 2 -1 6
q0 10 10 13h2q11 0 15 -13q6 -17 13.5 -52.5z" />
    <glyph glyph-name="uniFCFC" unicode="&#xfeb3;&#xfef2;" horiz-adv-x="1322" arabic-form="isolated" 
d="M1264.5 229.5q7.5 -35.5 7.5 -74.5q0 -82 -33.5 -118.5t-103.5 -36.5q-55 0 -85 16t-40 48q-22 -64 -125 -64q-47 0 -75 13t-45.5 36t-39.5 68l-19 37q-26 51 -47 80t-52 46t-77 17q-44 0 -82 -19.5t-61 -51.5t-23 -67q0 -27 14 -45t45 -31.5t87 -28.5q58 -16 91 -33.5
t49 -45t16 -70.5q0 -91 -84 -139.5t-239 -48.5q-157 0 -231 64t-74 199q0 79 37 168q6 13 19 11q6 -2 8.5 -8t-0.5 -13q-10 -23 -22.5 -66t-12.5 -92q0 -119 66 -174.5t210 -55.5q142 0 219.5 39.5t77.5 114.5q0 34 -15 55t-46 35t-89 29q-84 22 -118 51.5t-34 81.5
q0 46 26.5 86.5t71 64.5t95.5 24q56 0 92 -21t57.5 -52t50.5 -86l17 -33q22 -44 36.5 -64.5t37.5 -31t64 -10.5q61 0 87 22.5t26 77.5v109q0 7 4 11t10 4q5 0 9 -4t4 -11v-109q0 -56 23.5 -78t85.5 -22q59 0 84.5 26.5t25.5 93.5q0 48 -9.5 83.5t-10.5 39.5q-1 2 -1 6
q0 10 10 13h2q11 0 15 -13q6 -17 13.5 -52.5zM279.5 -418.5q-7.5 7.5 -7.5 17.5t7.5 17.5t17.5 7.5t17.5 -7.5t7.5 -17.5t-7.5 -17.5t-17.5 -7.5t-17.5 7.5zM376 -418.5q-8 7.5 -8 17.5t8 17.5t18 7.5t17.5 -7.5t7.5 -17.5t-7.5 -17.5t-17.5 -7.5t-18 7.5z" />
    <glyph glyph-name="uniFCFD" unicode="&#xfeb7;&#xfef0;" horiz-adv-x="1322" arabic-form="isolated" 
d="M1264.5 229.5q7.5 -35.5 7.5 -74.5q0 -82 -33.5 -118.5t-103.5 -36.5q-55 0 -85 16t-40 48q-22 -64 -125 -64q-47 0 -75 13t-45.5 36t-39.5 68l-19 37q-26 51 -47 80t-52 46t-77 17q-44 0 -82 -19.5t-61 -51.5t-23 -67q0 -27 14 -45t45 -31.5t87 -28.5q58 -16 91 -33.5
t49 -45t16 -70.5q0 -91 -84 -139.5t-239 -48.5q-157 0 -231 64t-74 199q0 79 37 168q6 13 19 11q6 -2 8.5 -8t-0.5 -13q-10 -23 -22.5 -66t-12.5 -92q0 -119 66 -174.5t210 -55.5q142 0 219.5 39.5t77.5 114.5q0 34 -15 55t-46 35t-89 29q-84 22 -118 51.5t-34 81.5
q0 46 26.5 86.5t71 64.5t95.5 24q56 0 92 -21t57.5 -52t50.5 -86l17 -33q22 -44 36.5 -64.5t37.5 -31t64 -10.5q61 0 87 22.5t26 77.5v109q0 7 4 11t10 4q5 0 9 -4t4 -11v-109q0 -56 23.5 -78t85.5 -22q59 0 84.5 26.5t25.5 93.5q0 48 -9.5 83.5t-10.5 39.5q-1 2 -1 6
q0 10 10 13h2q11 0 15 -13q6 -17 13.5 -52.5zM1029.5 478.5q7.5 -7.5 7.5 -17.5q0 -9 -7.5 -16.5t-17.5 -7.5t-17.5 7.5t-7.5 16.5q0 10 7.5 17.5t17.5 7.5t17.5 -7.5zM980.5 400.5q7.5 -7.5 7.5 -17.5t-7.5 -17t-17.5 -7t-17.5 7t-7.5 17t7.5 17.5t17.5 7.5t17.5 -7.5z
M1077.5 400.5q7.5 -7.5 7.5 -17.5t-7.5 -17t-17.5 -7q-11 0 -18.5 7t-7.5 17t8 17.5t18 7.5t17.5 -7.5z" />
    <glyph glyph-name="uniFCFE" unicode="&#xfeb7;&#xfef2;" horiz-adv-x="1322" arabic-form="isolated" 
d="M1264.5 229.5q7.5 -35.5 7.5 -74.5q0 -82 -33.5 -118.5t-103.5 -36.5q-55 0 -85 16t-40 48q-22 -64 -125 -64q-47 0 -75 13t-45.5 36t-39.5 68l-19 37q-26 51 -47 80t-52 46t-77 17q-44 0 -82 -19.5t-61 -51.5t-23 -67q0 -27 14 -45t45 -31.5t87 -28.5q58 -16 91 -33.5
t49 -45t16 -70.5q0 -91 -84 -139.5t-239 -48.5q-157 0 -231 64t-74 199q0 79 37 168q6 13 19 11q6 -2 8.5 -8t-0.5 -13q-10 -23 -22.5 -66t-12.5 -92q0 -119 66 -174.5t210 -55.5q142 0 219.5 39.5t77.5 114.5q0 34 -15 55t-46 35t-89 29q-84 22 -118 51.5t-34 81.5
q0 46 26.5 86.5t71 64.5t95.5 24q56 0 92 -21t57.5 -52t50.5 -86l17 -33q22 -44 36.5 -64.5t37.5 -31t64 -10.5q61 0 87 22.5t26 77.5v109q0 7 4 11t10 4q5 0 9 -4t4 -11v-109q0 -56 23.5 -78t85.5 -22q59 0 84.5 26.5t25.5 93.5q0 48 -9.5 83.5t-10.5 39.5q-1 2 -1 6
q0 10 10 13h2q11 0 15 -13q6 -17 13.5 -52.5zM1029.5 478.5q7.5 -7.5 7.5 -17.5q0 -9 -7.5 -16.5t-17.5 -7.5t-17.5 7.5t-7.5 16.5q0 10 7.5 17.5t17.5 7.5t17.5 -7.5zM980.5 400.5q7.5 -7.5 7.5 -17.5t-7.5 -17t-17.5 -7t-17.5 7t-7.5 17t7.5 17.5t17.5 7.5t17.5 -7.5z
M1077.5 400.5q7.5 -7.5 7.5 -17.5t-7.5 -17t-17.5 -7q-11 0 -18.5 7t-7.5 17t8 17.5t18 7.5t17.5 -7.5zM279.5 -418.5q-7.5 7.5 -7.5 17.5t7.5 17.5t17.5 7.5t17.5 -7.5t7.5 -17.5t-7.5 -17.5t-17.5 -7.5t-17.5 7.5zM376 -418.5q-8 7.5 -8 17.5t8 17.5t18 7.5t17.5 -7.5
t7.5 -17.5t-7.5 -17.5t-17.5 -7.5t-18 7.5z" />
    <glyph glyph-name="uniFD05" unicode="&#xfebb;&#xfef0;" horiz-adv-x="1430" arabic-form="isolated" 
d="M1286 369q44 -27 69 -77t25 -117q0 -65 -22 -103t-71.5 -55t-133.5 -17h-282q-42 0 -66 12t-37.5 33t-39.5 72l-20 39q-26 50 -47.5 79.5t-53 46.5t-77.5 17q-44 0 -83 -20t-62 -52t-23 -68q0 -27 14.5 -45t45.5 -31.5t88 -28.5q58 -16 91 -33.5t49 -45t16 -70.5
q0 -91 -84 -139.5t-239 -48.5q-157 0 -231 64t-74 199q0 79 37 168q6 13 19 11q6 -2 8.5 -8t-0.5 -13q-10 -23 -22.5 -66t-12.5 -92q0 -119 66 -174.5t210 -55.5q142 0 219.5 39.5t77.5 114.5q0 34 -15 55t-46 35t-89 29q-85 23 -119.5 52.5t-34.5 80.5q0 46 26.5 87
t71.5 65.5t97 24.5q56 0 92.5 -21t59 -52.5t50.5 -85.5l18 -35l11 -23q17 -33 26.5 -47.5t22.5 -23.5q71 131 131.5 207.5t119 110t125.5 33.5q55 0 99 -27zM1272.5 46.5q42.5 13.5 61.5 43.5t19 83q0 57 -22 100t-60 66t-86 23q-92 0 -174.5 -76.5t-173.5 -250.5
q20 -2 33 -2h285q75 0 117.5 13.5z" />
    <glyph glyph-name="uniFD06" unicode="&#xfebb;&#xfef2;" horiz-adv-x="1430" arabic-form="isolated" 
d="M1286 369q44 -27 69 -77t25 -117q0 -65 -22 -103t-71.5 -55t-133.5 -17h-282q-42 0 -66 12t-37.5 33t-39.5 72l-20 39q-26 50 -47.5 79.5t-53 46.5t-77.5 17q-44 0 -83 -20t-62 -52t-23 -68q0 -27 14.5 -45t45.5 -31.5t88 -28.5q58 -16 91 -33.5t49 -45t16 -70.5
q0 -91 -84 -139.5t-239 -48.5q-157 0 -231 64t-74 199q0 79 37 168q6 13 19 11q6 -2 8.5 -8t-0.5 -13q-10 -23 -22.5 -66t-12.5 -92q0 -119 66 -174.5t210 -55.5q142 0 219.5 39.5t77.5 114.5q0 34 -15 55t-46 35t-89 29q-85 23 -119.5 52.5t-34.5 80.5q0 46 26.5 87
t71.5 65.5t97 24.5q56 0 92.5 -21t59 -52.5t50.5 -85.5l18 -35l11 -23q17 -33 26.5 -47.5t22.5 -23.5q71 131 131.5 207.5t119 110t125.5 33.5q55 0 99 -27zM1272.5 46.5q42.5 13.5 61.5 43.5t19 83q0 57 -22 100t-60 66t-86 23q-92 0 -174.5 -76.5t-173.5 -250.5
q20 -2 33 -2h285q75 0 117.5 13.5zM279.5 -418.5q-7.5 7.5 -7.5 17.5t7.5 17.5t17.5 7.5t17.5 -7.5t7.5 -17.5t-7.5 -17.5t-17.5 -7.5t-17.5 7.5zM376 -418.5q-8 7.5 -8 17.5t8 17.5t18 7.5t17.5 -7.5t7.5 -17.5t-7.5 -17.5t-17.5 -7.5t-18 7.5z" />
    <glyph glyph-name="uniFD07" unicode="&#xfebf;&#xfef0;" horiz-adv-x="1430" arabic-form="isolated" 
d="M1286 369q44 -27 69 -77t25 -117q0 -65 -22 -103t-71.5 -55t-133.5 -17h-282q-42 0 -66 12t-37.5 33t-39.5 72l-20 39q-26 50 -47.5 79.5t-53 46.5t-77.5 17q-44 0 -83 -20t-62 -52t-23 -68q0 -27 14.5 -45t45.5 -31.5t88 -28.5q58 -16 91 -33.5t49 -45t16 -70.5
q0 -91 -84 -139.5t-239 -48.5q-157 0 -231 64t-74 199q0 79 37 168q6 13 19 11q6 -2 8.5 -8t-0.5 -13q-10 -23 -22.5 -66t-12.5 -92q0 -119 66 -174.5t210 -55.5q142 0 219.5 39.5t77.5 114.5q0 34 -15 55t-46 35t-89 29q-85 23 -119.5 52.5t-34.5 80.5q0 46 26.5 87
t71.5 65.5t97 24.5q56 0 92.5 -21t59 -52.5t50.5 -85.5l18 -35l11 -23q17 -33 26.5 -47.5t22.5 -23.5q71 131 131.5 207.5t119 110t125.5 33.5q55 0 99 -27zM1272.5 46.5q42.5 13.5 61.5 43.5t19 83q0 57 -22 100t-60 66t-86 23q-92 0 -174.5 -76.5t-173.5 -250.5
q20 -2 33 -2h285q75 0 117.5 13.5zM1168 506.5q-8 7.5 -8 18.5t8 18.5t19 7.5t18.5 -7.5t7.5 -18.5q0 -10 -7.5 -18t-18.5 -8t-19 7.5z" />
    <glyph glyph-name="uniFD08" unicode="&#xfebf;&#xfef2;" horiz-adv-x="1430" arabic-form="isolated" 
d="M1286 369q44 -27 69 -77t25 -117q0 -65 -22 -103t-71.5 -55t-133.5 -17h-282q-42 0 -66 12t-37.5 33t-39.5 72l-20 39q-26 50 -47.5 79.5t-53 46.5t-77.5 17q-44 0 -83 -20t-62 -52t-23 -68q0 -27 14.5 -45t45.5 -31.5t88 -28.5q58 -16 91 -33.5t49 -45t16 -70.5
q0 -91 -84 -139.5t-239 -48.5q-157 0 -231 64t-74 199q0 79 37 168q6 13 19 11q6 -2 8.5 -8t-0.5 -13q-10 -23 -22.5 -66t-12.5 -92q0 -119 66 -174.5t210 -55.5q142 0 219.5 39.5t77.5 114.5q0 34 -15 55t-46 35t-89 29q-85 23 -119.5 52.5t-34.5 80.5q0 46 26.5 87
t71.5 65.5t97 24.5q56 0 92.5 -21t59 -52.5t50.5 -85.5l18 -35l11 -23q17 -33 26.5 -47.5t22.5 -23.5q71 131 131.5 207.5t119 110t125.5 33.5q55 0 99 -27zM1272.5 46.5q42.5 13.5 61.5 43.5t19 83q0 57 -22 100t-60 66t-86 23q-92 0 -174.5 -76.5t-173.5 -250.5
q20 -2 33 -2h285q75 0 117.5 13.5zM279.5 -418.5q-7.5 7.5 -7.5 17.5t7.5 17.5t17.5 7.5t17.5 -7.5t7.5 -17.5t-7.5 -17.5t-17.5 -7.5t-17.5 7.5zM376 -418.5q-8 7.5 -8 17.5t8 17.5t18 7.5t17.5 -7.5t7.5 -17.5t-7.5 -17.5t-17.5 -7.5t-18 7.5zM1168 506.5q-8 7.5 -8 18.5
t8 18.5t19 7.5t18.5 -7.5t7.5 -18.5q0 -10 -7.5 -18t-18.5 -8t-19 7.5z" />
    <glyph glyph-name="uniFD0D" unicode="&#xfeb7;&#xfeae;" horiz-adv-x="1095" arabic-form="isolated" 
d="M1037.5 228.5q7.5 -34.5 7.5 -73.5q0 -82 -34 -118.5t-104 -36.5q-55 0 -85 16.5t-40 48.5q-25 -65 -140 -65q-83 0 -118 38.5t-35 126.5v20q-14 -33 -49.5 -49t-93.5 -16q-78 0 -105 40q5 -48 5 -98q0 -87 -26.5 -155.5t-74 -107t-108.5 -38.5q-28 0 -50 5t-33 11
q-6 3 -9 9.5t0 12.5q5 11 20 7q36 -12 71 -12q52 0 94 33t65.5 94t23.5 141q0 88 -18 164v5q0 13 11 16h2q10 0 15 -14q5 -26 15 -43t34 -27t68 -10q52 0 82.5 10.5t45.5 38.5t15 79q0 7 4 11t11 4q6 0 9.5 -4t3.5 -11v-112q0 -76 27.5 -106t97.5 -30t99.5 22.5t29.5 77.5
v109q0 7 4 11t10 4t10 -4t4 -11v-109q0 -56 23 -78t85 -22q59 0 84.5 26.5t25.5 93.5q0 48 -9.5 83.5t-10.5 39.5q-1 2 -1 6q0 10 10 13h2q11 0 15 -13q7 -19 14.5 -53.5zM801.5 478.5q7.5 -7.5 7.5 -17.5q0 -9 -7.5 -16.5t-17.5 -7.5t-17.5 7.5t-7.5 16.5q0 10 7.5 17.5
t17.5 7.5t17.5 -7.5zM752.5 400.5q7.5 -7.5 7.5 -17.5t-7.5 -17t-17.5 -7t-17.5 7t-7.5 17t7.5 17.5t17.5 7.5t17.5 -7.5zM849.5 400.5q7.5 -7.5 7.5 -17.5t-7.5 -17t-17.5 -7q-11 0 -18.5 7t-7.5 17t8 17.5t18 7.5t17.5 -7.5z" />
    <glyph glyph-name="uniFD0E" unicode="&#xfeb3;&#xfeae;" horiz-adv-x="1095" arabic-form="isolated" 
d="M1037.5 228.5q7.5 -34.5 7.5 -73.5q0 -82 -34 -118.5t-104 -36.5q-55 0 -85 16.5t-40 48.5q-25 -65 -140 -65q-83 0 -118 38.5t-35 126.5v20q-14 -33 -49.5 -49t-93.5 -16q-78 0 -105 40q5 -48 5 -98q0 -87 -26.5 -155.5t-74 -107t-108.5 -38.5q-28 0 -50 5t-33 11
q-6 3 -9 9.5t0 12.5q5 11 20 7q36 -12 71 -12q52 0 94 33t65.5 94t23.5 141q0 88 -18 164v5q0 13 11 16h2q10 0 15 -14q5 -26 15 -43t34 -27t68 -10q52 0 82.5 10.5t45.5 38.5t15 79q0 7 4 11t11 4q6 0 9.5 -4t3.5 -11v-112q0 -76 27.5 -106t97.5 -30t99.5 22.5t29.5 77.5
v109q0 7 4 11t10 4t10 -4t4 -11v-109q0 -56 23 -78t85 -22q59 0 84.5 26.5t25.5 93.5q0 48 -9.5 83.5t-10.5 39.5q-1 2 -1 6q0 10 10 13h2q11 0 15 -13q7 -19 14.5 -53.5z" />
    <glyph glyph-name="uniFD0F" unicode="&#xfebb;&#xfeae;" horiz-adv-x="1210" arabic-form="isolated" 
d="M1066 369q44 -27 69 -77t25 -117q0 -65 -22 -103t-71 -55t-133 -17h-293q-83 0 -117.5 38.5t-34.5 126.5v20q-14 -33 -49.5 -49t-93.5 -16q-78 0 -105 40q5 -48 5 -98q0 -87 -26.5 -155.5t-74 -107t-108.5 -38.5q-28 0 -50.5 5t-32.5 11q-6 3 -9 9.5t0 12.5q5 11 20 7
q36 -12 71 -12q52 0 94 33t65.5 94t23.5 141q0 81 -18 164v5q0 13 11 16h2q10 0 15 -14q5 -26 15 -43t34 -27t68 -10q52 0 82.5 10.5t45.5 38.5t15 79q0 7 4 11t11 4q6 0 9.5 -4t3.5 -11v-112q0 -59 16.5 -89.5t54.5 -40.5q72 134 133 211.5t120 111.5t126 34q55 0 99 -27z
M1052.5 46.5q42.5 13.5 61.5 43.5t19 83q0 57 -22 100t-60 66t-86 23q-92 0 -174.5 -76.5t-173.5 -251.5q8 -1 25 -1h294q74 0 116.5 13.5z" />
    <glyph glyph-name="uniFD10" unicode="&#xfebf;&#xfeae;" horiz-adv-x="1210" arabic-form="isolated" 
d="M1066 369q44 -27 69 -77t25 -117q0 -65 -22 -103t-71 -55t-133 -17h-293q-83 0 -117.5 38.5t-34.5 126.5v20q-14 -33 -49.5 -49t-93.5 -16q-78 0 -105 40q5 -48 5 -98q0 -87 -26.5 -155.5t-74 -107t-108.5 -38.5q-28 0 -50.5 5t-32.5 11q-6 3 -9 9.5t0 12.5q5 11 20 7
q36 -12 71 -12q52 0 94 33t65.5 94t23.5 141q0 81 -18 164v5q0 13 11 16h2q10 0 15 -14q5 -26 15 -43t34 -27t68 -10q52 0 82.5 10.5t45.5 38.5t15 79q0 7 4 11t11 4q6 0 9.5 -4t3.5 -11v-112q0 -59 16.5 -89.5t54.5 -40.5q72 134 133 211.5t120 111.5t126 34q55 0 99 -27z
M1052.5 46.5q42.5 13.5 61.5 43.5t19 83q0 57 -22 100t-60 66t-86 23q-92 0 -174.5 -76.5t-173.5 -251.5q8 -1 25 -1h294q74 0 116.5 13.5zM932 506.5q-8 7.5 -8 18.5t8 18.5t19 7.5t18.5 -7.5t7.5 -18.5q0 -10 -7.5 -18t-18.5 -8t-19 7.5z" />
    <glyph glyph-name="uniFD17" unicode="&#xfeb4;&#xfef0;" horiz-adv-x="1416" arabic-form="final" 
d="M1433 30v-27l-17 -3q-70 0 -107.5 17t-49.5 50q-21 -67 -122 -67q-55 0 -85.5 16t-40.5 48q-24 -64 -126 -64q-47 0 -75 13t-45.5 36t-39.5 68l-19 37q-26 51 -47 80t-52 46t-77 17q-44 0 -82 -19.5t-61 -51.5t-23 -67q0 -27 14 -45t45 -31.5t87 -28.5q58 -16 91 -33.5
t49 -45t16 -70.5q0 -91 -84 -139.5t-239 -48.5q-157 0 -231 64t-74 199q0 79 37 168q6 13 19 11q6 -2 8.5 -8t-0.5 -13q-10 -23 -22.5 -66t-12.5 -92q0 -119 66 -174.5t210 -55.5q142 0 219.5 39.5t77.5 114.5q0 34 -15 55t-46 35t-89 29q-84 22 -118 51.5t-34 81.5
q0 46 26.5 86.5t71 64.5t95.5 24q56 0 92 -21t57.5 -52t50.5 -86l17 -33q22 -44 36.5 -64.5t37.5 -31t64 -10.5q61 0 87 22.5t26 77.5v109q0 7 4 11t10 4q5 0 9 -4t4 -11v-109q0 -56 24.5 -78t87.5 -22q58 0 82.5 22.5t24.5 76.5v110q0 7 4 11t10 4t9.5 -4t3.5 -11v-110
q0 -37 13 -58.5t44.5 -31t86.5 -9.5z" />
    <glyph glyph-name="uniFD18" unicode="&#xfeb4;&#xfef2;" horiz-adv-x="1416" arabic-form="final" 
d="M1433 30v-27l-17 -3q-70 0 -107.5 17t-49.5 50q-21 -67 -122 -67q-55 0 -85.5 16t-40.5 48q-24 -64 -126 -64q-47 0 -75 13t-45.5 36t-39.5 68l-19 37q-26 51 -47 80t-52 46t-77 17q-44 0 -82 -19.5t-61 -51.5t-23 -67q0 -27 14 -45t45 -31.5t87 -28.5q58 -16 91 -33.5
t49 -45t16 -70.5q0 -91 -84 -139.5t-239 -48.5q-157 0 -231 64t-74 199q0 79 37 168q6 13 19 11q6 -2 8.5 -8t-0.5 -13q-10 -23 -22.5 -66t-12.5 -92q0 -119 66 -174.5t210 -55.5q142 0 219.5 39.5t77.5 114.5q0 34 -15 55t-46 35t-89 29q-84 22 -118 51.5t-34 81.5
q0 46 26.5 86.5t71 64.5t95.5 24q56 0 92 -21t57.5 -52t50.5 -86l17 -33q22 -44 36.5 -64.5t37.5 -31t64 -10.5q61 0 87 22.5t26 77.5v109q0 7 4 11t10 4q5 0 9 -4t4 -11v-109q0 -56 24.5 -78t87.5 -22q58 0 82.5 22.5t24.5 76.5v110q0 7 4 11t10 4t9.5 -4t3.5 -11v-110
q0 -37 13 -58.5t44.5 -31t86.5 -9.5zM279.5 -418.5q-7.5 7.5 -7.5 17.5t7.5 17.5t17.5 7.5t17.5 -7.5t7.5 -17.5t-7.5 -17.5t-17.5 -7.5t-17.5 7.5zM376 -418.5q-8 7.5 -8 17.5t8 17.5t18 7.5t17.5 -7.5t7.5 -17.5t-7.5 -17.5t-17.5 -7.5t-18 7.5z" />
    <glyph glyph-name="uniFD19" unicode="&#xfeb8;&#xfef0;" horiz-adv-x="1416" arabic-form="final" 
d="M1433 30v-27l-17 -3q-70 0 -107.5 17t-49.5 50q-21 -67 -122 -67q-55 0 -85.5 16t-40.5 48q-24 -64 -126 -64q-47 0 -75 13t-45.5 36t-39.5 68l-19 37q-26 51 -47 80t-52 46t-77 17q-44 0 -82 -19.5t-61 -51.5t-23 -67q0 -27 14 -45t45 -31.5t87 -28.5q58 -16 91 -33.5
t49 -45t16 -70.5q0 -91 -84 -139.5t-239 -48.5q-157 0 -231 64t-74 199q0 79 37 168q6 13 19 11q6 -2 8.5 -8t-0.5 -13q-10 -23 -22.5 -66t-12.5 -92q0 -119 66 -174.5t210 -55.5q142 0 219.5 39.5t77.5 114.5q0 34 -15 55t-46 35t-89 29q-84 22 -118 51.5t-34 81.5
q0 46 26.5 86.5t71 64.5t95.5 24q56 0 92 -21t57.5 -52t50.5 -86l17 -33q22 -44 36.5 -64.5t37.5 -31t64 -10.5q61 0 87 22.5t26 77.5v109q0 7 4 11t10 4q5 0 9 -4t4 -11v-109q0 -56 24.5 -78t87.5 -22q58 0 82.5 22.5t24.5 76.5v110q0 7 4 11t10 4t9.5 -4t3.5 -11v-110
q0 -37 13 -58.5t44.5 -31t86.5 -9.5zM1029.5 478.5q7.5 -7.5 7.5 -17.5q0 -9 -7.5 -16.5t-17.5 -7.5t-17.5 7.5t-7.5 16.5q0 10 7.5 17.5t17.5 7.5t17.5 -7.5zM980.5 400.5q7.5 -7.5 7.5 -17.5t-7.5 -17t-17.5 -7t-17.5 7t-7.5 17t7.5 17.5t17.5 7.5t17.5 -7.5z
M1077.5 400.5q7.5 -7.5 7.5 -17.5t-7.5 -17t-17.5 -7q-11 0 -18.5 7t-7.5 17t8 17.5t18 7.5t17.5 -7.5z" />
    <glyph glyph-name="uniFD1A" unicode="&#xfeb8;&#xfef2;" horiz-adv-x="1416" arabic-form="final" 
d="M1433 30v-27l-17 -3q-70 0 -107.5 17t-49.5 50q-21 -67 -122 -67q-55 0 -85.5 16t-40.5 48q-24 -64 -126 -64q-47 0 -75 13t-45.5 36t-39.5 68l-19 37q-26 51 -47 80t-52 46t-77 17q-44 0 -82 -19.5t-61 -51.5t-23 -67q0 -27 14 -45t45 -31.5t87 -28.5q58 -16 91 -33.5
t49 -45t16 -70.5q0 -91 -84 -139.5t-239 -48.5q-157 0 -231 64t-74 199q0 79 37 168q6 13 19 11q6 -2 8.5 -8t-0.5 -13q-10 -23 -22.5 -66t-12.5 -92q0 -119 66 -174.5t210 -55.5q142 0 219.5 39.5t77.5 114.5q0 34 -15 55t-46 35t-89 29q-84 22 -118 51.5t-34 81.5
q0 46 26.5 86.5t71 64.5t95.5 24q56 0 92 -21t57.5 -52t50.5 -86l17 -33q22 -44 36.5 -64.5t37.5 -31t64 -10.5q61 0 87 22.5t26 77.5v109q0 7 4 11t10 4q5 0 9 -4t4 -11v-109q0 -56 24.5 -78t87.5 -22q58 0 82.5 22.5t24.5 76.5v110q0 7 4 11t10 4t9.5 -4t3.5 -11v-110
q0 -37 13 -58.5t44.5 -31t86.5 -9.5zM1029.5 478.5q7.5 -7.5 7.5 -17.5q0 -9 -7.5 -16.5t-17.5 -7.5t-17.5 7.5t-7.5 16.5q0 10 7.5 17.5t17.5 7.5t17.5 -7.5zM980.5 400.5q7.5 -7.5 7.5 -17.5t-7.5 -17t-17.5 -7t-17.5 7t-7.5 17t7.5 17.5t17.5 7.5t17.5 -7.5z
M1077.5 400.5q7.5 -7.5 7.5 -17.5t-7.5 -17t-17.5 -7q-11 0 -18.5 7t-7.5 17t8 17.5t18 7.5t17.5 -7.5zM279.5 -418.5q-7.5 7.5 -7.5 17.5t7.5 17.5t17.5 7.5t17.5 -7.5t7.5 -17.5t-7.5 -17.5t-17.5 -7.5t-17.5 7.5zM376 -418.5q-8 7.5 -8 17.5t8 17.5t18 7.5t17.5 -7.5
t7.5 -17.5t-7.5 -17.5t-17.5 -7.5t-18 7.5z" />
    <glyph glyph-name="uniFD21" unicode="&#xfebc;&#xfef0;" horiz-adv-x="1502" arabic-form="final" 
d="M1519 30v-27l-17 -3q-66 0 -101.5 15t-50.5 46q-25 -32 -72.5 -46.5t-124.5 -14.5h-282q-42 0 -66 12t-37.5 33t-39.5 72l-20 39q-26 50 -47.5 79.5t-53 46.5t-77.5 17q-44 0 -83 -20t-62 -52t-23 -68q0 -27 14.5 -45t45.5 -31.5t88 -28.5q58 -16 91 -33.5t49 -45
t16 -70.5q0 -91 -84 -139.5t-239 -48.5q-157 0 -231 64t-74 199q0 79 37 168q6 13 19 11q6 -2 8.5 -8t-0.5 -13q-10 -23 -22.5 -66t-12.5 -92q0 -119 66 -174.5t210 -55.5q142 0 219.5 39.5t77.5 114.5q0 34 -15 55t-46 35t-89 29q-85 23 -119.5 52.5t-34.5 80.5
q0 46 26.5 87t71.5 65.5t97 24.5q56 0 92.5 -21t59 -52.5t50.5 -85.5l18 -35l11 -23q17 -33 26.5 -47.5t22.5 -23.5q71 131 131.5 207.5t119 110t125.5 33.5q55 0 99 -27t69 -77t25 -117q0 -53 -14 -87q12 -28 43 -41.5t93 -13.5zM1272.5 46.5q42.5 13.5 61.5 43.5t19 83
q0 57 -22 100t-60 66t-86 23q-92 0 -174.5 -76.5t-173.5 -250.5q20 -2 33 -2h285q75 0 117.5 13.5z" />
    <glyph glyph-name="uniFD22" unicode="&#xfebc;&#xfef2;" horiz-adv-x="1502" arabic-form="final" 
d="M1519 30v-27l-17 -3q-66 0 -101.5 15t-50.5 46q-25 -32 -72.5 -46.5t-124.5 -14.5h-282q-42 0 -66 12t-37.5 33t-39.5 72l-20 39q-26 50 -47.5 79.5t-53 46.5t-77.5 17q-44 0 -83 -20t-62 -52t-23 -68q0 -27 14.5 -45t45.5 -31.5t88 -28.5q58 -16 91 -33.5t49 -45
t16 -70.5q0 -91 -84 -139.5t-239 -48.5q-157 0 -231 64t-74 199q0 79 37 168q6 13 19 11q6 -2 8.5 -8t-0.5 -13q-10 -23 -22.5 -66t-12.5 -92q0 -119 66 -174.5t210 -55.5q142 0 219.5 39.5t77.5 114.5q0 34 -15 55t-46 35t-89 29q-85 23 -119.5 52.5t-34.5 80.5
q0 46 26.5 87t71.5 65.5t97 24.5q56 0 92.5 -21t59 -52.5t50.5 -85.5l18 -35l11 -23q17 -33 26.5 -47.5t22.5 -23.5q71 131 131.5 207.5t119 110t125.5 33.5q55 0 99 -27t69 -77t25 -117q0 -53 -14 -87q12 -28 43 -41.5t93 -13.5zM1272.5 46.5q42.5 13.5 61.5 43.5t19 83
q0 57 -22 100t-60 66t-86 23q-92 0 -174.5 -76.5t-173.5 -250.5q20 -2 33 -2h285q75 0 117.5 13.5zM279.5 -418.5q-7.5 7.5 -7.5 17.5t7.5 17.5t17.5 7.5t17.5 -7.5t7.5 -17.5t-7.5 -17.5t-17.5 -7.5t-17.5 7.5zM376 -418.5q-8 7.5 -8 17.5t8 17.5t18 7.5t17.5 -7.5
t7.5 -17.5t-7.5 -17.5t-17.5 -7.5t-18 7.5z" />
    <glyph glyph-name="uniFD23" unicode="&#xfec0;&#xfef0;" horiz-adv-x="1502" arabic-form="final" 
d="M1519 30v-27l-17 -3q-66 0 -101.5 15t-50.5 46q-25 -32 -72.5 -46.5t-124.5 -14.5h-282q-42 0 -66 12t-37.5 33t-39.5 72l-20 39q-26 50 -47.5 79.5t-53 46.5t-77.5 17q-44 0 -83 -20t-62 -52t-23 -68q0 -27 14.5 -45t45.5 -31.5t88 -28.5q58 -16 91 -33.5t49 -45
t16 -70.5q0 -91 -84 -139.5t-239 -48.5q-157 0 -231 64t-74 199q0 79 37 168q6 13 19 11q6 -2 8.5 -8t-0.5 -13q-10 -23 -22.5 -66t-12.5 -92q0 -119 66 -174.5t210 -55.5q142 0 219.5 39.5t77.5 114.5q0 34 -15 55t-46 35t-89 29q-85 23 -119.5 52.5t-34.5 80.5
q0 46 26.5 87t71.5 65.5t97 24.5q56 0 92.5 -21t59 -52.5t50.5 -85.5l18 -35l11 -23q17 -33 26.5 -47.5t22.5 -23.5q71 131 131.5 207.5t119 110t125.5 33.5q55 0 99 -27t69 -77t25 -117q0 -53 -14 -87q12 -28 43 -41.5t93 -13.5zM1272.5 46.5q42.5 13.5 61.5 43.5t19 83
q0 57 -22 100t-60 66t-86 23q-92 0 -174.5 -76.5t-173.5 -250.5q20 -2 33 -2h285q75 0 117.5 13.5zM1168 506.5q-8 7.5 -8 18.5t8 18.5t19 7.5t18.5 -7.5t7.5 -18.5q0 -10 -7.5 -18t-18.5 -8t-19 7.5z" />
    <glyph glyph-name="uniFD24" unicode="&#xfec0;&#xfef2;" horiz-adv-x="1502" arabic-form="final" 
d="M1519 30v-27l-17 -3q-66 0 -101.5 15t-50.5 46q-25 -32 -72.5 -46.5t-124.5 -14.5h-282q-42 0 -66 12t-37.5 33t-39.5 72l-20 39q-26 50 -47.5 79.5t-53 46.5t-77.5 17q-44 0 -83 -20t-62 -52t-23 -68q0 -27 14.5 -45t45.5 -31.5t88 -28.5q58 -16 91 -33.5t49 -45
t16 -70.5q0 -91 -84 -139.5t-239 -48.5q-157 0 -231 64t-74 199q0 79 37 168q6 13 19 11q6 -2 8.5 -8t-0.5 -13q-10 -23 -22.5 -66t-12.5 -92q0 -119 66 -174.5t210 -55.5q142 0 219.5 39.5t77.5 114.5q0 34 -15 55t-46 35t-89 29q-85 23 -119.5 52.5t-34.5 80.5
q0 46 26.5 87t71.5 65.5t97 24.5q56 0 92.5 -21t59 -52.5t50.5 -85.5l18 -35l11 -23q17 -33 26.5 -47.5t22.5 -23.5q71 131 131.5 207.5t119 110t125.5 33.5q55 0 99 -27t69 -77t25 -117q0 -53 -14 -87q12 -28 43 -41.5t93 -13.5zM1272.5 46.5q42.5 13.5 61.5 43.5t19 83
q0 57 -22 100t-60 66t-86 23q-92 0 -174.5 -76.5t-173.5 -250.5q20 -2 33 -2h285q75 0 117.5 13.5zM279.5 -418.5q-7.5 7.5 -7.5 17.5t7.5 17.5t17.5 7.5t17.5 -7.5t7.5 -17.5t-7.5 -17.5t-17.5 -7.5t-17.5 7.5zM376 -418.5q-8 7.5 -8 17.5t8 17.5t18 7.5t17.5 -7.5
t7.5 -17.5t-7.5 -17.5t-17.5 -7.5t-18 7.5zM1168 506.5q-8 7.5 -8 18.5t8 18.5t19 7.5t18.5 -7.5t7.5 -18.5q0 -10 -7.5 -18t-18.5 -8t-19 7.5z" />
    <glyph glyph-name="uniFD29" unicode="&#xfeb8;&#xfeae;" horiz-adv-x="1188" arabic-form="final" 
d="M1205 30v-27l-17 -3q-132 0 -157 66q-22 -66 -124 -66q-55 0 -85 16.5t-40 48.5q-25 -65 -140 -65q-83 0 -118 38.5t-35 126.5v20q-14 -33 -49.5 -49t-93.5 -16q-78 0 -105 40q5 -48 5 -98q0 -87 -26.5 -155.5t-74 -107t-108.5 -38.5q-28 0 -50 5t-33 11q-6 3 -9 9.5
t0 12.5q5 11 20 7q36 -12 71 -12q52 0 94 33t65.5 94t23.5 141q0 88 -18 164v5q0 13 11 16h2q10 0 15 -14q5 -26 15 -43t34 -27t68 -10q52 0 82.5 10.5t45.5 38.5t15 79q0 7 4 11t11 4q6 0 9.5 -4t3.5 -11v-112q0 -76 27.5 -106t97.5 -30q69 0 99 22.5t30 77.5v109q0 7 4 11
t10 4t10 -4t4 -11v-109q0 -56 23 -78t85 -22q60 0 85 22.5t25 76.5v110q0 7 4 11t10 4t10 -4t4 -11v-110q0 -37 13 -58.5t44 -31t86 -9.5zM801.5 478.5q7.5 -7.5 7.5 -17.5q0 -9 -7.5 -16.5t-17.5 -7.5t-17.5 7.5t-7.5 16.5q0 10 7.5 17.5t17.5 7.5t17.5 -7.5zM752.5 400.5
q7.5 -7.5 7.5 -17.5t-7.5 -17t-17.5 -7t-17.5 7t-7.5 17t7.5 17.5t17.5 7.5t17.5 -7.5zM849.5 400.5q7.5 -7.5 7.5 -17.5t-7.5 -17t-17.5 -7q-11 0 -18.5 7t-7.5 17t8 17.5t18 7.5t17.5 -7.5z" />
    <glyph glyph-name="uniFD2A" unicode="&#xfeb4;&#xfeae;" horiz-adv-x="1188" arabic-form="final" 
d="M1205 30v-27l-17 -3q-132 0 -157 66q-22 -66 -124 -66q-55 0 -85 16.5t-40 48.5q-25 -65 -140 -65q-83 0 -118 38.5t-35 126.5v20q-14 -33 -49.5 -49t-93.5 -16q-78 0 -105 40q5 -48 5 -98q0 -87 -26.5 -155.5t-74 -107t-108.5 -38.5q-28 0 -50 5t-33 11q-6 3 -9 9.5
t0 12.5q5 11 20 7q36 -12 71 -12q52 0 94 33t65.5 94t23.5 141q0 88 -18 164v5q0 13 11 16h2q10 0 15 -14q5 -26 15 -43t34 -27t68 -10q52 0 82.5 10.5t45.5 38.5t15 79q0 7 4 11t11 4q6 0 9.5 -4t3.5 -11v-112q0 -76 27.5 -106t97.5 -30q69 0 99 22.5t30 77.5v109q0 7 4 11
t10 4t10 -4t4 -11v-109q0 -56 23 -78t85 -22q60 0 85 22.5t25 76.5v110q0 7 4 11t10 4t10 -4t4 -11v-110q0 -37 13 -58.5t44 -31t86 -9.5z" />
    <glyph glyph-name="uniFD2B" unicode="&#xfebc;&#xfeae;" horiz-adv-x="1281" arabic-form="final" 
d="M1298 30v-27l-17 -3q-65 0 -100.5 15t-50.5 45q-25 -31 -72.5 -45.5t-123.5 -14.5h-293q-83 0 -117.5 38.5t-34.5 126.5v20q-14 -33 -49.5 -49t-93.5 -16q-78 0 -105 40q5 -48 5 -98q0 -87 -26.5 -155.5t-74 -107t-108.5 -38.5q-28 0 -50.5 5t-32.5 11q-6 3 -9 9.5
t0 12.5q5 11 20 7q36 -12 71 -12q52 0 94 33t65.5 94t23.5 141q0 81 -18 164v5q0 13 11 16h2q10 0 15 -14q5 -26 15 -43t34 -27t68 -10q52 0 82.5 10.5t45.5 38.5t15 79q0 7 4 11t11 4q6 0 9.5 -4t3.5 -11v-112q0 -59 16.5 -89.5t54.5 -40.5q72 134 133 211.5t120 111.5
t126 34q55 0 99 -27t69 -77t25 -117q0 -52 -15 -88q12 -28 43 -41t93 -13zM1052.5 46.5q42.5 13.5 61.5 43.5t19 83q0 57 -22 100t-60 66t-86 23q-92 0 -174.5 -76.5t-173.5 -251.5q8 -1 25 -1h294q74 0 116.5 13.5z" />
    <glyph glyph-name="uniFD2C" unicode="&#xfec0;&#xfeae;" horiz-adv-x="1281" arabic-form="final" 
d="M1298 30v-27l-17 -3q-65 0 -100.5 15t-50.5 45q-25 -31 -72.5 -45.5t-123.5 -14.5h-293q-83 0 -117.5 38.5t-34.5 126.5v20q-14 -33 -49.5 -49t-93.5 -16q-78 0 -105 40q5 -48 5 -98q0 -87 -26.5 -155.5t-74 -107t-108.5 -38.5q-28 0 -50.5 5t-32.5 11q-6 3 -9 9.5
t0 12.5q5 11 20 7q36 -12 71 -12q52 0 94 33t65.5 94t23.5 141q0 81 -18 164v5q0 13 11 16h2q10 0 15 -14q5 -26 15 -43t34 -27t68 -10q52 0 82.5 10.5t45.5 38.5t15 79q0 7 4 11t11 4q6 0 9.5 -4t3.5 -11v-112q0 -59 16.5 -89.5t54.5 -40.5q72 134 133 211.5t120 111.5
t126 34q55 0 99 -27t69 -77t25 -117q0 -52 -15 -88q12 -28 43 -41t93 -13zM1052.5 46.5q42.5 13.5 61.5 43.5t19 83q0 57 -22 100t-60 66t-86 23q-92 0 -174.5 -76.5t-173.5 -251.5q8 -1 25 -1h294q74 0 116.5 13.5zM932 506.5q-8 7.5 -8 18.5t8 18.5t19 7.5t18.5 -7.5
t7.5 -18.5q0 -10 -7.5 -18t-18.5 -8t-19 7.5z" />
    <glyph glyph-name="uniFDF2" unicode="&#x627;&#xfedf;&#xfee0;&#xfeea;" horiz-adv-x="1305" arabic-form="isolated" 
d="M988 693v-479q0 -76 -12 -120.5t-50.5 -69t-117.5 -24.5q-74 0 -112 20t-50 69q-15 -45 -54 -67t-113 -22q-76 0 -109.5 33.5t-38.5 115.5q-15 -22 -51 -35t-91 -13q-80 0 -115.5 32t-35.5 91q0 45 28 79t90.5 66t173.5 69v58q0 15 14 15t14 -15v-303q0 -66 10 -99.5
t35.5 -47t75.5 -13.5q70 0 102.5 20.5t40.5 55t8 97.5v487q0 17 15 17q14 0 14 -17v-518q0 -58 14 -88.5t45.5 -42t89.5 -11.5q70 0 102.5 20.5t40.5 55t8 97.5v487q0 17 15 17q14 0 14 -17zM1205 706q4 -4 4 -10v-680q0 -7 -3.5 -11.5t-10.5 -4.5t-11 4.5t-4 11.5v680
q0 6 4 10t11 4q6 0 10 -4zM281.5 146.5q35.5 12.5 48.5 34.5v8v219q-101 -36 -158 -63.5t-82.5 -56t-25.5 -63.5q0 -47 31.5 -69t97.5 -22q53 0 88.5 12.5z" />
    <glyph glyph-name="uniFEF5" unicode="&#xfedf;&#xfe82;" horiz-adv-x="564" arabic-form="isolated" 
d="M456 208.5q21 -36.5 21 -83.5q0 -67 -46.5 -96t-141.5 -29q-92 0 -134 3t-66 11q-8 3 -13 9t-5 14q0 13 11 23l87 79q141 128 173 159q-43 44 -205 191l-92 83q-6 5 -6 12q0 6 3 10q5 5 11 5t11 -5q183 -163 298 -276q43 45 61 87.5t18 113.5v177q0 6 4.5 10t10.5 4
t10 -4t4 -10v-173q0 -79 -20 -129t-68 -96q53 -53 74 -89.5zM408.5 53q41.5 20 41.5 75q0 38 -19.5 70t-68.5 82q-78 -74 -260 -235q13 -6 53.5 -9t133.5 -3q78 0 119.5 20zM77 675q-3 -1 -7 -1q-10 0 -10 10v2q0 4 3.5 7t7.5 6q22 12 47 12q11 0 22 -2.5t21 -5.5
q28 -8 50 -8t40 8q3 1 8 1q10 0 10 -10v-2q0 -7 -11 -14q-20 -10 -48 -10q-18 0 -33 4t-18 5q-28 8 -41 8q-19 0 -41 -10z" />
    <glyph glyph-name="uniFEF6" unicode="&#xfee0;&#xfe82;" horiz-adv-x="634" arabic-form="final" 
d="M651 30v-27l-17 -3q-83 0 -123 25.5t-50 90.5q-17 -44 -64.5 -69t-131.5 -35.5t-220 -11.5q-9 0 -13.5 5t-4.5 12t5 11.5t13 4.5q125 0 207 9q0 97 -7.5 172.5t-33.5 162t-80 180.5q-3 6 -3 11q0 9 7 13q4 2 7 2q9 0 15 -10q53 -95 79.5 -177t35 -161.5t8.5 -188.5
q96 15 136.5 51.5t40.5 105.5v493q0 6 4.5 10t10.5 4t10 -4t4 -10v-518q0 -59 14 -90t45 -43t89 -12zM80 675q-3 -1 -7 -1q-10 0 -10 10v2q0 4 3.5 7t7.5 6q22 12 47 12q11 0 22 -2.5t21 -5.5q28 -8 50 -8t40 8q3 1 8 1q10 0 10 -10v-2q0 -7 -11 -14q-20 -10 -48 -10
q-18 0 -33 4t-18 5q-28 8 -41 8q-19 0 -41 -10z" />
    <glyph glyph-name="uniFEF7" unicode="&#xfedf;&#xfe84;" horiz-adv-x="564" arabic-form="isolated" 
d="M456 208.5q21 -36.5 21 -83.5q0 -67 -46.5 -96t-141.5 -29q-92 0 -134 3t-66 11q-8 3 -13 9t-5 14q0 13 11 23l87 79q141 128 173 159q-43 44 -205 191l-92 83q-6 5 -6 12q0 6 3 10q5 5 11 5t11 -5q183 -163 298 -276q43 45 61 87.5t18 113.5v177q0 6 4.5 10t10.5 4
t10 -4t4 -10v-173q0 -79 -20 -129t-68 -96q53 -53 74 -89.5zM408.5 53q41.5 20 41.5 75q0 38 -19.5 70t-68.5 82q-78 -74 -260 -235q13 -6 53.5 -9t133.5 -3q78 0 119.5 20zM245 689q0 -9 -11 -12q-89 -11 -152 -17h-2q-14 0 -14 12v2q0 9 13 11l31 3q-26 16 -26 57
q0 39 22.5 58.5t55.5 19.5q14 0 26.5 -4t17.5 -8q11 -7 10 -14q0 -6 -5 -8.5t-11 -0.5q-22 9 -38 9q-56 0 -56 -53q0 -27 11.5 -38.5t34.5 -11.5q13 0 77 8h3q5 0 9 -3t4 -8v-2z" />
    <glyph glyph-name="uniFEF8" unicode="&#xfee0;&#xfe84;" horiz-adv-x="634" arabic-form="final" 
d="M651 30v-27l-17 -3q-83 0 -123 25.5t-50 90.5q-17 -44 -64.5 -69t-131.5 -35.5t-220 -11.5q-9 0 -13.5 5t-4.5 12t5 11.5t13 4.5q125 0 207 9q0 97 -7.5 172.5t-33.5 162t-80 180.5q-3 6 -3 11q0 9 7 13q4 2 7 2q9 0 15 -10q53 -95 79.5 -177t35 -161.5t8.5 -188.5
q96 15 136.5 51.5t40.5 105.5v493q0 6 4.5 10t10.5 4t10 -4t4 -10v-518q0 -59 14 -90t45 -43t89 -12zM248 689q0 -9 -11 -12q-89 -11 -152 -17h-2q-14 0 -14 12v2q0 9 13 11l31 3q-26 16 -26 57q0 39 22.5 58.5t55.5 19.5q14 0 26.5 -4t17.5 -8q11 -7 10 -14q0 -6 -5 -8.5
t-11 -0.5q-22 9 -38 9q-56 0 -56 -53q0 -27 11.5 -38.5t34.5 -11.5q13 0 77 8h3q5 0 9 -3t4 -8v-2z" />
    <glyph glyph-name="uniFEF9" unicode="&#xfedf;&#xfe88;" horiz-adv-x="564" arabic-form="isolated" 
d="M456 208.5q21 -36.5 21 -83.5q0 -67 -46.5 -96t-141.5 -29q-92 0 -134 3t-66 11q-8 3 -13 9t-5 14q0 13 11 23l87 79q141 128 173 159q-43 44 -205 191l-92 83q-6 5 -6 12q0 6 3 10q5 5 11 5t11 -5q183 -163 298 -276q43 45 61 87.5t18 113.5v177q0 6 4.5 10t10.5 4
t10 -4t4 -10v-173q0 -79 -20 -129t-68 -96q53 -53 74 -89.5zM408.5 53q41.5 20 41.5 75q0 38 -19.5 70t-68.5 82q-78 -74 -260 -235q13 -6 53.5 -9t133.5 -3q78 0 119.5 20zM243 -225q0 -9 -11 -12q-89 -11 -152 -17h-2q-14 0 -14 12v2q0 9 13 11l31 3q-26 16 -26 57
q0 39 22.5 58.5t55.5 19.5q14 0 26.5 -4t17.5 -8q11 -7 10 -14q0 -6 -5 -8.5t-11 -0.5q-23 9 -38 9q-56 0 -56 -53q0 -27 11.5 -38.5t34.5 -11.5q13 0 77 8h3q5 0 9 -3t4 -8v-2z" />
    <glyph glyph-name="uniFEFA" unicode="&#xfee0;&#xfe88;" horiz-adv-x="634" arabic-form="final" 
d="M651 30v-27l-17 -3q-83 0 -123 25.5t-50 90.5q-17 -44 -64.5 -69t-131.5 -35.5t-220 -11.5q-9 0 -13.5 5t-4.5 12t5 11.5t13 4.5q125 0 207 9q0 97 -7.5 172.5t-33.5 162t-80 180.5q-3 6 -3 11q0 9 7 13q4 2 7 2q9 0 15 -10q53 -95 79.5 -177t35 -161.5t8.5 -188.5
q96 15 136.5 51.5t40.5 105.5v493q0 6 4.5 10t10.5 4t10 -4t4 -10v-518q0 -59 14 -90t45 -43t89 -12zM304 -225q0 -9 -11 -12q-89 -11 -152 -17h-2q-14 0 -14 12v2q0 9 13 11l31 3q-26 16 -26 57q0 39 22.5 58.5t55.5 19.5q14 0 26.5 -4t17.5 -8q11 -7 10 -14q0 -6 -5 -8.5
t-11 -0.5q-23 9 -38 9q-56 0 -56 -53q0 -27 11.5 -38.5t34.5 -11.5q13 0 77 8h3q5 0 9 -3t4 -8v-2z" />
    <glyph glyph-name="uniFEFB" unicode="&#xfedf;&#xfe8e;" horiz-adv-x="564" arabic-form="isolated" 
d="M456 208.5q21 -36.5 21 -83.5q0 -67 -46.5 -96t-141.5 -29q-92 0 -134 3t-66 11q-8 3 -13 9t-5 14q0 13 11 23l87 79q141 128 173 159q-43 44 -205 191l-92 83q-6 5 -6 12q0 6 3 10q5 5 11 5t11 -5q183 -163 298 -276q43 45 61 87.5t18 113.5v177q0 6 4.5 10t10.5 4
t10 -4t4 -10v-173q0 -79 -20 -129t-68 -96q53 -53 74 -89.5zM408.5 53q41.5 20 41.5 75q0 38 -19.5 70t-68.5 82q-78 -74 -260 -235q13 -6 53.5 -9t133.5 -3q78 0 119.5 20z" />
    <glyph glyph-name="uniFEFC" unicode="&#xfee0;&#xfe8e;" horiz-adv-x="634" arabic-form="final" 
d="M651 30v-27l-17 -3q-83 0 -123 25.5t-50 90.5q-17 -44 -64.5 -69t-131.5 -35.5t-220 -11.5q-9 0 -13.5 5t-4.5 12t5 11.5t13 4.5q125 0 207 9q0 97 -7.5 172.5t-33.5 162t-80 180.5q-3 6 -3 11q0 9 7 13q4 2 7 2q9 0 15 -10q53 -95 79.5 -177t35 -161.5t8.5 -188.5
q96 15 136.5 51.5t40.5 105.5v493q0 6 4.5 10t10.5 4t10 -4t4 -10v-518q0 -59 14 -90t45 -43t89 -12z" />
    <glyph glyph-name="uni06280626" unicode="&#xfe91;&#xfe8a;" horiz-adv-x="762" 
d="M673 55.5q-39 -46.5 -112 -52.5q71 -31 71 -106q0 -84 -80 -132t-222 -48q-150 0 -221 59.5t-71 184.5q0 55 12.5 102t22.5 69q6 14 18 11q7 -1 9 -6.5t0 -13.5q-1 -2 -9 -24.5t-16 -62t-8 -75.5q0 -109 63.5 -160t201.5 -51q129 0 201.5 39t72.5 108q0 49 -37 72
t-113 38q-7 1 -11.5 6t-4.5 11q1 7 6 11.5t13 3.5q34 -6 77 -6q78 0 113 39.5t35 125.5q0 62 -13 130v2q0 8 4 12t10 4q13 0 14 -15q13 -59 13 -133q0 -96 -39 -142.5zM630 -349.5q-8 7.5 -8 18.5q0 10 8 17.5t19 7.5q10 0 18 -7.5t8 -17.5t-7.5 -18t-18.5 -8t-19 7.5z
M168 247q0 -9 -11 -12q-89 -11 -152 -17h-2q-14 0 -14 12v2q0 9 13 11l31 3q-26 16 -26 57q0 39 22.5 58.5t55.5 19.5q14 0 26.5 -4t17.5 -8q11 -7 10 -14q0 -6 -5 -8.5t-11 -0.5q-22 9 -38 9q-56 0 -56 -53q0 -27 11.5 -38.5t34.5 -11.5q13 0 77 8h3q5 0 9 -3t4 -8v-2z" />
    <glyph glyph-name="uni06280626.fina" unicode="&#xfe92;&#xfe8a;" horiz-adv-x="885" 
d="M74 146q6 14 19 11q6 -1 8 -6t0 -13q-1 -2 -17.5 -46t-16.5 -112q0 -119 66 -174.5t210 -55.5q142 0 219.5 39.5t77.5 114.5q0 34 -15 55t-46 35t-89 29q-84 22 -118 51.5t-34 81.5q0 46 26.5 86.5t71 64.5t95.5 24q56 0 92.5 -21t58.5 -52.5t49 -85.5l17 -33
q22 -43 37.5 -64t38.5 -31.5t61 -10.5l17 -3v-27l-17 -3q-45 0 -73 12.5t-46.5 36.5t-40.5 68l-19 37q-25 50 -46 79.5t-52.5 46.5t-77.5 17q-44 0 -82 -19.5t-61 -51.5t-23 -67q0 -27 14 -45t45 -31.5t87 -28.5q58 -16 91 -33.5t49 -45t16 -70.5q0 -91 -84 -139.5
t-239 -48.5q-157 0 -231 64t-74 199q0 76 36 166zM773 -144.5q-8 7.5 -8 18.5q0 10 8 17.5t19 7.5q10 0 18 -7.5t8 -17.5t-7.5 -18t-18.5 -8t-19 7.5zM169 257q0 -9 -11 -12q-89 -11 -152 -17h-2q-14 0 -14 12v2q0 9 13 11l31 3q-26 16 -26 57q0 39 22.5 58.5t55.5 19.5
q14 0 26.5 -4t17.5 -8q11 -7 10 -14q0 -6 -5 -8.5t-11 -0.5q-22 9 -38 9q-56 0 -56 -53q0 -27 11.5 -38.5t34.5 -11.5q13 0 77 8h3q5 0 9 -3t4 -8v-2z" />
    <glyph glyph-name="uni062A0626" unicode="&#xfe97;&#xfe8a;" horiz-adv-x="762" 
d="M673 55.5q-39 -46.5 -112 -52.5q71 -31 71 -106q0 -84 -80 -132t-222 -48q-150 0 -221 59.5t-71 184.5q0 55 12.5 102t22.5 69q6 14 18 11q7 -1 9 -6.5t0 -13.5q-1 -2 -9 -24.5t-16 -62t-8 -75.5q0 -109 63.5 -160t201.5 -51q129 0 201.5 39t72.5 108q0 49 -37 72
t-113 38q-7 1 -11.5 6t-4.5 11q1 7 6 11.5t13 3.5q34 -6 77 -6q78 0 113 39.5t35 125.5q0 62 -13 130v2q0 8 4 12t10 4q13 0 14 -15q13 -59 13 -133q0 -96 -39 -142.5zM618.5 454.5q-7.5 7.5 -7.5 17.5t7.5 17.5t17.5 7.5t17.5 -7.5t7.5 -17.5t-7.5 -17.5t-17.5 -7.5
t-17.5 7.5zM715 454.5q-8 7.5 -8 17.5t8 17.5t18 7.5t17.5 -7.5t7.5 -17.5t-7.5 -17.5t-17.5 -7.5t-18 7.5zM168 247q0 -9 -11 -12q-89 -11 -152 -17h-2q-14 0 -14 12v2q0 9 13 11l31 3q-26 16 -26 57q0 39 22.5 58.5t55.5 19.5q14 0 26.5 -4t17.5 -8q11 -7 10 -14
q0 -6 -5 -8.5t-11 -0.5q-22 9 -38 9q-56 0 -56 -53q0 -27 11.5 -38.5t34.5 -11.5q13 0 77 8h3q5 0 9 -3t4 -8v-2z" />
    <glyph glyph-name="uni062A0626.fina" unicode="&#xfe98;&#xfe8a;" horiz-adv-x="885" 
d="M74 146q6 14 19 11q6 -1 8 -6t0 -13q-1 -2 -17.5 -46t-16.5 -112q0 -119 66 -174.5t210 -55.5q142 0 219.5 39.5t77.5 114.5q0 34 -15 55t-46 35t-89 29q-84 22 -118 51.5t-34 81.5q0 46 26.5 86.5t71 64.5t95.5 24q56 0 92.5 -21t58.5 -52.5t49 -85.5l17 -33
q22 -43 37.5 -64t38.5 -31.5t61 -10.5l17 -3v-27l-17 -3q-45 0 -73 12.5t-46.5 36.5t-40.5 68l-19 37q-25 50 -46 79.5t-52.5 46.5t-77.5 17q-44 0 -82 -19.5t-61 -51.5t-23 -67q0 -27 14 -45t45 -31.5t87 -28.5q58 -16 91 -33.5t49 -45t16 -70.5q0 -91 -84 -139.5
t-239 -48.5q-157 0 -231 64t-74 199q0 76 36 166zM465.5 439.5q-7.5 7.5 -7.5 17.5t7.5 17.5t17.5 7.5t17.5 -7.5t7.5 -17.5t-7.5 -17.5t-17.5 -7.5t-17.5 7.5zM562 439.5q-8 7.5 -8 17.5t8 17.5t18 7.5t17.5 -7.5t7.5 -17.5t-7.5 -17.5t-17.5 -7.5t-18 7.5zM169 257
q0 -9 -11 -12q-89 -11 -152 -17h-2q-14 0 -14 12v2q0 9 13 11l31 3q-26 16 -26 57q0 39 22.5 58.5t55.5 19.5q14 0 26.5 -4t17.5 -8q11 -7 10 -14q0 -6 -5 -8.5t-11 -0.5q-22 9 -38 9q-56 0 -56 -53q0 -27 11.5 -38.5t34.5 -11.5q13 0 77 8h3q5 0 9 -3t4 -8v-2z" />
    <glyph glyph-name="uni062B0626" unicode="&#xfe9b;&#xfe8a;" horiz-adv-x="762" 
d="M673 55.5q-39 -46.5 -112 -52.5q71 -31 71 -106q0 -84 -80 -132t-222 -48q-150 0 -221 59.5t-71 184.5q0 55 12.5 102t22.5 69q6 14 18 11q7 -1 9 -6.5t0 -13.5q-1 -2 -9 -24.5t-16 -62t-8 -75.5q0 -109 63.5 -160t201.5 -51q129 0 201.5 39t72.5 108q0 49 -37 72
t-113 38q-7 1 -11.5 6t-4.5 11q1 7 6 11.5t13 3.5q34 -6 77 -6q78 0 113 39.5t35 125.5q0 62 -13 130v2q0 8 4 12t10 4q13 0 14 -15q13 -59 13 -133q0 -96 -39 -142.5zM702.5 562.5q7.5 -7.5 7.5 -17.5q0 -9 -7.5 -16.5t-17.5 -7.5t-17.5 7.5t-7.5 16.5q0 10 7.5 17.5
t17.5 7.5t17.5 -7.5zM653.5 484.5q7.5 -7.5 7.5 -17.5t-7.5 -17t-17.5 -7t-17.5 7t-7.5 17t7.5 17.5t17.5 7.5t17.5 -7.5zM750.5 484.5q7.5 -7.5 7.5 -17.5t-7.5 -17t-17.5 -7q-11 0 -18.5 7t-7.5 17t8 17.5t18 7.5t17.5 -7.5zM168 247q0 -9 -11 -12q-89 -11 -152 -17h-2
q-14 0 -14 12v2q0 9 13 11l31 3q-26 16 -26 57q0 39 22.5 58.5t55.5 19.5q14 0 26.5 -4t17.5 -8q11 -7 10 -14q0 -6 -5 -8.5t-11 -0.5q-22 9 -38 9q-56 0 -56 -53q0 -27 11.5 -38.5t34.5 -11.5q13 0 77 8h3q5 0 9 -3t4 -8v-2z" />
    <glyph glyph-name="uni062B0626.fina" unicode="&#xfe9c;&#xfe8a;" horiz-adv-x="885" 
d="M74 146q6 14 19 11q6 -1 8 -6t0 -13q-1 -2 -17.5 -46t-16.5 -112q0 -119 66 -174.5t210 -55.5q142 0 219.5 39.5t77.5 114.5q0 34 -15 55t-46 35t-89 29q-84 22 -118 51.5t-34 81.5q0 46 26.5 86.5t71 64.5t95.5 24q56 0 92.5 -21t58.5 -52.5t49 -85.5l17 -33
q22 -43 37.5 -64t38.5 -31.5t61 -10.5l17 -3v-27l-17 -3q-45 0 -73 12.5t-46.5 36.5t-40.5 68l-19 37q-25 50 -46 79.5t-52.5 46.5t-77.5 17q-44 0 -82 -19.5t-61 -51.5t-23 -67q0 -27 14 -45t45 -31.5t87 -28.5q58 -16 91 -33.5t49 -45t16 -70.5q0 -91 -84 -139.5
t-239 -48.5q-157 0 -231 64t-74 199q0 76 36 166zM549.5 547.5q7.5 -7.5 7.5 -17.5q0 -9 -7.5 -16.5t-17.5 -7.5t-17.5 7.5t-7.5 16.5q0 10 7.5 17.5t17.5 7.5t17.5 -7.5zM500.5 469.5q7.5 -7.5 7.5 -17.5t-7.5 -17t-17.5 -7t-17.5 7t-7.5 17t7.5 17.5t17.5 7.5t17.5 -7.5z
M597.5 469.5q7.5 -7.5 7.5 -17.5t-7.5 -17t-17.5 -7q-11 0 -18.5 7t-7.5 17t8 17.5t18 7.5t17.5 -7.5zM169 257q0 -9 -11 -12q-89 -11 -152 -17h-2q-14 0 -14 12v2q0 9 13 11l31 3q-26 16 -26 57q0 39 22.5 58.5t55.5 19.5q14 0 26.5 -4t17.5 -8q11 -7 10 -14q0 -6 -5 -8.5
t-11 -0.5q-22 9 -38 9q-56 0 -56 -53q0 -27 11.5 -38.5t34.5 -11.5q13 0 77 8h3q5 0 9 -3t4 -8v-2z" />
    <glyph glyph-name="uni06330632" unicode="&#xfeb3;&#xfeb0;" horiz-adv-x="1095" 
d="M1037.5 228.5q7.5 -34.5 7.5 -73.5q0 -82 -34 -118.5t-104 -36.5q-55 0 -85 16.5t-40 48.5q-25 -65 -140 -65q-83 0 -118 38.5t-35 126.5v20q-14 -33 -49.5 -49t-93.5 -16q-78 0 -105 40q5 -48 5 -98q0 -87 -26.5 -155.5t-74 -107t-108.5 -38.5q-28 0 -50 5t-33 11
q-6 3 -9 9.5t0 12.5q5 11 20 7q36 -12 71 -12q52 0 94 33t65.5 94t23.5 141q0 88 -18 164v5q0 13 11 16h2q10 0 15 -14q5 -26 15 -43t34 -27t68 -10q52 0 82.5 10.5t45.5 38.5t15 79q0 7 4 11t11 4q6 0 9.5 -4t3.5 -11v-112q0 -76 27.5 -106t97.5 -30t99.5 22.5t29.5 77.5
v109q0 7 4 11t10 4t10 -4t4 -11v-109q0 -56 23 -78t85 -22q59 0 84.5 26.5t25.5 93.5q0 48 -9.5 83.5t-10.5 39.5q-1 2 -1 6q0 10 10 13h2q11 0 15 -13q7 -19 14.5 -53.5zM193 353.5q-8 7.5 -8 18.5t8 18.5t19 7.5t18.5 -7.5t7.5 -18.5q0 -10 -7.5 -18t-18.5 -8t-19 7.5z
" />
    <glyph glyph-name="uni06330632.fina" unicode="&#xfeb4;&#xfeb0;" horiz-adv-x="1188" 
d="M1205 30v-27l-17 -3q-132 0 -157 66q-22 -66 -124 -66q-55 0 -85 16.5t-40 48.5q-25 -65 -140 -65q-83 0 -118 38.5t-35 126.5v20q-14 -33 -49.5 -49t-93.5 -16q-78 0 -105 40q5 -48 5 -98q0 -87 -26.5 -155.5t-74 -107t-108.5 -38.5q-28 0 -50 5t-33 11q-6 3 -9 9.5
t0 12.5q5 11 20 7q36 -12 71 -12q52 0 94 33t65.5 94t23.5 141q0 88 -18 164v5q0 13 11 16h2q10 0 15 -14q5 -26 15 -43t34 -27t68 -10q52 0 82.5 10.5t45.5 38.5t15 79q0 7 4 11t11 4q6 0 9.5 -4t3.5 -11v-112q0 -76 27.5 -106t97.5 -30q69 0 99 22.5t30 77.5v109q0 7 4 11
t10 4t10 -4t4 -11v-109q0 -56 23 -78t85 -22q60 0 85 22.5t25 76.5v110q0 7 4 11t10 4t10 -4t4 -11v-110q0 -37 13 -58.5t44 -31t86 -9.5zM193 353.5q-8 7.5 -8 18.5t8 18.5t19 7.5t18.5 -7.5t7.5 -18.5q0 -10 -7.5 -18t-18.5 -8t-19 7.5z" />
    <glyph glyph-name="uni06330626" unicode="&#xfeb3;&#xfe8a;" horiz-adv-x="1322" 
d="M1264.5 229.5q7.5 -35.5 7.5 -74.5q0 -82 -33.5 -118.5t-103.5 -36.5q-55 0 -85 16t-40 48q-22 -64 -125 -64q-47 0 -75 13t-45.5 36t-39.5 68l-19 37q-26 51 -47 80t-52 46t-77 17q-44 0 -82 -19.5t-61 -51.5t-23 -67q0 -27 14 -45t45 -31.5t87 -28.5q58 -16 91 -33.5
t49 -45t16 -70.5q0 -91 -84 -139.5t-239 -48.5q-157 0 -231 64t-74 199q0 79 37 168q6 13 19 11q6 -2 8.5 -8t-0.5 -13q-10 -23 -22.5 -66t-12.5 -92q0 -119 66 -174.5t210 -55.5q142 0 219.5 39.5t77.5 114.5q0 34 -15 55t-46 35t-89 29q-84 22 -118 51.5t-34 81.5
q0 46 26.5 86.5t71 64.5t95.5 24q56 0 92 -21t57.5 -52t50.5 -86l17 -33q22 -44 36.5 -64.5t37.5 -31t64 -10.5q61 0 87 22.5t26 77.5v109q0 7 4 11t10 4q5 0 9 -4t4 -11v-109q0 -56 23.5 -78t85.5 -22q59 0 84.5 26.5t25.5 93.5q0 48 -9.5 83.5t-10.5 39.5q-1 2 -1 6
q0 10 10 13h2q11 0 15 -13q6 -17 13.5 -52.5zM169 257q0 -9 -11 -12q-89 -11 -152 -17h-2q-14 0 -14 12v2q0 9 13 11l31 3q-26 16 -26 57q0 39 22.5 58.5t55.5 19.5q14 0 26.5 -4t17.5 -8q11 -7 10 -14q0 -6 -5 -8.5t-11 -0.5q-22 9 -38 9q-56 0 -56 -53q0 -27 11.5 -38.5
t34.5 -11.5q13 0 77 8h3q5 0 9 -3t4 -8v-2z" />
    <glyph glyph-name="uni06330626.fina" unicode="&#xfeb4;&#xfe8a;" horiz-adv-x="1416" 
d="M1433 30v-27l-17 -3q-70 0 -107.5 17t-49.5 50q-21 -67 -122 -67q-55 0 -85.5 16t-40.5 48q-24 -64 -126 -64q-47 0 -75 13t-45.5 36t-39.5 68l-19 37q-26 51 -47 80t-52 46t-77 17q-44 0 -82 -19.5t-61 -51.5t-23 -67q0 -27 14 -45t45 -31.5t87 -28.5q58 -16 91 -33.5
t49 -45t16 -70.5q0 -91 -84 -139.5t-239 -48.5q-157 0 -231 64t-74 199q0 79 37 168q6 13 19 11q6 -2 8.5 -8t-0.5 -13q-10 -23 -22.5 -66t-12.5 -92q0 -119 66 -174.5t210 -55.5q142 0 219.5 39.5t77.5 114.5q0 34 -15 55t-46 35t-89 29q-84 22 -118 51.5t-34 81.5
q0 46 26.5 86.5t71 64.5t95.5 24q56 0 92 -21t57.5 -52t50.5 -86l17 -33q22 -44 36.5 -64.5t37.5 -31t64 -10.5q61 0 87 22.5t26 77.5v109q0 7 4 11t10 4q5 0 9 -4t4 -11v-109q0 -56 24.5 -78t87.5 -22q58 0 82.5 22.5t24.5 76.5v110q0 7 4 11t10 4t9.5 -4t3.5 -11v-110
q0 -37 13 -58.5t44.5 -31t86.5 -9.5zM169 257q0 -9 -11 -12q-89 -11 -152 -17h-2q-14 0 -14 12v2q0 9 13 11l31 3q-26 16 -26 57q0 39 22.5 58.5t55.5 19.5q14 0 26.5 -4t17.5 -8q11 -7 10 -14q0 -6 -5 -8.5t-11 -0.5q-22 9 -38 9q-56 0 -56 -53q0 -27 11.5 -38.5
t34.5 -11.5q13 0 77 8h3q5 0 9 -3t4 -8v-2z" />
    <glyph glyph-name="uni06340632" unicode="&#xfeb7;&#xfeb0;" horiz-adv-x="1095" 
d="M1037.5 228.5q7.5 -34.5 7.5 -73.5q0 -82 -34 -118.5t-104 -36.5q-55 0 -85 16.5t-40 48.5q-25 -65 -140 -65q-83 0 -118 38.5t-35 126.5v20q-14 -33 -49.5 -49t-93.5 -16q-78 0 -105 40q5 -48 5 -98q0 -87 -26.5 -155.5t-74 -107t-108.5 -38.5q-28 0 -50 5t-33 11
q-6 3 -9 9.5t0 12.5q5 11 20 7q36 -12 71 -12q52 0 94 33t65.5 94t23.5 141q0 88 -18 164v5q0 13 11 16h2q10 0 15 -14q5 -26 15 -43t34 -27t68 -10q52 0 82.5 10.5t45.5 38.5t15 79q0 7 4 11t11 4q6 0 9.5 -4t3.5 -11v-112q0 -76 27.5 -106t97.5 -30t99.5 22.5t29.5 77.5
v109q0 7 4 11t10 4t10 -4t4 -11v-109q0 -56 23 -78t85 -22q59 0 84.5 26.5t25.5 93.5q0 48 -9.5 83.5t-10.5 39.5q-1 2 -1 6q0 10 10 13h2q11 0 15 -13q7 -19 14.5 -53.5zM801.5 478.5q7.5 -7.5 7.5 -17.5q0 -9 -7.5 -16.5t-17.5 -7.5t-17.5 7.5t-7.5 16.5q0 10 7.5 17.5
t17.5 7.5t17.5 -7.5zM752.5 400.5q7.5 -7.5 7.5 -17.5t-7.5 -17t-17.5 -7t-17.5 7t-7.5 17t7.5 17.5t17.5 7.5t17.5 -7.5zM849.5 400.5q7.5 -7.5 7.5 -17.5t-7.5 -17t-17.5 -7q-11 0 -18.5 7t-7.5 17t8 17.5t18 7.5t17.5 -7.5zM193 353.5q-8 7.5 -8 18.5t8 18.5t19 7.5
t18.5 -7.5t7.5 -18.5q0 -10 -7.5 -18t-18.5 -8t-19 7.5z" />
    <glyph glyph-name="uni06340632.fina" unicode="&#xfeb8;&#xfeb0;" horiz-adv-x="1188" 
d="M1205 30v-27l-17 -3q-132 0 -157 66q-22 -66 -124 -66q-55 0 -85 16.5t-40 48.5q-25 -65 -140 -65q-83 0 -118 38.5t-35 126.5v20q-14 -33 -49.5 -49t-93.5 -16q-78 0 -105 40q5 -48 5 -98q0 -87 -26.5 -155.5t-74 -107t-108.5 -38.5q-28 0 -50 5t-33 11q-6 3 -9 9.5
t0 12.5q5 11 20 7q36 -12 71 -12q52 0 94 33t65.5 94t23.5 141q0 88 -18 164v5q0 13 11 16h2q10 0 15 -14q5 -26 15 -43t34 -27t68 -10q52 0 82.5 10.5t45.5 38.5t15 79q0 7 4 11t11 4q6 0 9.5 -4t3.5 -11v-112q0 -76 27.5 -106t97.5 -30q69 0 99 22.5t30 77.5v109q0 7 4 11
t10 4t10 -4t4 -11v-109q0 -56 23 -78t85 -22q60 0 85 22.5t25 76.5v110q0 7 4 11t10 4t10 -4t4 -11v-110q0 -37 13 -58.5t44 -31t86 -9.5zM801.5 478.5q7.5 -7.5 7.5 -17.5q0 -9 -7.5 -16.5t-17.5 -7.5t-17.5 7.5t-7.5 16.5q0 10 7.5 17.5t17.5 7.5t17.5 -7.5zM752.5 400.5
q7.5 -7.5 7.5 -17.5t-7.5 -17t-17.5 -7t-17.5 7t-7.5 17t7.5 17.5t17.5 7.5t17.5 -7.5zM849.5 400.5q7.5 -7.5 7.5 -17.5t-7.5 -17t-17.5 -7q-11 0 -18.5 7t-7.5 17t8 17.5t18 7.5t17.5 -7.5zM193 353.5q-8 7.5 -8 18.5t8 18.5t19 7.5t18.5 -7.5t7.5 -18.5q0 -10 -7.5 -18
t-18.5 -8t-19 7.5z" />
    <glyph glyph-name="uni06340626" unicode="&#xfeb7;&#xfe8a;" horiz-adv-x="1322" 
d="M1264.5 229.5q7.5 -35.5 7.5 -74.5q0 -82 -33.5 -118.5t-103.5 -36.5q-55 0 -85 16t-40 48q-22 -64 -125 -64q-47 0 -75 13t-45.5 36t-39.5 68l-19 37q-26 51 -47 80t-52 46t-77 17q-44 0 -82 -19.5t-61 -51.5t-23 -67q0 -27 14 -45t45 -31.5t87 -28.5q58 -16 91 -33.5
t49 -45t16 -70.5q0 -91 -84 -139.5t-239 -48.5q-157 0 -231 64t-74 199q0 79 37 168q6 13 19 11q6 -2 8.5 -8t-0.5 -13q-10 -23 -22.5 -66t-12.5 -92q0 -119 66 -174.5t210 -55.5q142 0 219.5 39.5t77.5 114.5q0 34 -15 55t-46 35t-89 29q-84 22 -118 51.5t-34 81.5
q0 46 26.5 86.5t71 64.5t95.5 24q56 0 92 -21t57.5 -52t50.5 -86l17 -33q22 -44 36.5 -64.5t37.5 -31t64 -10.5q61 0 87 22.5t26 77.5v109q0 7 4 11t10 4q5 0 9 -4t4 -11v-109q0 -56 23.5 -78t85.5 -22q59 0 84.5 26.5t25.5 93.5q0 48 -9.5 83.5t-10.5 39.5q-1 2 -1 6
q0 10 10 13h2q11 0 15 -13q6 -17 13.5 -52.5zM1029.5 478.5q7.5 -7.5 7.5 -17.5q0 -9 -7.5 -16.5t-17.5 -7.5t-17.5 7.5t-7.5 16.5q0 10 7.5 17.5t17.5 7.5t17.5 -7.5zM980.5 400.5q7.5 -7.5 7.5 -17.5t-7.5 -17t-17.5 -7t-17.5 7t-7.5 17t7.5 17.5t17.5 7.5t17.5 -7.5z
M1077.5 400.5q7.5 -7.5 7.5 -17.5t-7.5 -17t-17.5 -7q-11 0 -18.5 7t-7.5 17t8 17.5t18 7.5t17.5 -7.5zM169 257q0 -9 -11 -12q-89 -11 -152 -17h-2q-14 0 -14 12v2q0 9 13 11l31 3q-26 16 -26 57q0 39 22.5 58.5t55.5 19.5q14 0 26.5 -4t17.5 -8q11 -7 10 -14q0 -6 -5 -8.5
t-11 -0.5q-22 9 -38 9q-56 0 -56 -53q0 -27 11.5 -38.5t34.5 -11.5q13 0 77 8h3q5 0 9 -3t4 -8v-2z" />
    <glyph glyph-name="uni06340626.fina" unicode="&#xfeb8;&#xfe8a;" horiz-adv-x="1416" 
d="M1433 30v-27l-17 -3q-70 0 -107.5 17t-49.5 50q-21 -67 -122 -67q-55 0 -85.5 16t-40.5 48q-24 -64 -126 -64q-47 0 -75 13t-45.5 36t-39.5 68l-19 37q-26 51 -47 80t-52 46t-77 17q-44 0 -82 -19.5t-61 -51.5t-23 -67q0 -27 14 -45t45 -31.5t87 -28.5q58 -16 91 -33.5
t49 -45t16 -70.5q0 -91 -84 -139.5t-239 -48.5q-157 0 -231 64t-74 199q0 79 37 168q6 13 19 11q6 -2 8.5 -8t-0.5 -13q-10 -23 -22.5 -66t-12.5 -92q0 -119 66 -174.5t210 -55.5q142 0 219.5 39.5t77.5 114.5q0 34 -15 55t-46 35t-89 29q-84 22 -118 51.5t-34 81.5
q0 46 26.5 86.5t71 64.5t95.5 24q56 0 92 -21t57.5 -52t50.5 -86l17 -33q22 -44 36.5 -64.5t37.5 -31t64 -10.5q61 0 87 22.5t26 77.5v109q0 7 4 11t10 4q5 0 9 -4t4 -11v-109q0 -56 24.5 -78t87.5 -22q58 0 82.5 22.5t24.5 76.5v110q0 7 4 11t10 4t9.5 -4t3.5 -11v-110
q0 -37 13 -58.5t44.5 -31t86.5 -9.5zM1029.5 478.5q7.5 -7.5 7.5 -17.5q0 -9 -7.5 -16.5t-17.5 -7.5t-17.5 7.5t-7.5 16.5q0 10 7.5 17.5t17.5 7.5t17.5 -7.5zM980.5 400.5q7.5 -7.5 7.5 -17.5t-7.5 -17t-17.5 -7t-17.5 7t-7.5 17t7.5 17.5t17.5 7.5t17.5 -7.5z
M1077.5 400.5q7.5 -7.5 7.5 -17.5t-7.5 -17t-17.5 -7q-11 0 -18.5 7t-7.5 17t8 17.5t18 7.5t17.5 -7.5zM169 257q0 -9 -11 -12q-89 -11 -152 -17h-2q-14 0 -14 12v2q0 9 13 11l31 3q-26 16 -26 57q0 39 22.5 58.5t55.5 19.5q14 0 26.5 -4t17.5 -8q11 -7 10 -14q0 -6 -5 -8.5
t-11 -0.5q-22 9 -38 9q-56 0 -56 -53q0 -27 11.5 -38.5t34.5 -11.5q13 0 77 8h3q5 0 9 -3t4 -8v-2z" />
    <glyph glyph-name="uni06350632" unicode="&#xfebb;&#xfeb0;" horiz-adv-x="1210" 
d="M1066 369q44 -27 69 -77t25 -117q0 -65 -22 -103t-71 -55t-133 -17h-293q-83 0 -117.5 38.5t-34.5 126.5v20q-14 -33 -49.5 -49t-93.5 -16q-78 0 -105 40q5 -48 5 -98q0 -87 -26.5 -155.5t-74 -107t-108.5 -38.5q-28 0 -50.5 5t-32.5 11q-6 3 -9 9.5t0 12.5q5 11 20 7
q36 -12 71 -12q52 0 94 33t65.5 94t23.5 141q0 81 -18 164v5q0 13 11 16h2q10 0 15 -14q5 -26 15 -43t34 -27t68 -10q52 0 82.5 10.5t45.5 38.5t15 79q0 7 4 11t11 4q6 0 9.5 -4t3.5 -11v-112q0 -59 16.5 -89.5t54.5 -40.5q72 134 133 211.5t120 111.5t126 34q55 0 99 -27z
M1052.5 46.5q42.5 13.5 61.5 43.5t19 83q0 57 -22 100t-60 66t-86 23q-92 0 -174.5 -76.5t-173.5 -251.5q8 -1 25 -1h294q74 0 116.5 13.5zM193 353.5q-8 7.5 -8 18.5t8 18.5t19 7.5t18.5 -7.5t7.5 -18.5q0 -10 -7.5 -18t-18.5 -8t-19 7.5z" />
    <glyph glyph-name="uni06350632.fina" unicode="&#xfebc;&#xfeb0;" horiz-adv-x="1281" 
d="M1298 30v-27l-17 -3q-65 0 -100.5 15t-50.5 45q-25 -31 -72.5 -45.5t-123.5 -14.5h-293q-83 0 -117.5 38.5t-34.5 126.5v20q-14 -33 -49.5 -49t-93.5 -16q-78 0 -105 40q5 -48 5 -98q0 -87 -26.5 -155.5t-74 -107t-108.5 -38.5q-28 0 -50.5 5t-32.5 11q-6 3 -9 9.5
t0 12.5q5 11 20 7q36 -12 71 -12q52 0 94 33t65.5 94t23.5 141q0 81 -18 164v5q0 13 11 16h2q10 0 15 -14q5 -26 15 -43t34 -27t68 -10q52 0 82.5 10.5t45.5 38.5t15 79q0 7 4 11t11 4q6 0 9.5 -4t3.5 -11v-112q0 -59 16.5 -89.5t54.5 -40.5q72 134 133 211.5t120 111.5
t126 34q55 0 99 -27t69 -77t25 -117q0 -52 -15 -88q12 -28 43 -41t93 -13zM1052.5 46.5q42.5 13.5 61.5 43.5t19 83q0 57 -22 100t-60 66t-86 23q-92 0 -174.5 -76.5t-173.5 -251.5q8 -1 25 -1h294q74 0 116.5 13.5zM193 353.5q-8 7.5 -8 18.5t8 18.5t19 7.5t18.5 -7.5
t7.5 -18.5q0 -10 -7.5 -18t-18.5 -8t-19 7.5z" />
    <glyph glyph-name="uni06350626" unicode="&#xfebb;&#xfe8a;" horiz-adv-x="1430" 
d="M1286 369q44 -27 69 -77t25 -117q0 -65 -22 -103t-71.5 -55t-133.5 -17h-282q-42 0 -66 12t-37.5 33t-39.5 72l-20 39q-26 50 -47.5 79.5t-53 46.5t-77.5 17q-44 0 -83 -20t-62 -52t-23 -68q0 -27 14.5 -45t45.5 -31.5t88 -28.5q58 -16 91 -33.5t49 -45t16 -70.5
q0 -91 -84 -139.5t-239 -48.5q-157 0 -231 64t-74 199q0 79 37 168q6 13 19 11q6 -2 8.5 -8t-0.5 -13q-10 -23 -22.5 -66t-12.5 -92q0 -119 66 -174.5t210 -55.5q142 0 219.5 39.5t77.5 114.5q0 34 -15 55t-46 35t-89 29q-85 23 -119.5 52.5t-34.5 80.5q0 46 26.5 87
t71.5 65.5t97 24.5q56 0 92.5 -21t59 -52.5t50.5 -85.5l18 -35l11 -23q17 -33 26.5 -47.5t22.5 -23.5q71 131 131.5 207.5t119 110t125.5 33.5q55 0 99 -27zM1272.5 46.5q42.5 13.5 61.5 43.5t19 83q0 57 -22 100t-60 66t-86 23q-92 0 -174.5 -76.5t-173.5 -250.5
q20 -2 33 -2h285q75 0 117.5 13.5zM169 257q0 -9 -11 -12q-89 -11 -152 -17h-2q-14 0 -14 12v2q0 9 13 11l31 3q-26 16 -26 57q0 39 22.5 58.5t55.5 19.5q14 0 26.5 -4t17.5 -8q11 -7 10 -14q0 -6 -5 -8.5t-11 -0.5q-22 9 -38 9q-56 0 -56 -53q0 -27 11.5 -38.5t34.5 -11.5
q13 0 77 8h3q5 0 9 -3t4 -8v-2z" />
    <glyph glyph-name="uni06350626.fina" unicode="&#xfebc;&#xfe8a;" horiz-adv-x="1502" 
d="M1519 30v-27l-17 -3q-66 0 -101.5 15t-50.5 46q-25 -32 -72.5 -46.5t-124.5 -14.5h-282q-42 0 -66 12t-37.5 33t-39.5 72l-20 39q-26 50 -47.5 79.5t-53 46.5t-77.5 17q-44 0 -83 -20t-62 -52t-23 -68q0 -27 14.5 -45t45.5 -31.5t88 -28.5q58 -16 91 -33.5t49 -45
t16 -70.5q0 -91 -84 -139.5t-239 -48.5q-157 0 -231 64t-74 199q0 79 37 168q6 13 19 11q6 -2 8.5 -8t-0.5 -13q-10 -23 -22.5 -66t-12.5 -92q0 -119 66 -174.5t210 -55.5q142 0 219.5 39.5t77.5 114.5q0 34 -15 55t-46 35t-89 29q-85 23 -119.5 52.5t-34.5 80.5
q0 46 26.5 87t71.5 65.5t97 24.5q56 0 92.5 -21t59 -52.5t50.5 -85.5l18 -35l11 -23q17 -33 26.5 -47.5t22.5 -23.5q71 131 131.5 207.5t119 110t125.5 33.5q55 0 99 -27t69 -77t25 -117q0 -53 -14 -87q12 -28 43 -41.5t93 -13.5zM1272.5 46.5q42.5 13.5 61.5 43.5t19 83
q0 57 -22 100t-60 66t-86 23q-92 0 -174.5 -76.5t-173.5 -250.5q20 -2 33 -2h285q75 0 117.5 13.5zM169 257q0 -9 -11 -12q-89 -11 -152 -17h-2q-14 0 -14 12v2q0 9 13 11l31 3q-26 16 -26 57q0 39 22.5 58.5t55.5 19.5q14 0 26.5 -4t17.5 -8q11 -7 10 -14q0 -6 -5 -8.5
t-11 -0.5q-22 9 -38 9q-56 0 -56 -53q0 -27 11.5 -38.5t34.5 -11.5q13 0 77 8h3q5 0 9 -3t4 -8v-2z" />
    <glyph glyph-name="uni06360632" unicode="&#xfebf;&#xfeb0;" horiz-adv-x="1210" 
d="M1066 369q44 -27 69 -77t25 -117q0 -65 -22 -103t-71 -55t-133 -17h-293q-83 0 -117.5 38.5t-34.5 126.5v20q-14 -33 -49.5 -49t-93.5 -16q-78 0 -105 40q5 -48 5 -98q0 -87 -26.5 -155.5t-74 -107t-108.5 -38.5q-28 0 -50.5 5t-32.5 11q-6 3 -9 9.5t0 12.5q5 11 20 7
q36 -12 71 -12q52 0 94 33t65.5 94t23.5 141q0 81 -18 164v5q0 13 11 16h2q10 0 15 -14q5 -26 15 -43t34 -27t68 -10q52 0 82.5 10.5t45.5 38.5t15 79q0 7 4 11t11 4q6 0 9.5 -4t3.5 -11v-112q0 -59 16.5 -89.5t54.5 -40.5q72 134 133 211.5t120 111.5t126 34q55 0 99 -27z
M1052.5 46.5q42.5 13.5 61.5 43.5t19 83q0 57 -22 100t-60 66t-86 23q-92 0 -174.5 -76.5t-173.5 -251.5q8 -1 25 -1h294q74 0 116.5 13.5zM932 506.5q-8 7.5 -8 18.5t8 18.5t19 7.5t18.5 -7.5t7.5 -18.5q0 -10 -7.5 -18t-18.5 -8t-19 7.5zM193 353.5q-8 7.5 -8 18.5t8 18.5
t19 7.5t18.5 -7.5t7.5 -18.5q0 -10 -7.5 -18t-18.5 -8t-19 7.5z" />
    <glyph glyph-name="uni06360632.fina" unicode="&#xfec0;&#xfeb0;" horiz-adv-x="1281" 
d="M1298 30v-27l-17 -3q-65 0 -100.5 15t-50.5 45q-25 -31 -72.5 -45.5t-123.5 -14.5h-293q-83 0 -117.5 38.5t-34.5 126.5v20q-14 -33 -49.5 -49t-93.5 -16q-78 0 -105 40q5 -48 5 -98q0 -87 -26.5 -155.5t-74 -107t-108.5 -38.5q-28 0 -50.5 5t-32.5 11q-6 3 -9 9.5
t0 12.5q5 11 20 7q36 -12 71 -12q52 0 94 33t65.5 94t23.5 141q0 81 -18 164v5q0 13 11 16h2q10 0 15 -14q5 -26 15 -43t34 -27t68 -10q52 0 82.5 10.5t45.5 38.5t15 79q0 7 4 11t11 4q6 0 9.5 -4t3.5 -11v-112q0 -59 16.5 -89.5t54.5 -40.5q72 134 133 211.5t120 111.5
t126 34q55 0 99 -27t69 -77t25 -117q0 -52 -15 -88q12 -28 43 -41t93 -13zM1052.5 46.5q42.5 13.5 61.5 43.5t19 83q0 57 -22 100t-60 66t-86 23q-92 0 -174.5 -76.5t-173.5 -251.5q8 -1 25 -1h294q74 0 116.5 13.5zM932 506.5q-8 7.5 -8 18.5t8 18.5t19 7.5t18.5 -7.5
t7.5 -18.5q0 -10 -7.5 -18t-18.5 -8t-19 7.5zM193 353.5q-8 7.5 -8 18.5t8 18.5t19 7.5t18.5 -7.5t7.5 -18.5q0 -10 -7.5 -18t-18.5 -8t-19 7.5z" />
    <glyph glyph-name="uni06360626" unicode="&#xfebf;&#xfe8a;" horiz-adv-x="1430" 
d="M1286 369q44 -27 69 -77t25 -117q0 -65 -22 -103t-71.5 -55t-133.5 -17h-282q-42 0 -66 12t-37.5 33t-39.5 72l-20 39q-26 50 -47.5 79.5t-53 46.5t-77.5 17q-44 0 -83 -20t-62 -52t-23 -68q0 -27 14.5 -45t45.5 -31.5t88 -28.5q58 -16 91 -33.5t49 -45t16 -70.5
q0 -91 -84 -139.5t-239 -48.5q-157 0 -231 64t-74 199q0 79 37 168q6 13 19 11q6 -2 8.5 -8t-0.5 -13q-10 -23 -22.5 -66t-12.5 -92q0 -119 66 -174.5t210 -55.5q142 0 219.5 39.5t77.5 114.5q0 34 -15 55t-46 35t-89 29q-85 23 -119.5 52.5t-34.5 80.5q0 46 26.5 87
t71.5 65.5t97 24.5q56 0 92.5 -21t59 -52.5t50.5 -85.5l18 -35l11 -23q17 -33 26.5 -47.5t22.5 -23.5q71 131 131.5 207.5t119 110t125.5 33.5q55 0 99 -27zM1272.5 46.5q42.5 13.5 61.5 43.5t19 83q0 57 -22 100t-60 66t-86 23q-92 0 -174.5 -76.5t-173.5 -250.5
q20 -2 33 -2h285q75 0 117.5 13.5zM169 257q0 -9 -11 -12q-89 -11 -152 -17h-2q-14 0 -14 12v2q0 9 13 11l31 3q-26 16 -26 57q0 39 22.5 58.5t55.5 19.5q14 0 26.5 -4t17.5 -8q11 -7 10 -14q0 -6 -5 -8.5t-11 -0.5q-22 9 -38 9q-56 0 -56 -53q0 -27 11.5 -38.5t34.5 -11.5
q13 0 77 8h3q5 0 9 -3t4 -8v-2zM1168 506.5q-8 7.5 -8 18.5t8 18.5t19 7.5t18.5 -7.5t7.5 -18.5q0 -10 -7.5 -18t-18.5 -8t-19 7.5z" />
    <glyph glyph-name="uni06360626.fina" unicode="&#xfec0;&#xfe8a;" horiz-adv-x="1502" 
d="M1519 30v-27l-17 -3q-66 0 -101.5 15t-50.5 46q-25 -32 -72.5 -46.5t-124.5 -14.5h-282q-42 0 -66 12t-37.5 33t-39.5 72l-20 39q-26 50 -47.5 79.5t-53 46.5t-77.5 17q-44 0 -83 -20t-62 -52t-23 -68q0 -27 14.5 -45t45.5 -31.5t88 -28.5q58 -16 91 -33.5t49 -45
t16 -70.5q0 -91 -84 -139.5t-239 -48.5q-157 0 -231 64t-74 199q0 79 37 168q6 13 19 11q6 -2 8.5 -8t-0.5 -13q-10 -23 -22.5 -66t-12.5 -92q0 -119 66 -174.5t210 -55.5q142 0 219.5 39.5t77.5 114.5q0 34 -15 55t-46 35t-89 29q-85 23 -119.5 52.5t-34.5 80.5
q0 46 26.5 87t71.5 65.5t97 24.5q56 0 92.5 -21t59 -52.5t50.5 -85.5l18 -35l11 -23q17 -33 26.5 -47.5t22.5 -23.5q71 131 131.5 207.5t119 110t125.5 33.5q55 0 99 -27t69 -77t25 -117q0 -53 -14 -87q12 -28 43 -41.5t93 -13.5zM1272.5 46.5q42.5 13.5 61.5 43.5t19 83
q0 57 -22 100t-60 66t-86 23q-92 0 -174.5 -76.5t-173.5 -250.5q20 -2 33 -2h285q75 0 117.5 13.5zM169 257q0 -9 -11 -12q-89 -11 -152 -17h-2q-14 0 -14 12v2q0 9 13 11l31 3q-26 16 -26 57q0 39 22.5 58.5t55.5 19.5q14 0 26.5 -4t17.5 -8q11 -7 10 -14q0 -6 -5 -8.5
t-11 -0.5q-22 9 -38 9q-56 0 -56 -53q0 -27 11.5 -38.5t34.5 -11.5q13 0 77 8h3q5 0 9 -3t4 -8v-2zM1168 506.5q-8 7.5 -8 18.5t8 18.5t19 7.5t18.5 -7.5t7.5 -18.5q0 -10 -7.5 -18t-18.5 -8t-19 7.5z" />
    <glyph glyph-name="uni06410626" unicode="&#xfed3;&#xfe8a;" horiz-adv-x="794" 
d="M702.5 421q41.5 -59 41.5 -157v-48q0 -73 -16.5 -117t-58 -67.5t-116.5 -27.5q79 -32 79 -107q0 -84 -80 -132t-222 -48q-150 0 -221 59.5t-71 184.5q0 55 12.5 102t23.5 70q5 12 15 12q6 0 10 -3.5t4 -9.5l-2 -8q-1 -2 -17.5 -46t-16.5 -117q0 -109 63.5 -160t201.5 -51
q129 0 201.5 39t72.5 108q0 48 -43.5 71t-129.5 36q-16 3 -16 18q0 6 5.5 11t13.5 4q31 -4 80 -4q76 0 119 14.5t63 51t20 103.5v22q-15 -28 -52 -43t-91 -15q-78 0 -112.5 32t-34.5 101q0 52 20.5 93t56.5 64.5t80 23.5q76 0 117.5 -59zM718 250v17q-1 80 -35.5 129.5
t-97.5 49.5q-57 0 -94 -41t-37 -106q0 -54 28 -77.5t96 -23.5q110 0 140 52zM168 247q0 -9 -11 -12q-89 -11 -152 -17h-2q-14 0 -14 12v2q0 9 13 11l31 3q-26 16 -26 57q0 39 22.5 58.5t55.5 19.5q14 0 26.5 -4t17.5 -8q11 -7 10 -14q0 -6 -5 -8.5t-11 -0.5q-22 9 -38 9
q-56 0 -56 -53q0 -27 11.5 -38.5t34.5 -11.5q13 0 77 8h3q5 0 9 -3t4 -8v-2zM566 598.5q-8 7.5 -8 18.5t8 18.5t19 7.5t18.5 -7.5t7.5 -18.5q0 -10 -7.5 -18t-18.5 -8t-19 7.5z" />
    <glyph glyph-name="uni06420626" unicode="&#xfed7;&#xfe8a;" horiz-adv-x="794" 
d="M702.5 421q41.5 -59 41.5 -157v-48q0 -73 -16.5 -117t-58 -67.5t-116.5 -27.5q79 -32 79 -107q0 -84 -80 -132t-222 -48q-150 0 -221 59.5t-71 184.5q0 55 12.5 102t23.5 70q5 12 15 12q6 0 10 -3.5t4 -9.5l-2 -8q-1 -2 -17.5 -46t-16.5 -117q0 -109 63.5 -160t201.5 -51
q129 0 201.5 39t72.5 108q0 48 -43.5 71t-129.5 36q-16 3 -16 18q0 6 5.5 11t13.5 4q31 -4 80 -4q76 0 119 14.5t63 51t20 103.5v22q-15 -28 -52 -43t-91 -15q-78 0 -112.5 32t-34.5 101q0 52 20.5 93t56.5 64.5t80 23.5q76 0 117.5 -59zM718 250v17q-1 80 -35.5 129.5
t-97.5 49.5q-57 0 -94 -41t-37 -106q0 -54 28 -77.5t96 -23.5q110 0 140 52zM518.5 596.5q-7.5 7.5 -7.5 17.5t7.5 17.5t17.5 7.5t17.5 -7.5t7.5 -17.5t-7.5 -17.5t-17.5 -7.5t-17.5 7.5zM615 596.5q-8 7.5 -8 17.5t8 17.5t18 7.5t17.5 -7.5t7.5 -17.5t-7.5 -17.5
t-17.5 -7.5t-18 7.5zM168 247q0 -9 -11 -12q-89 -11 -152 -17h-2q-14 0 -14 12v2q0 9 13 11l31 3q-26 16 -26 57q0 39 22.5 58.5t55.5 19.5q14 0 26.5 -4t17.5 -8q11 -7 10 -14q0 -6 -5 -8.5t-11 -0.5q-22 9 -38 9q-56 0 -56 -53q0 -27 11.5 -38.5t34.5 -11.5q13 0 77 8h3
q5 0 9 -3t4 -8v-2z" />
    <glyph glyph-name="uni06430626" unicode="&#xfedb;&#xfe8a;" horiz-adv-x="822" 
d="M816 697q0 -8 -10 -15l-358 -238q121 -55 186.5 -98t94 -86.5t28.5 -99.5q0 -78 -55 -115.5t-140 -41.5q70 -33 70 -106q0 -84 -80 -132t-222 -48q-150 0 -221 59.5t-71 184.5q0 55 12.5 102t23.5 70q5 12 15 12q6 0 10 -3.5t4 -9.5l-2 -8q-1 -2 -17.5 -46t-16.5 -117
q0 -109 63.5 -160t201.5 -51q129 0 201.5 39t72.5 108q0 50 -36 73t-113 37q-7 1 -12 6t-5 11q1 7 6 12t13 4q33 -7 79 -7q76 0 134 26.5t58 97.5q0 47 -25 85.5t-88.5 79.5t-180.5 94q-21 9 -21 26q0 14 12 22l364 243q5 4 11 4q8 0 12 -7q2 -4 2 -7zM163 237q0 -9 -11 -12
q-89 -11 -152 -17h-2q-14 0 -14 12v2q0 9 13 11l31 3q-26 16 -26 57q0 39 22.5 58.5t55.5 19.5q14 0 26.5 -4t17.5 -8q11 -7 10 -14q0 -6 -5 -8.5t-11 -0.5q-22 9 -38 9q-56 0 -56 -53q0 -27 11.5 -38.5t34.5 -11.5q13 0 77 8h3q5 0 9 -3t4 -8v-2z" />
    <glyph glyph-name="uni06430626.fina" unicode="&#xfedc;&#xfe8a;" horiz-adv-x="1008" 
d="M1025 30v-27l-17 -3q-47 0 -78.5 10t-58.5 34t-61 69q-19 -56 -67.5 -84.5t-152.5 -28.5h-24q66 -33 66 -103q0 -84 -80 -132t-222 -48q-150 0 -221 59.5t-71 184.5q0 55 12.5 102t23.5 70q5 12 15 12q6 0 10 -3.5t4 -9.5l-2 -8q-1 -2 -17.5 -46t-16.5 -117
q0 -109 63.5 -160t201.5 -51q129 0 201.5 39t72.5 108q0 49 -35.5 72t-112.5 38q-7 1 -11.5 6t-4.5 11q0 7 5 12t13 4q34 -7 129 -7q71 0 112.5 12.5t61 33.5t30.5 53q-144 203 -212 294q-10 13 -10 27t18 25l354 229q5 4 11 4q8 0 12 -7q2 -4 2 -7q0 -8 -10 -15l-358 -232
l142 -195l72 -100q39 -53 66 -78.5t55.5 -34.5t72.5 -9zM169 251q0 -9 -11 -12q-89 -11 -152 -17h-2q-14 0 -14 12v2q0 9 13 11l31 3q-26 16 -26 57q0 39 22.5 58.5t55.5 19.5q14 0 26.5 -4t17.5 -8q11 -7 10 -14q0 -6 -5 -8.5t-11 -0.5q-22 9 -38 9q-56 0 -56 -53
q0 -27 11.5 -38.5t34.5 -11.5q13 0 77 8h3q5 0 9 -3t4 -8v-2z" />
    <glyph glyph-name="uni06440626" unicode="&#xfedf;&#xfe8a;" horiz-adv-x="792" 
d="M697 693v-479q0 -69 -9.5 -111.5t-38.5 -68t-88 -31.5q71 -31 71 -106q0 -84 -80 -132t-222 -48q-150 0 -221 59t-71 184q0 52 13 101.5t23 70.5q6 14 18 11q10 -2 10 -11l-2 -8q-1 -2 -9 -24.5t-16 -63t-8 -75.5q0 -109 63.5 -160t201.5 -51q129 0 201.5 39t72.5 108
q0 50 -36 73t-113 37q-7 1 -12 6t-5 11q1 7 6 12t13 4q30 -7 71 -7q64 0 93.5 20.5t36.5 55t7 97.5v487q0 17 15 17t15 -17zM163 237q0 -9 -11 -12q-89 -11 -152 -17h-2q-14 0 -14 12v2q0 9 13 11l31 3q-26 16 -26 57q0 39 22.5 58.5t55.5 19.5q14 0 26.5 -4t17.5 -8
q11 -7 10 -14q0 -6 -5 -8.5t-11 -0.5q-22 9 -38 9q-56 0 -56 -53q0 -27 11.5 -38.5t34.5 -11.5q13 0 77 8h3q5 0 9 -3t4 -8v-2z" />
    <glyph glyph-name="uni06440626.fina" unicode="&#xfee0;&#xfe8a;" horiz-adv-x="845" 
d="M862 30v-27l-17 -3q-73 0 -111 19.5t-51 67.5q-12 -37 -41 -58t-81 -26q71 -31 71 -106q0 -84 -80 -132t-222 -48q-150 0 -221 59t-71 184q0 52 13 101.5t23 70.5q6 14 18 11q10 -2 10 -11l-2 -8q-1 -2 -9 -24.5t-16 -63t-8 -75.5q0 -109 63.5 -160t201.5 -51
q129 0 201.5 39t72.5 108q0 50 -36 73t-113 37q-7 1 -12 6t-5 11q1 7 6 12t13 4q30 -7 71 -7q64 0 93.5 20.5t36.5 55t7 97.5v487q0 17 15 17t15 -17v-479q0 -32 -1 -46q1 -55 15.5 -84t45.5 -40t88 -11zM163 237q0 -9 -11 -12q-89 -11 -152 -17h-2q-14 0 -14 12v2
q0 9 13 11l31 3q-26 16 -26 57q0 39 22.5 58.5t55.5 19.5q14 0 26.5 -4t17.5 -8q11 -7 10 -14q0 -6 -5 -8.5t-11 -0.5q-22 9 -38 9q-56 0 -56 -53q0 -27 11.5 -38.5t34.5 -11.5q13 0 77 8h3q5 0 9 -3t4 -8v-2z" />
    <glyph glyph-name="uni06460626" unicode="&#xfee7;&#xfe8a;" horiz-adv-x="762" 
d="M673 55.5q-39 -46.5 -112 -52.5q71 -31 71 -106q0 -84 -80 -132t-222 -48q-150 0 -221 59.5t-71 184.5q0 55 12.5 102t22.5 69q6 14 18 11q7 -1 9 -6.5t0 -13.5q-1 -2 -9 -24.5t-16 -62t-8 -75.5q0 -109 63.5 -160t201.5 -51q129 0 201.5 39t72.5 108q0 49 -37 72
t-113 38q-7 1 -11.5 6t-4.5 11q1 7 6 11.5t13 3.5q34 -6 77 -6q78 0 113 39.5t35 125.5q0 62 -13 130v2q0 8 4 12t10 4q13 0 14 -15q13 -59 13 -133q0 -96 -39 -142.5zM666 456.5q-8 7.5 -8 18.5t8 18.5t19 7.5t18.5 -7.5t7.5 -18.5q0 -10 -7.5 -18t-18.5 -8t-19 7.5z
M168 247q0 -9 -11 -12q-89 -11 -152 -17h-2q-14 0 -14 12v2q0 9 13 11l31 3q-26 16 -26 57q0 39 22.5 58.5t55.5 19.5q14 0 26.5 -4t17.5 -8q11 -7 10 -14q0 -6 -5 -8.5t-11 -0.5q-22 9 -38 9q-56 0 -56 -53q0 -27 11.5 -38.5t34.5 -11.5q13 0 77 8h3q5 0 9 -3t4 -8v-2z" />
    <glyph glyph-name="uni06460626.fina" unicode="&#xfee8;&#xfe8a;" horiz-adv-x="885" 
d="M74 146q6 14 19 11q6 -1 8 -6t0 -13q-1 -2 -17.5 -46t-16.5 -112q0 -119 66 -174.5t210 -55.5q142 0 219.5 39.5t77.5 114.5q0 34 -15 55t-46 35t-89 29q-84 22 -118 51.5t-34 81.5q0 46 26.5 86.5t71 64.5t95.5 24q56 0 92.5 -21t58.5 -52.5t49 -85.5l17 -33
q22 -43 37.5 -64t38.5 -31.5t61 -10.5l17 -3v-27l-17 -3q-45 0 -73 12.5t-46.5 36.5t-40.5 68l-19 37q-25 50 -46 79.5t-52.5 46.5t-77.5 17q-44 0 -82 -19.5t-61 -51.5t-23 -67q0 -27 14 -45t45 -31.5t87 -28.5q58 -16 91 -33.5t49 -45t16 -70.5q0 -91 -84 -139.5
t-239 -48.5q-157 0 -231 64t-74 199q0 76 36 166zM513 441.5q-8 7.5 -8 18.5t8 18.5t19 7.5t18.5 -7.5t7.5 -18.5q0 -10 -7.5 -18t-18.5 -8t-19 7.5zM169 257q0 -9 -11 -12q-89 -11 -152 -17h-2q-14 0 -14 12v2q0 9 13 11l31 3q-26 16 -26 57q0 39 22.5 58.5t55.5 19.5
q14 0 26.5 -4t17.5 -8q11 -7 10 -14q0 -6 -5 -8.5t-11 -0.5q-22 9 -38 9q-56 0 -56 -53q0 -27 11.5 -38.5t34.5 -11.5q13 0 77 8h3q5 0 9 -3t4 -8v-2z" />
    <glyph glyph-name="uni06490631.fina" unicode="&#xfbe9;&#xfeae;" horiz-adv-x="665" 
d="M682 30v-27l-17 -3q-95 0 -135.5 38.5t-40.5 126.5v19q-14 -33 -49 -48.5t-94 -15.5q-78 0 -105 40q5 -48 5 -98q0 -87 -26.5 -155.5t-74 -107t-108.5 -38.5q-28 0 -50.5 5t-32.5 11q-6 3 -9 9.5t0 12.5q5 11 20 7q36 -12 71 -12q52 0 94 33t65.5 94t23.5 141
q0 81 -18 164v5q0 13 11 16h2q10 0 15 -14q5 -26 15 -43t34 -27t68 -10q52 0 82.5 10.5t45.5 38t15 78.5q0 6 3.5 10t10.5 4q6 0 9.5 -4t3.5 -10v-109q0 -52 14 -81.5t46.5 -43t88.5 -13.5z" />
    <glyph glyph-name="uni06490632.fina" unicode="&#xfbe9;&#xfeb0;" horiz-adv-x="665" 
d="M682 30v-27l-17 -3q-95 0 -135.5 38.5t-40.5 126.5v19q-14 -33 -49 -48.5t-94 -15.5q-78 0 -105 40q5 -48 5 -98q0 -87 -26.5 -155.5t-74 -107t-108.5 -38.5q-28 0 -50.5 5t-32.5 11q-6 3 -9 9.5t0 12.5q5 11 20 7q36 -12 71 -12q52 0 94 33t65.5 94t23.5 141
q0 81 -18 164v5q0 13 11 16h2q10 0 15 -14q5 -26 15 -43t34 -27t68 -10q52 0 82.5 10.5t45.5 38t15 78.5q0 6 3.5 10t10.5 4q6 0 9.5 -4t3.5 -10v-109q0 -52 14 -81.5t46.5 -43t88.5 -13.5zM195 351.5q-8 7.5 -8 18.5t8 18.5t19 7.5t18.5 -7.5t7.5 -18.5q0 -10 -7.5 -18
t-18.5 -8t-19 7.5z" />
    <glyph glyph-name="uni06490646.fina" unicode="&#xfbe9;&#xfee6;" horiz-adv-x="1008" 
d="M1025 30v-27l-17 -3q-95 0 -135.5 38.5t-40.5 126.5v19q-14 -33 -49 -48.5t-94 -15.5q-41 0 -66 10t-39 29q9 -64 9 -118q0 -95 -28 -153.5t-90 -86t-166 -27.5q-100 0 -159 25.5t-85.5 80t-26.5 143.5q0 63 13.5 109t25.5 70q2 6 7.5 9t11.5 1q9 -3 9 -13l-2 -8
q-36 -81 -36 -168q0 -79 23.5 -126t76.5 -68.5t143 -21.5q93 0 148.5 22.5t81 71.5t25.5 130q0 86 -21 198v4q0 6 3.5 10.5t9.5 4.5q12 0 15 -13q5 -27 15 -44t34 -27.5t68 -10.5q52 0 82.5 10.5t45.5 38t15 78.5q0 6 3.5 10t10.5 4q6 0 9.5 -4t3.5 -10v-109q0 -52 14 -81.5
t46.5 -43t88.5 -13.5z" />
    <glyph glyph-name="uni06490649" unicode="&#xfbe8;&#xfef0;" horiz-adv-x="762" 
d="M673 55.5q-39 -46.5 -112 -52.5q71 -31 71 -106q0 -84 -80 -132t-222 -48q-150 0 -221 59.5t-71 184.5q0 55 12.5 102t22.5 69q6 14 18 11q7 -1 9 -6.5t0 -13.5q-1 -2 -9 -24.5t-16 -62t-8 -75.5q0 -109 63.5 -160t201.5 -51q129 0 201.5 39t72.5 108q0 49 -37 72
t-113 38q-7 1 -11.5 6t-4.5 11q1 7 6 11.5t13 3.5q34 -6 77 -6q78 0 113 39.5t35 125.5q0 62 -13 130v2q0 8 4 12t10 4q13 0 14 -15q13 -59 13 -133q0 -96 -39 -142.5z" />
    <glyph glyph-name="uni06490649.fina" unicode="&#xfbe9;&#xfef0;" horiz-adv-x="885" 
d="M74 146q6 14 19 11q6 -1 8 -6t0 -13q-1 -2 -17.5 -46t-16.5 -112q0 -119 66 -174.5t210 -55.5q142 0 219.5 39.5t77.5 114.5q0 34 -15 55t-46 35t-89 29q-84 22 -118 51.5t-34 81.5q0 46 26.5 86.5t71 64.5t95.5 24q56 0 92.5 -21t58.5 -52.5t49 -85.5l17 -33
q22 -43 37.5 -64t38.5 -31.5t61 -10.5l17 -3v-27l-17 -3q-45 0 -73 12.5t-46.5 36.5t-40.5 68l-19 37q-25 50 -46 79.5t-52.5 46.5t-77.5 17q-44 0 -82 -19.5t-61 -51.5t-23 -67q0 -27 14 -45t45 -31.5t87 -28.5q58 -16 91 -33.5t49 -45t16 -70.5q0 -91 -84 -139.5
t-239 -48.5q-157 0 -231 64t-74 199q0 76 36 166z" />
    <glyph glyph-name="uni064A0626" unicode="&#xfef3;&#xfe8a;" horiz-adv-x="885" 
d="M74 146q6 14 19 11q6 -1 8 -6t0 -13q-1 -2 -17.5 -46t-16.5 -112q0 -119 66 -174.5t210 -55.5q142 0 219.5 39.5t77.5 114.5q0 34 -15 55t-46 35t-89 29q-84 22 -118 51.5t-34 81.5q0 46 26.5 86.5t71 64.5t95.5 24q56 0 92.5 -21t58.5 -52.5t49 -85.5l17 -33
q22 -43 37.5 -64t38.5 -31.5t61 -10.5l17 -3v-27l-17 -3q-45 0 -73 12.5t-46.5 36.5t-40.5 68l-19 37q-25 50 -46 79.5t-52.5 46.5t-77.5 17q-44 0 -82 -19.5t-61 -51.5t-23 -67q0 -27 14 -45t45 -31.5t87 -28.5q58 -16 91 -33.5t49 -45t16 -70.5q0 -91 -84 -139.5
t-239 -48.5q-157 0 -231 64t-74 199q0 76 36 166zM725.5 -153.5q-7.5 7.5 -7.5 17.5t7.5 17.5t17.5 7.5t17.5 -7.5t7.5 -17.5t-7.5 -17.5t-17.5 -7.5t-17.5 7.5zM822 -153.5q-8 7.5 -8 17.5t8 17.5t18 7.5t17.5 -7.5t7.5 -17.5t-7.5 -17.5t-17.5 -7.5t-18 7.5zM169 257
q0 -9 -11 -12q-89 -11 -152 -17h-2q-14 0 -14 12v2q0 9 13 11l31 3q-26 16 -26 57q0 39 22.5 58.5t55.5 19.5q14 0 26.5 -4t17.5 -8q11 -7 10 -14q0 -6 -5 -8.5t-11 -0.5q-22 9 -38 9q-56 0 -56 -53q0 -27 11.5 -38.5t34.5 -11.5q13 0 77 8h3q5 0 9 -3t4 -8v-2z" />
    <glyph glyph-name="uni064A0626.fina" unicode="&#xfef4;&#xfe8a;" horiz-adv-x="762" 
d="M673 55.5q-39 -46.5 -112 -52.5q71 -31 71 -106q0 -84 -80 -132t-222 -48q-150 0 -221 59.5t-71 184.5q0 55 12.5 102t22.5 69q6 14 18 11q7 -1 9 -6.5t0 -13.5q-1 -2 -9 -24.5t-16 -62t-8 -75.5q0 -109 63.5 -160t201.5 -51q129 0 201.5 39t72.5 108q0 49 -37 72
t-113 38q-7 1 -11.5 6t-4.5 11q1 7 6 11.5t13 3.5q34 -6 77 -6q78 0 113 39.5t35 125.5q0 62 -13 130v2q0 8 4 12t10 4q13 0 14 -15q13 -59 13 -133q0 -96 -39 -142.5zM582.5 -358.5q-7.5 7.5 -7.5 17.5t7.5 17.5t17.5 7.5t17.5 -7.5t7.5 -17.5t-7.5 -17.5t-17.5 -7.5
t-17.5 7.5zM679 -358.5q-8 7.5 -8 17.5t8 17.5t18 7.5t17.5 -7.5t7.5 -17.5t-7.5 -17.5t-17.5 -7.5t-18 7.5zM168 247q0 -9 -11 -12q-89 -11 -152 -17h-2q-14 0 -14 12v2q0 9 13 11l31 3q-26 16 -26 57q0 39 22.5 58.5t55.5 19.5q14 0 26.5 -4t17.5 -8q11 -7 10 -14
q0 -6 -5 -8.5t-11 -0.5q-22 9 -38 9q-56 0 -56 -53q0 -27 11.5 -38.5t34.5 -11.5q13 0 77 8h3q5 0 9 -3t4 -8v-2z" />
    <glyph glyph-name="uni06260626" unicode="&#xfe8b;&#xfe8a;" horiz-adv-x="762" 
d="M673 55.5q-39 -46.5 -112 -52.5q71 -31 71 -106q0 -84 -80 -132t-222 -48q-150 0 -221 59.5t-71 184.5q0 55 12.5 102t22.5 69q6 14 18 11q7 -1 9 -6.5t0 -13.5q-1 -2 -9 -24.5t-16 -62t-8 -75.5q0 -109 63.5 -160t201.5 -51q129 0 201.5 39t72.5 108q0 49 -37 72
t-113 38q-7 1 -11.5 6t-4.5 11q1 7 6 11.5t13 3.5q34 -6 77 -6q78 0 113 39.5t35 125.5q0 62 -13 130v2q0 8 4 12t10 4q13 0 14 -15q13 -59 13 -133q0 -96 -39 -142.5zM168 247q0 -9 -11 -12q-89 -11 -152 -17h-2q-14 0 -14 12v2q0 9 13 11l31 3q-26 16 -26 57
q0 39 22.5 58.5t55.5 19.5q14 0 26.5 -4t17.5 -8q11 -7 10 -14q0 -6 -5 -8.5t-11 -0.5q-22 9 -38 9q-56 0 -56 -53q0 -27 11.5 -38.5t34.5 -11.5q13 0 77 8h3q5 0 9 -3t4 -8v-2zM763 450q0 -9 -11 -12q-89 -11 -152 -17h-2q-14 0 -14 12v2q0 9 13 11l31 3q-26 16 -26 57
q0 39 22.5 58.5t55.5 19.5q14 0 26.5 -4t17.5 -8q11 -7 10 -14q0 -6 -5 -8.5t-11 -0.5q-22 9 -38 9q-56 0 -56 -53q0 -27 11.5 -38.5t34.5 -11.5q13 0 77 8h3q5 0 9 -3t4 -8v-2z" />
    <glyph glyph-name="uni06260626.fina" unicode="&#xfe8c;&#xfe8a;" horiz-adv-x="885" 
d="M74 146q6 14 19 11q6 -1 8 -6t0 -13q-1 -2 -17.5 -46t-16.5 -112q0 -119 66 -174.5t210 -55.5q142 0 219.5 39.5t77.5 114.5q0 34 -15 55t-46 35t-89 29q-84 22 -118 51.5t-34 81.5q0 46 26.5 86.5t71 64.5t95.5 24q56 0 92.5 -21t58.5 -52.5t49 -85.5l17 -33
q22 -43 37.5 -64t38.5 -31.5t61 -10.5l17 -3v-27l-17 -3q-45 0 -73 12.5t-46.5 36.5t-40.5 68l-19 37q-25 50 -46 79.5t-52.5 46.5t-77.5 17q-44 0 -82 -19.5t-61 -51.5t-23 -67q0 -27 14 -45t45 -31.5t87 -28.5q58 -16 91 -33.5t49 -45t16 -70.5q0 -91 -84 -139.5
t-239 -48.5q-157 0 -231 64t-74 199q0 76 36 166zM610 435q0 -9 -11 -12q-89 -11 -152 -17h-2q-14 0 -14 12v2q0 9 13 11l31 3q-26 16 -26 57q0 39 22.5 58.5t55.5 19.5q14 0 26.5 -4t17.5 -8q11 -7 10 -14q0 -6 -5 -8.5t-11 -0.5q-22 9 -38 9q-56 0 -56 -53
q0 -27 11.5 -38.5t34.5 -11.5q13 0 77 8h3q5 0 9 -3t4 -8v-2zM169 257q0 -9 -11 -12q-89 -11 -152 -17h-2q-14 0 -14 12v2q0 9 13 11l31 3q-26 16 -26 57q0 39 22.5 58.5t55.5 19.5q14 0 26.5 -4t17.5 -8q11 -7 10 -14q0 -6 -5 -8.5t-11 -0.5q-22 9 -38 9q-56 0 -56 -53
q0 -27 11.5 -38.5t34.5 -11.5q13 0 77 8h3q5 0 9 -3t4 -8v-2z" />
    <glyph glyph-name="uni066E.init" unicode="&#x66e;" horiz-adv-x="229" 
d="M-17 3v27l17 3q80 0 116 40t36 127q0 66 -13 128l-1 5q0 6 4 9.5t10 3.5q13 0 14 -15q13 -57 13 -131q0 -106 -46.5 -153t-132.5 -47z" />
    <glyph glyph-name="uni066E.medi" unicode="&#x66e;" horiz-adv-x="329" 
d="M346 30v-27l-17 -3q-77 0 -115 21t-48 73q-11 -52 -50.5 -73t-115.5 -21l-16 3l-1 27l17 3q58 0 90.5 11.5t47.5 42t15 87.5v102q0 7 4 11t10 4t10 -4t4 -11v-103q0 -57 14 -87t45.5 -41.5t88.5 -11.5z" />
    <glyph glyph-name="uni066E.fina" unicode="&#x66e;" horiz-adv-x="918" 
d="M935 30v-27l-17 -3q-78 0 -116.5 24t-48.5 83q-16 -42 -56.5 -65t-110.5 -32.5t-186 -9.5q-137 0 -215 18t-112.5 59.5t-34.5 114.5q0 37 5.5 69t11.5 49q5 15 16 13q7 -1 9.5 -6.5t0.5 -12.5q-16 -53 -16 -108q0 -63 31 -98t103 -50t202 -15q141 0 212.5 13.5t100.5 47
t29 100.5v85q0 15 14 15q6 0 9.5 -4t3.5 -11v-100q0 -60 14 -91t45 -43t89 -12z" />
    <glyph glyph-name="uni066F.fina" unicode="&#x66f;" horiz-adv-x="766" 
d="M783 28v-24l-17 -4h-98q-9 -84 -42.5 -130.5t-99 -66t-177.5 -19.5q-118 0 -185 24t-96.5 76.5t-29.5 144.5q0 57 11.5 107t20.5 72q6 14 19 11q6 -1 8.5 -6.5t-0.5 -12.5q-8 -24 -19 -73.5t-11 -95.5q0 -81 26 -127t87 -66.5t170 -20.5q104 0 164.5 16t91 55.5
t37.5 111.5h-149q-84 0 -121 33t-37 103q0 56 22 100t60 68.5t86 24.5q79 0 123 -62t44 -163v-31q0 -27 -1 -40h96zM646 32v25v47q0 84 -37.5 138t-105.5 54q-61 0 -101 -45t-40 -114q0 -55 30.5 -80t103.5 -25h150z" />
    <glyph glyph-name="uni06A1.init" unicode="&#x6a1;" horiz-adv-x="406" 
d="M314.5 429.5q41.5 -59.5 41.5 -157.5v-48q0 -89 -22.5 -136.5t-75.5 -67.5t-153 -20h-105l-17 3v27l17 3h104q92 0 139.5 15.5t67 53.5t19.5 111v18q-15 -28 -51.5 -42.5t-91.5 -14.5q-78 0 -113.5 31.5t-35.5 100.5q0 53 20.5 94.5t57 65t81.5 23.5q76 0 117.5 -59.5z
M330 257v18q0 81 -34.5 130.5t-99.5 49.5q-57 0 -94.5 -41.5t-37.5 -106.5q0 -54 28.5 -78t96.5 -24q110 0 141 52z" />
    <glyph glyph-name="uni06A1.medi" unicode="&#x6a1;" horiz-adv-x="461" 
d="M478 30l-3 -27l-15 -3q-139 0 -234 42q-88 -42 -225 -42l-18 3v27l18 3q119 0 196 25q-68 29 -96.5 69.5t-28.5 106.5q0 87 42.5 133.5t115.5 46.5q74 0 116.5 -46.5t42.5 -133.5q0 -67 -29 -106.5t-97 -68.5q76 -26 197 -26zM109 165q11 -27 39.5 -48.5t82.5 -44.5
q53 23 81.5 44.5t39.5 49t11 68.5q0 72 -35.5 109t-97.5 37q-61 0 -96.5 -37t-35.5 -109q0 -42 11 -69z" />
    <glyph glyph-name="uni06A1.fina" unicode="&#x6a1;" horiz-adv-x="888" 
d="M905 30v-27l-18 -3q-139 0 -228 40q-51 -23 -120 -31.5t-182 -8.5q-121 0 -189.5 19.5t-99 66.5t-30.5 132q0 38 7 75.5t12 48.5q4 13 14 13q7 0 10.5 -5.5t1.5 -13.5q-4 -16 -10.5 -49t-6.5 -63q0 -74 28 -115t90.5 -58.5t174.5 -17.5q96 0 158.5 6t109.5 18
q-70 30 -99 71t-29 109q0 87 43 134t116 47t115.5 -47t42.5 -134q0 -67 -29 -108t-97 -70q76 -26 197 -26zM536 167.5q11 -27.5 40 -50t83 -46.5q52 23 80 45t39.5 50.5t11.5 70.5q0 72 -35.5 109.5t-96.5 37.5q-62 0 -97.5 -37.5t-35.5 -109.5q0 -42 11 -69.5z" />
    <glyph glyph-name="uniFB57" unicode="&#x67e;" horiz-adv-x="918" arabic-form="final" 
d="M935 30v-27l-17 -3q-78 0 -116.5 24t-48.5 83q-16 -42 -56.5 -65t-110.5 -32.5t-186 -9.5q-137 0 -215 18t-112.5 59.5t-34.5 114.5q0 37 5.5 69t11.5 49q5 15 16 13q7 -1 9.5 -6.5t0.5 -12.5q-16 -53 -16 -108q0 -63 31 -98t103 -50t202 -15q141 0 212.5 13.5t100.5 47
t29 100.5v85q0 15 14 15q6 0 9.5 -4t3.5 -11v-100q0 -60 14 -91t45 -43t89 -12zM343.5 -146.5q-7.5 7.5 -7.5 17.5t7.5 17.5t17.5 7.5t17.5 -7.5t7.5 -17.5t-7.5 -17.5t-17.5 -7.5t-17.5 7.5zM440 -146.5q-8 7.5 -8 17.5t8 17.5t18 7.5t17.5 -7.5t7.5 -17.5t-7.5 -17.5
t-17.5 -7.5t-18 7.5zM392.5 -224q-7.5 7 -7.5 17t7.5 17t17.5 7t17 -7t7 -17t-7 -17t-17 -7t-17.5 7z" />
    <glyph glyph-name="uniFB58" unicode="&#x67e;" horiz-adv-x="229" arabic-form="initial" 
d="M-17 3v27l17 3q80 0 116 40t36 127q0 66 -13 128l-1 5q0 6 4 9.5t10 3.5q13 0 14 -15q13 -57 13 -131q0 -106 -46.5 -153t-132.5 -47zM9.5 -154.5q-7.5 7.5 -7.5 17.5t7.5 17.5t17.5 7.5t17.5 -7.5t7.5 -17.5t-7.5 -17.5t-17.5 -7.5t-17.5 7.5zM106 -154.5
q-8 7.5 -8 17.5t8 17.5t18 7.5t17.5 -7.5t7.5 -17.5t-7.5 -17.5t-17.5 -7.5t-18 7.5zM58.5 -232q-7.5 7 -7.5 17t7.5 17t17.5 7t17 -7t7 -17t-7 -17t-17 -7t-17.5 7z" />
    <glyph glyph-name="uniFB59" unicode="&#x67e;" horiz-adv-x="329" arabic-form="medial" 
d="M346 30v-27l-17 -3q-77 0 -115 21t-48 73q-11 -52 -50.5 -73t-115.5 -21l-16 3l-1 27l17 3q58 0 90.5 11.5t47.5 42t15 87.5v102q0 7 4 11t10 4t10 -4t4 -11v-103q0 -57 14 -87t45.5 -41.5t88.5 -11.5zM101.5 -146.5q-7.5 7.5 -7.5 17.5t7.5 17.5t17.5 7.5t17.5 -7.5
t7.5 -17.5t-7.5 -17.5t-17.5 -7.5t-17.5 7.5zM198 -146.5q-8 7.5 -8 17.5t8 17.5t18 7.5t17.5 -7.5t7.5 -17.5t-7.5 -17.5t-17.5 -7.5t-18 7.5zM150.5 -224q-7.5 7 -7.5 17t7.5 17t17.5 7t17 -7t7 -17t-7 -17t-17 -7t-17.5 7z" />
    <glyph glyph-name="uniFB6B" unicode="&#x6a4;" horiz-adv-x="888" arabic-form="final" 
d="M905 30v-27l-18 -3q-139 0 -228 40q-51 -23 -120 -31.5t-182 -8.5q-121 0 -189.5 19.5t-99 66.5t-30.5 132q0 38 7 75.5t12 48.5q4 13 14 13q7 0 10.5 -5.5t1.5 -13.5q-4 -16 -10.5 -49t-6.5 -63q0 -74 28 -115t90.5 -58.5t174.5 -17.5q96 0 158.5 6t109.5 18
q-70 30 -99 71t-29 109q0 87 43 134t116 47t115.5 -47t42.5 -134q0 -67 -29 -108t-97 -70q76 -26 197 -26zM536 167.5q11 -27.5 40 -50t83 -46.5q52 23 80 45t39.5 50.5t11.5 70.5q0 72 -35.5 109.5t-96.5 37.5q-62 0 -97.5 -37.5t-35.5 -109.5q0 -42 11 -69.5zM675.5 634.5
q7.5 -7.5 7.5 -17.5q0 -9 -7.5 -16.5t-17.5 -7.5t-17.5 7.5t-7.5 16.5q0 10 7.5 17.5t17.5 7.5t17.5 -7.5zM626.5 556.5q7.5 -7.5 7.5 -17.5t-7.5 -17t-17.5 -7t-17.5 7t-7.5 17t7.5 17.5t17.5 7.5t17.5 -7.5zM723.5 556.5q7.5 -7.5 7.5 -17.5t-7.5 -17t-17.5 -7
q-11 0 -18.5 7t-7.5 17t8 17.5t18 7.5t17.5 -7.5z" />
    <glyph glyph-name="uniFB6C" unicode="&#x6a4;" horiz-adv-x="406" arabic-form="initial" 
d="M314.5 429.5q41.5 -59.5 41.5 -157.5v-48q0 -89 -22.5 -136.5t-75.5 -67.5t-153 -20h-105l-17 3v27l17 3h104q92 0 139.5 15.5t67 53.5t19.5 111v18q-15 -28 -51.5 -42.5t-91.5 -14.5q-78 0 -113.5 31.5t-35.5 100.5q0 53 20.5 94.5t57 65t81.5 23.5q76 0 117.5 -59.5z
M330 257v18q0 81 -34.5 130.5t-99.5 49.5q-57 0 -94.5 -41.5t-37.5 -106.5q0 -54 28.5 -78t96.5 -24q110 0 141 52zM214.5 705.5q7.5 -7.5 7.5 -17.5q0 -9 -7.5 -16.5t-17.5 -7.5t-17.5 7.5t-7.5 16.5q0 10 7.5 17.5t17.5 7.5t17.5 -7.5zM165.5 627.5q7.5 -7.5 7.5 -17.5
t-7.5 -17t-17.5 -7t-17.5 7t-7.5 17t7.5 17.5t17.5 7.5t17.5 -7.5zM262.5 627.5q7.5 -7.5 7.5 -17.5t-7.5 -17t-17.5 -7q-11 0 -18.5 7t-7.5 17t8 17.5t18 7.5t17.5 -7.5z" />
    <glyph glyph-name="uniFB6D" unicode="&#x6a4;" horiz-adv-x="461" arabic-form="medial" 
d="M478 30l-3 -27l-15 -3q-139 0 -234 42q-88 -42 -225 -42l-18 3v27l18 3q119 0 196 25q-68 29 -96.5 69.5t-28.5 106.5q0 87 42.5 133.5t115.5 46.5q74 0 116.5 -46.5t42.5 -133.5q0 -67 -29 -106.5t-97 -68.5q76 -26 197 -26zM109 165q11 -27 39.5 -48.5t82.5 -44.5
q53 23 81.5 44.5t39.5 49t11 68.5q0 72 -35.5 109t-97.5 37q-61 0 -96.5 -37t-35.5 -109q0 -42 11 -69zM247.5 630.5q7.5 -7.5 7.5 -17.5q0 -9 -7.5 -16.5t-17.5 -7.5t-17.5 7.5t-7.5 16.5q0 10 7.5 17.5t17.5 7.5t17.5 -7.5zM198.5 552.5q7.5 -7.5 7.5 -17.5t-7.5 -17
t-17.5 -7t-17.5 7t-7.5 17t7.5 17.5t17.5 7.5t17.5 -7.5zM295.5 552.5q7.5 -7.5 7.5 -17.5t-7.5 -17t-17.5 -7q-11 0 -18.5 7t-7.5 17t8 17.5t18 7.5t17.5 -7.5z" />
    <glyph glyph-name="uniFB7B" unicode="&#x686;" horiz-adv-x="665" arabic-form="final" 
d="M682 30v-27l-17 -3q-71 0 -109 20t-53.5 66t-17.5 130q-173 -63 -258.5 -105.5t-123.5 -90t-38 -117.5q0 -108 60 -161t185 -53q88 0 154.5 16.5t107.5 34.5q6 2 8 2q9 0 12 -9q2 -4 2 -6q0 -9 -12 -16q-35 -18 -104.5 -36.5t-171.5 -18.5q-268 0 -268 241v9
q0 83 48.5 139.5t151.5 104t304 115.5q-68 16 -161 56q-63 25 -102 37t-81 12q-66 0 -120 -38q-4 -3 -9 -3q-8 0 -12 9q-1 2 -1 6q0 9 8 16q21 16 54.5 29.5t81.5 13.5q44 0 81 -11.5t98 -37.5q53 -24 95.5 -39.5t95.5 -26.5q17 -4 17 -19q0 -9 -4 -14t-15 -9q-3 -1 -60 -22
q1 -76 14.5 -116.5t47 -57.5t95.5 -17zM295.5 1.5q7.5 -7.5 7.5 -17.5t-7.5 -17.5t-17.5 -7.5t-17.5 7.5t-7.5 17.5t7.5 17.5t17.5 7.5t17.5 -7.5zM357 -33.5q-8 7.5 -8 17.5t8 17.5t18 7.5t17.5 -7.5t7.5 -17.5t-7.5 -17.5t-17.5 -7.5t-18 7.5zM309.5 -111q-7.5 7 -7.5 17
t7.5 17t17.5 7t17 -7t7 -17t-7 -17t-17 -7t-17.5 7z" />
    <glyph glyph-name="uniFB7C" unicode="&#x686;" horiz-adv-x="669" arabic-form="initial" 
d="M604 203q0 -8 -3.5 -12.5t-11.5 -7.5q-45 -18 -147 -63q-90 -41 -132 -57q-95 -36 -157 -49.5t-152 -13.5l-18 3l2 27l16 3q91 0 154 13.5t152 47.5q38 14 133 56q84 37 111 48q-42 11 -78 26.5t-82 39.5q-62 31 -104.5 46t-92.5 15q-68 0 -120 -41q-5 -4 -10 -4
q-4 0 -7.5 2.5t-4.5 5.5q-2 4 -2 6q0 7 10 15q16 16 52 32t82 16q54 0 97 -15.5t106 -47.5q55 -28 97 -45.5t95 -28.5q15 -3 15 -17zM319.5 -81.5q-7.5 7.5 -7.5 17.5t7.5 17.5t17.5 7.5t17.5 -7.5t7.5 -17.5t-7.5 -17.5t-17.5 -7.5t-17.5 7.5zM416 -81.5q-8 7.5 -8 17.5
t8 17.5t18 7.5t17.5 -7.5t7.5 -17.5t-7.5 -17.5t-17.5 -7.5t-18 7.5zM368.5 -159q-7.5 7 -7.5 17t7.5 17t17.5 7t17 -7t7 -17t-7 -17t-17 -7t-17.5 7z" />
    <glyph glyph-name="uniFB7D" unicode="&#x686;" horiz-adv-x="686" arabic-form="medial" 
d="M703 30v-27l-17 -3q-67 0 -103.5 14.5t-52 47t-17.5 89.5q-26 -11 -74 -33q-88 -40 -129 -55q-95 -36 -157 -49.5t-152 -13.5l-18 3l2 27l16 3q91 0 154 13.5t152 47.5q60 23 127 54q68 30 78 34v3l8 1l31 12q-42 11 -78 26.5t-82 39.5q-62 31 -104.5 46t-92.5 15
q-68 0 -120 -41q-5 -4 -10 -4q-4 0 -7.5 2.5t-4.5 5.5q-2 4 -2 6q0 7 10 15q16 16 52 32t82 16q54 0 97 -15.5t106 -47.5q55 -28 97 -45.5t95 -28.5q15 -3 15 -17q0 -8 -3.5 -12.5t-11.5 -7.5l-53 -21q2 -52 15 -79t44 -38.5t91 -11.5zM354.5 -46.5q7.5 -7.5 7.5 -17.5
t-7.5 -17.5t-17.5 -7.5t-17.5 7.5t-7.5 17.5t7.5 17.5t17.5 7.5t17.5 -7.5zM451.5 -46.5q7.5 -7.5 7.5 -17.5t-7.5 -17.5t-17.5 -7.5t-18 7.5t-8 17.5t8 17.5t18 7.5t17.5 -7.5zM403 -125q7 -7 7 -17t-7 -17t-17 -7t-17.5 7t-7.5 17t7.5 17t17.5 7t17 -7z" />
    <glyph glyph-name="uniFB8B" unicode="&#x698;" horiz-adv-x="364" arabic-form="final" 
d="M381 30v-27l-17 -3q-84 0 -118 56q-1 -85 -27.5 -152.5t-73.5 -105t-108 -37.5q-28 0 -50 5t-33 11q-6 3 -9 9.5t0 12.5q5 11 20 7q36 -12 71 -12q52 0 93.5 33t65 94t23.5 141q0 38 -4 69.5t-8 57.5t-6 35v3q0 12 12 15h2q11 0 13 -15q13 -68 16 -102q20 -92 121 -92z
M230.5 457.5q7.5 -7.5 7.5 -17.5q0 -9 -7.5 -16.5t-17.5 -7.5t-17.5 7.5t-7.5 16.5q0 10 7.5 17.5t17.5 7.5t17.5 -7.5zM181.5 379.5q7.5 -7.5 7.5 -17.5t-7.5 -17t-17.5 -7t-17.5 7t-7.5 17t7.5 17.5t17.5 7.5t17.5 -7.5zM278.5 379.5q7.5 -7.5 7.5 -17.5t-7.5 -17
t-17.5 -7q-11 0 -18.5 7t-7.5 17t8 17.5t18 7.5t17.5 -7.5z" />
    <glyph glyph-name="uniFB8F" unicode="&#x6a9;" horiz-adv-x="832" arabic-form="final" 
d="M849 30v-27l-17 -3q-47 0 -78.5 9.5t-58.5 33t-60 68.5q-10 -55 -57 -83t-159 -28h-92q-116 0 -177.5 14.5t-86.5 50t-25 102.5q0 26 4.5 49.5t9.5 36.5q5 14 15 14q8 0 10.5 -6t0.5 -13q-13 -39 -13 -80q0 -55 22.5 -83.5t78 -40t164.5 -11.5h88q77 0 119 11.5t59 32.5
t21 55q-32 45 -126 173q-68 93 -87 121q-10 15 -10 27q0 13 19 25l354 229q5 4 11 4q8 0 11 -7q2 -6 2 -8q0 -8 -9 -14l-358 -232l142 -195l72 -100q38 -53 65.5 -78.5t55.5 -34.5t73 -9z" />
    <glyph glyph-name="uniFB90" unicode="&#x6a9;" horiz-adv-x="430" arabic-form="initial" 
d="M423 697q0 -8 -10 -15l-358 -238q121 -55 186.5 -98t94 -86.5t28.5 -99.5q0 -85 -64 -122.5t-160 -37.5h-139l-18 3v27l18 3h139q79 0 138.5 26.5t59.5 97.5q0 47 -25 85t-88 79t-182 95q-21 9 -21 26q0 14 12 22l364 243q5 4 12 4q8 0 11 -7q2 -4 2 -7z" />
    <glyph glyph-name="uniFB91" unicode="&#x6a9;" horiz-adv-x="501" arabic-form="medial" 
d="M518 30v-27l-17 -3q-47 0 -78 9.5t-58 33.5t-60 69q-11 -56 -57.5 -84t-158.5 -28h-88l-18 3v27l18 3h87q77 0 119 11.5t59 32t21 54.5q-67 94 -167 231l-46 64q-10 15 -10 27q0 13 19 25l353 229q5 4 12 4q8 0 11 -7q2 -4 2 -7q0 -8 -10 -15l-357 -232l142 -195l72 -100
q38 -53 65.5 -78.5t55.5 -34.5t72 -9z" />
    <glyph glyph-name="uniFB93" unicode="&#x6af;" horiz-adv-x="832" arabic-form="final" 
d="M849 30v-27l-17 -3q-47 0 -78.5 9.5t-58.5 33t-60 68.5q-10 -55 -57 -83t-159 -28h-92q-116 0 -177.5 14.5t-86.5 50t-25 102.5q0 26 4.5 49.5t9.5 36.5q5 14 15 14q8 0 10.5 -6t0.5 -13q-13 -39 -13 -80q0 -55 22.5 -83.5t78 -40t164.5 -11.5h88q77 0 119 11.5t59 32.5
t21 55q-32 45 -126 173q-68 93 -87 121q-10 15 -10 27q0 13 19 25l354 229q5 4 11 4q8 0 11 -7q2 -6 2 -8q0 -8 -9 -14l-358 -232l142 -195l72 -100q38 -53 65.5 -78.5t55.5 -34.5t73 -9zM368 589q1 -4 4 -6.5t7 -2.5t8 3l347 226q5 3 7 8t-1 10q-3 6 -10 6q-3 0 -8 -3
l-346 -226q-10 -5 -8 -15z" />
    <glyph glyph-name="uniFB94" unicode="&#x6af;" horiz-adv-x="430" arabic-form="initial" 
d="M423 697q0 -8 -10 -15l-358 -238q121 -55 186.5 -98t94 -86.5t28.5 -99.5q0 -85 -64 -122.5t-160 -37.5h-139l-18 3v27l18 3h139q79 0 138.5 26.5t59.5 97.5q0 47 -25 85t-88 79t-182 95q-21 9 -21 26q0 14 12 22l364 243q5 4 12 4q8 0 11 -7q2 -4 2 -7zM-5 579
q2 -8 10 -8q4 0 9 3l345 228q11 8 8 17q-3 7 -10 7q-4 0 -9 -3l-346 -228q-10 -6 -7 -16z" />
    <glyph glyph-name="uniFB95" unicode="&#x6af;" horiz-adv-x="501" arabic-form="medial" 
d="M518 30v-27l-17 -3q-47 0 -78 9.5t-58 33.5t-60 69q-11 -56 -57.5 -84t-158.5 -28h-88l-18 3v27l18 3h87q77 0 119 11.5t59 32t21 54.5q-67 94 -167 231l-46 64q-10 15 -10 27q0 13 19 25l353 229q5 4 12 4q8 0 11 -7q2 -4 2 -7q0 -8 -10 -15l-357 -232l142 -195l72 -100
q38 -53 65.5 -78.5t55.5 -34.5t72 -9zM44 591q1 -4 4 -6.5t7 -2.5t8 3l347 226q5 3 7 8t-1 10q-3 6 -10 6q-3 0 -8 -3l-346 -226q-10 -5 -8 -15z" />
    <glyph glyph-name="uniFB9F" unicode="&#x6ba;" horiz-adv-x="708" arabic-form="final" 
d="M725 30v-27l-17 -3q-46 0 -73.5 12t-41.5 37v-6q0 -95 -28 -153.5t-90 -86t-166 -27.5q-99 0 -158.5 26t-86 80t-26.5 143q0 63 13.5 109t25.5 70q2 6 7.5 9t11.5 1q9 -3 9 -13l-2 -8q-36 -81 -36 -168q0 -79 23.5 -126t76.5 -68.5t143 -21.5q94 0 149.5 23t80.5 72
t25 132q0 81 -15 199v2q0 6 4 10t10 4q13 0 15 -14q9 -67 11 -106q5 -39 16 -60t34.5 -29.5t67.5 -8.5z" />
    <glyph glyph-name="uniFBE8" unicode="&#x649;" horiz-adv-x="229" arabic-form="initial" 
d="M-17 3v27l17 3q80 0 116 40t36 127q0 66 -13 128l-1 5q0 6 4 9.5t10 3.5q13 0 14 -15q13 -57 13 -131q0 -106 -46.5 -153t-132.5 -47z" />
    <glyph glyph-name="uniFBE9" unicode="&#x649;" horiz-adv-x="329" arabic-form="medial" 
d="M346 30v-27l-17 -3q-77 0 -115 21t-48 73q-11 -52 -50.5 -73t-115.5 -21l-16 3l-1 27l17 3q58 0 90.5 11.5t47.5 42t15 87.5v102q0 7 4 11t10 4t10 -4t4 -11v-103q0 -57 14 -87t45.5 -41.5t88.5 -11.5z" />
    <glyph glyph-name="uniFBFD" unicode="&#x6cc;" horiz-adv-x="678" arabic-form="final" 
d="M695 30v-27l-17 -3h-91l-22 1q67 -33 67 -104q0 -84 -80 -132t-222 -48q-150 0 -221 59.5t-71 184.5q0 55 12.5 102t23.5 70q5 12 15 12q6 0 10 -3.5t4 -9.5l-2 -8q-1 -2 -17.5 -46t-16.5 -117q0 -109 63.5 -160t201.5 -51q129 0 201.5 39t72.5 108q0 50 -36 73t-113 37
q-7 1 -12 6t-5 11q1 7 6 12t13 4q63 -7 199 -7h20z" />
    <glyph glyph-name="uniFBFE" unicode="&#x6cc;" horiz-adv-x="229" arabic-form="initial" 
d="M-17 3v27l17 3q80 0 116 40t36 127q0 66 -13 128l-1 5q0 6 4 9.5t10 3.5q13 0 14 -15q13 -57 13 -131q0 -106 -46.5 -153t-132.5 -47zM12 -137q-7 7 -7 17q0 9 7 16t17 7q9 0 16 -7t7 -16q0 -10 -7 -17t-16 -7q-10 0 -17 7zM103.5 -137q-7.5 7 -7.5 17q0 9 7.5 16t17.5 7
q9 0 16 -7t7 -16q0 -10 -7 -17t-16 -7q-10 0 -17.5 7z" />
    <glyph glyph-name="uniFBFF" unicode="&#x6cc;" horiz-adv-x="329" arabic-form="medial" 
d="M346 30v-27l-17 -3q-77 0 -115 21t-48 73q-11 -52 -50.5 -73t-115.5 -21l-16 3l-1 27l17 3q58 0 90.5 11.5t47.5 42t15 87.5v102q0 7 4 11t10 4t10 -4t4 -11v-103q0 -57 14 -87t45.5 -41.5t88.5 -11.5zM100.5 -135.5q-7.5 7.5 -7.5 17.5t7.5 17.5t17.5 7.5t17.5 -7.5
t7.5 -17.5t-7.5 -17.5t-17.5 -7.5t-17.5 7.5zM197 -135.5q-8 7.5 -8 17.5t8 17.5t18 7.5t17.5 -7.5t7.5 -17.5t-7.5 -17.5t-17.5 -7.5t-18 7.5z" />
    <glyph glyph-name="uniFE82" unicode="&#x622;" horiz-adv-x="274" arabic-form="final" 
d="M125 178q0 -59 14 -90t45.5 -43t89.5 -12l17 -3v-27l-17 -3q-66 0 -104.5 15.5t-56 53t-17.5 104.5v478q0 7 4 11t11 4q6 0 10 -4t4 -11v-473zM21 756q-3 -1 -7 -1q-10 0 -10 10v2q0 4 3.5 7t7.5 6q22 12 47 12q11 0 22 -2.5t21 -5.5q28 -8 50 -8t40 8q3 1 8 1
q10 0 10 -10v-2q0 -7 -11 -14q-20 -10 -48 -10q-18 0 -33 4t-18 5q-28 8 -41 8q-19 0 -41 -10z" />
    <glyph glyph-name="uniFE84" unicode="&#x623;" horiz-adv-x="274" arabic-form="final" 
d="M125 178q0 -59 14 -90t45.5 -43t89.5 -12l17 -3v-27l-17 -3q-66 0 -104.5 15.5t-56 53t-17.5 104.5v478q0 7 4 11t11 4q6 0 10 -4t4 -11v-473zM189 770q0 -9 -11 -12q-89 -11 -152 -17h-2q-14 0 -14 12v2q0 9 13 11l31 3q-26 16 -26 57q0 39 22.5 58.5t55.5 19.5
q14 0 26.5 -4t17.5 -8q11 -7 10 -14q0 -6 -5 -8.5t-11 -0.5q-22 9 -38 9q-56 0 -56 -53q0 -27 11.5 -38.5t34.5 -11.5q13 0 77 8h3q5 0 9 -3t4 -8v-2z" />
    <glyph glyph-name="uniFE86" unicode="&#x624;" horiz-adv-x="466" arabic-form="final" 
d="M483 27v-24l-17 -3h-77q-14 -113 -73 -176t-161 -63q-42 0 -74 8.5t-48 18.5q-5 2 -8.5 7t-3.5 11q0 9 7 13t15 0q20 -12 49 -18.5t62 -6.5q93 0 145 54.5t64 152.5h-148q-83 0 -120.5 33t-37.5 103q0 55 22 99t60 68.5t86 24.5q79 0 123.5 -64t44.5 -170v-24
q0 -26 -1 -38h74zM366 32q1 6 1 19v45q0 88 -37.5 144t-105.5 56q-61 0 -100.5 -44.5t-39.5 -113.5q0 -55 30 -80.5t103 -25.5h149zM303 433q0 -9 -11 -12q-89 -11 -152 -17h-2q-14 0 -14 12v2q0 9 13 11l31 3q-26 16 -26 57q0 39 22.5 58.5t55.5 19.5q14 0 26.5 -4t17.5 -8
q11 -7 10 -14q0 -6 -5 -8.5t-11 -0.5q-22 9 -38 9q-56 0 -56 -53q0 -27 11.5 -38.5t34.5 -11.5q13 0 77 8h3q5 0 9 -3t4 -8v-2z" />
    <glyph glyph-name="uniFE88" unicode="&#x625;" horiz-adv-x="274" arabic-form="final" 
d="M125 178q0 -59 14 -90t45.5 -43t89.5 -12l17 -3v-27l-17 -3q-66 0 -104.5 15.5t-56 53t-17.5 104.5v523q0 6 4 10t11 4q6 0 10 -4t4 -10v-518zM219 -215q0 -9 -11 -12q-89 -11 -152 -17h-2q-14 0 -14 12v2q0 9 13 11l31 3q-26 16 -26 57q0 39 22.5 58.5t55.5 19.5
q14 0 26.5 -4t17.5 -8q11 -7 10 -14q0 -6 -5 -8.5t-11 -0.5q-23 9 -38 9q-56 0 -56 -53q0 -27 11.5 -38.5t34.5 -11.5q13 0 77 8h3q5 0 9 -3t4 -8v-2z" />
    <glyph glyph-name="uniFE8A" unicode="&#x626;" horiz-adv-x="678" arabic-form="final" 
d="M695 30v-27l-17 -3h-91l-22 1q67 -33 67 -104q0 -84 -80 -132t-222 -48q-150 0 -221 59.5t-71 184.5q0 55 12.5 102t23.5 70q5 12 15 12q6 0 10 -3.5t4 -9.5l-2 -8q-1 -2 -17.5 -46t-16.5 -117q0 -109 63.5 -160t201.5 -51q129 0 201.5 39t72.5 108q0 50 -36 73t-113 37
q-7 1 -12 6t-5 11q1 7 6 12t13 4q63 -7 199 -7h20zM163 237q0 -9 -11 -12q-89 -11 -152 -17h-2q-14 0 -14 12v2q0 9 13 11l31 3q-26 16 -26 57q0 39 22.5 58.5t55.5 19.5q14 0 26.5 -4t17.5 -8q11 -7 10 -14q0 -6 -5 -8.5t-11 -0.5q-22 9 -38 9q-56 0 -56 -53
q0 -27 11.5 -38.5t34.5 -11.5q13 0 77 8h3q5 0 9 -3t4 -8v-2z" />
    <glyph glyph-name="uniFE8B" unicode="&#x626;" horiz-adv-x="229" arabic-form="initial" 
d="M-17 3v27l17 3q80 0 116 40t36 127q0 66 -13 128l-1 5q0 6 4 9.5t10 3.5q13 0 14 -15q13 -57 13 -131q0 -106 -46.5 -153t-132.5 -47zM227 450q0 -9 -11 -12q-89 -11 -152 -17h-2q-14 0 -14 12v2q0 9 13 11l31 3q-26 16 -26 57q0 39 22.5 58.5t55.5 19.5q14 0 26.5 -4
t17.5 -8q11 -7 10 -14q0 -6 -5 -8.5t-11 -0.5q-22 9 -38 9q-56 0 -56 -53q0 -27 11.5 -38.5t34.5 -11.5q13 0 77 8h3q5 0 9 -3t4 -8v-2z" />
    <glyph glyph-name="uniFE8C" unicode="&#x626;" horiz-adv-x="329" arabic-form="medial" 
d="M346 30v-27l-17 -3q-77 0 -115 21t-48 73q-11 -52 -50.5 -73t-115.5 -21l-16 3l-1 27l17 3q58 0 90.5 11.5t47.5 42t15 87.5v102q0 7 4 11t10 4t10 -4t4 -11v-103q0 -57 14 -87t45.5 -41.5t88.5 -11.5zM245 395q0 -9 -11 -12q-89 -11 -152 -17h-2q-14 0 -14 12v2
q0 9 13 11l31 3q-26 16 -26 57q0 39 22.5 58.5t55.5 19.5q14 0 26.5 -4t17.5 -8q11 -7 10 -14q0 -6 -5 -8.5t-11 -0.5q-22 9 -38 9q-56 0 -56 -53q0 -27 11.5 -38.5t34.5 -11.5q13 0 77 8h3q5 0 9 -3t4 -8v-2z" />
    <glyph glyph-name="uniFE8E" unicode="&#x627;" horiz-adv-x="274" arabic-form="final" 
d="M125 178q0 -59 14 -90t45.5 -43t89.5 -12l17 -3v-27l-17 -3q-66 0 -104.5 15.5t-56 53t-17.5 104.5v523q0 6 4 10t11 4q6 0 10 -4t4 -10v-518z" />
    <glyph glyph-name="uniFE90" unicode="&#x628;" horiz-adv-x="918" arabic-form="final" 
d="M935 30v-27l-17 -3q-78 0 -116.5 24t-48.5 83q-16 -42 -56.5 -65t-110.5 -32.5t-186 -9.5q-137 0 -215 18t-112.5 59.5t-34.5 114.5q0 37 5.5 69t11.5 49q5 15 16 13q7 -1 9.5 -6.5t0.5 -12.5q-16 -53 -16 -108q0 -63 31 -98t103 -50t202 -15q141 0 212.5 13.5t100.5 47
t29 100.5v85q0 15 14 15q6 0 9.5 -4t3.5 -11v-100q0 -60 14 -91t45 -43t89 -12zM390 -126.5q-8 7.5 -8 18.5q0 10 8 17.5t19 7.5q10 0 18 -7.5t8 -17.5t-7.5 -18t-18.5 -8t-19 7.5z" />
    <glyph glyph-name="uniFE91" unicode="&#x628;" horiz-adv-x="229" arabic-form="initial" 
d="M-17 3v27l17 3q80 0 116 40t36 127q0 66 -13 128l-1 5q0 6 4 9.5t10 3.5q13 0 14 -15q13 -57 13 -131q0 -106 -46.5 -153t-132.5 -47zM56 -134.5q-8 7.5 -8 18.5q0 10 8 17.5t19 7.5q10 0 18 -7.5t8 -17.5t-7.5 -18t-18.5 -8t-19 7.5z" />
    <glyph glyph-name="uniFE92" unicode="&#x628;" horiz-adv-x="329" arabic-form="medial" 
d="M346 30v-27l-17 -3q-77 0 -115 21t-48 73q-11 -52 -50.5 -73t-115.5 -21l-16 3l-1 27l17 3q58 0 90.5 11.5t47.5 42t15 87.5v102q0 7 4 11t10 4t10 -4t4 -11v-103q0 -57 14 -87t45.5 -41.5t88.5 -11.5zM148 -126.5q-8 7.5 -8 18.5q0 10 8 17.5t19 7.5q10 0 18 -7.5
t8 -17.5t-7.5 -18t-18.5 -8t-19 7.5z" />
    <glyph glyph-name="uniFE94" unicode="&#x629;" horiz-adv-x="479" arabic-form="final" 
d="M496 30v-27l-17 -3q-76 0 -109.5 33.5t-38.5 115.5q-15 -22 -51 -35t-91 -13q-80 0 -115.5 32t-35.5 91q0 45 28 79t90.5 66t173.5 69v58q0 15 14 15t14 -15v-303q0 -66 10 -99.5t35.5 -47t75.5 -13.5zM281.5 146.5q35.5 12.5 48.5 34.5v8v219q-101 -36 -158 -63.5
t-82.5 -56t-25.5 -63.5q0 -47 31.5 -69t97.5 -22q53 0 88.5 12.5zM146.5 598.5q-7.5 7.5 -7.5 17.5t7.5 17.5t17.5 7.5t17.5 -7.5t7.5 -17.5t-7.5 -17.5t-17.5 -7.5t-17.5 7.5zM243 598.5q-8 7.5 -8 17.5t8 17.5t18 7.5t17.5 -7.5t7.5 -17.5t-7.5 -17.5t-17.5 -7.5t-18 7.5z
" />
    <glyph glyph-name="uniFE96" unicode="&#x62a;" horiz-adv-x="918" arabic-form="final" 
d="M935 30v-27l-17 -3q-78 0 -116.5 24t-48.5 83q-16 -42 -56.5 -65t-110.5 -32.5t-186 -9.5q-137 0 -215 18t-112.5 59.5t-34.5 114.5q0 37 5.5 69t11.5 49q5 15 16 13q7 -1 9.5 -6.5t0.5 -12.5q-16 -53 -16 -108q0 -63 31 -98t103 -50t202 -15q141 0 212.5 13.5t100.5 47
t29 100.5v85q0 15 14 15q6 0 9.5 -4t3.5 -11v-100q0 -60 14 -91t45 -43t89 -12zM348.5 427.5q-7.5 7.5 -7.5 17.5t7.5 17.5t17.5 7.5t17.5 -7.5t7.5 -17.5t-7.5 -17.5t-17.5 -7.5t-17.5 7.5zM445 427.5q-8 7.5 -8 17.5t8 17.5t18 7.5t17.5 -7.5t7.5 -17.5t-7.5 -17.5
t-17.5 -7.5t-18 7.5z" />
    <glyph glyph-name="uniFE97" unicode="&#x62a;" horiz-adv-x="229" arabic-form="initial" 
d="M-17 3v27l17 3q80 0 116 40t36 127q0 66 -13 128l-1 5q0 6 4 9.5t10 3.5q13 0 14 -15q13 -57 13 -131q0 -106 -46.5 -153t-132.5 -47zM82.5 454.5q-7.5 7.5 -7.5 17.5t7.5 17.5t17.5 7.5t17.5 -7.5t7.5 -17.5t-7.5 -17.5t-17.5 -7.5t-17.5 7.5zM179 454.5q-8 7.5 -8 17.5
t8 17.5t18 7.5t17.5 -7.5t7.5 -17.5t-7.5 -17.5t-17.5 -7.5t-18 7.5z" />
    <glyph glyph-name="uniFE98" unicode="&#x62a;" horiz-adv-x="329" arabic-form="medial" 
d="M346 30v-27l-17 -3q-77 0 -115 21t-48 73q-11 -52 -50.5 -73t-115.5 -21l-16 3l-1 27l17 3q58 0 90.5 11.5t47.5 42t15 87.5v102q0 7 4 11t10 4t10 -4t4 -11v-103q0 -57 14 -87t45.5 -41.5t88.5 -11.5zM100.5 399.5q-7.5 7.5 -7.5 17.5t7.5 17.5t17.5 7.5t17.5 -7.5
t7.5 -17.5t-7.5 -17.5t-17.5 -7.5t-17.5 7.5zM197 399.5q-8 7.5 -8 17.5t8 17.5t18 7.5t17.5 -7.5t7.5 -17.5t-7.5 -17.5t-17.5 -7.5t-18 7.5z" />
    <glyph glyph-name="uniFE9A" unicode="&#x62b;" horiz-adv-x="918" arabic-form="final" 
d="M935 30v-27l-17 -3q-78 0 -116.5 24t-48.5 83q-16 -42 -56.5 -65t-110.5 -32.5t-186 -9.5q-137 0 -215 18t-112.5 59.5t-34.5 114.5q0 37 5.5 69t11.5 49q5 15 16 13q7 -1 9.5 -6.5t0.5 -12.5q-16 -53 -16 -108q0 -63 31 -98t103 -50t202 -15q141 0 212.5 13.5t100.5 47
t29 100.5v85q0 15 14 15q6 0 9.5 -4t3.5 -11v-100q0 -60 14 -91t45 -43t89 -12zM432.5 535.5q7.5 -7.5 7.5 -17.5q0 -9 -7.5 -16.5t-17.5 -7.5t-17.5 7.5t-7.5 16.5q0 10 7.5 17.5t17.5 7.5t17.5 -7.5zM383.5 457.5q7.5 -7.5 7.5 -17.5t-7.5 -17t-17.5 -7t-17.5 7t-7.5 17
t7.5 17.5t17.5 7.5t17.5 -7.5zM480.5 457.5q7.5 -7.5 7.5 -17.5t-7.5 -17t-17.5 -7q-11 0 -18.5 7t-7.5 17t8 17.5t18 7.5t17.5 -7.5z" />
    <glyph glyph-name="uniFE9B" unicode="&#x62b;" horiz-adv-x="229" arabic-form="initial" 
d="M-17 3v27l17 3q80 0 116 40t36 127q0 66 -13 128l-1 5q0 6 4 9.5t10 3.5q13 0 14 -15q13 -57 13 -131q0 -106 -46.5 -153t-132.5 -47zM166.5 562.5q7.5 -7.5 7.5 -17.5q0 -9 -7.5 -16.5t-17.5 -7.5t-17.5 7.5t-7.5 16.5q0 10 7.5 17.5t17.5 7.5t17.5 -7.5zM117.5 484.5
q7.5 -7.5 7.5 -17.5t-7.5 -17t-17.5 -7t-17.5 7t-7.5 17t7.5 17.5t17.5 7.5t17.5 -7.5zM214.5 484.5q7.5 -7.5 7.5 -17.5t-7.5 -17t-17.5 -7q-11 0 -18.5 7t-7.5 17t8 17.5t18 7.5t17.5 -7.5z" />
    <glyph glyph-name="uniFE9C" unicode="&#x62b;" horiz-adv-x="329" arabic-form="medial" 
d="M346 30v-27l-17 -3q-77 0 -115 21t-48 73q-11 -52 -50.5 -73t-115.5 -21l-16 3l-1 27l17 3q58 0 90.5 11.5t47.5 42t15 87.5v102q0 7 4 11t10 4t10 -4t4 -11v-103q0 -57 14 -87t45.5 -41.5t88.5 -11.5zM184.5 507.5q7.5 -7.5 7.5 -17.5q0 -9 -7.5 -16.5t-17.5 -7.5
t-17.5 7.5t-7.5 16.5q0 10 7.5 17.5t17.5 7.5t17.5 -7.5zM135.5 429.5q7.5 -7.5 7.5 -17.5t-7.5 -17t-17.5 -7t-17.5 7t-7.5 17t7.5 17.5t17.5 7.5t17.5 -7.5zM232.5 429.5q7.5 -7.5 7.5 -17.5t-7.5 -17t-17.5 -7q-11 0 -18.5 7t-7.5 17t8 17.5t18 7.5t17.5 -7.5z" />
    <glyph glyph-name="uniFE9E" unicode="&#x62c;" horiz-adv-x="665" arabic-form="final" 
d="M682 30v-27l-17 -3q-71 0 -109 20t-53.5 66t-17.5 130q-173 -63 -258.5 -105.5t-123.5 -90t-38 -117.5q0 -108 60 -161t185 -53q88 0 154.5 16.5t107.5 34.5q6 2 8 2q9 0 12 -9q2 -4 2 -6q0 -9 -12 -16q-35 -18 -104.5 -36.5t-171.5 -18.5q-268 0 -268 241v9
q0 83 48.5 139.5t151.5 104t304 115.5q-68 16 -161 56q-63 25 -102 37t-81 12q-66 0 -120 -38q-4 -3 -9 -3q-8 0 -12 9q-1 2 -1 6q0 9 8 16q21 16 54.5 29.5t81.5 13.5q44 0 81 -11.5t98 -37.5q53 -24 95.5 -39.5t95.5 -26.5q17 -4 17 -19q0 -9 -4 -14t-15 -9q-3 -1 -60 -22
q1 -76 14.5 -116.5t47 -57.5t95.5 -17zM317 -40.5q8 7.5 19 7.5q10 0 18 -7.5t8 -17.5q0 -11 -7.5 -18.5t-18.5 -7.5t-19 7.5t-8 18.5q0 10 8 17.5z" />
    <glyph glyph-name="uniFE9F" unicode="&#x62c;" horiz-adv-x="669" arabic-form="initial" 
d="M604 203q0 -8 -3.5 -12.5t-11.5 -7.5q-45 -18 -147 -63q-90 -41 -132 -57q-95 -36 -157 -49.5t-152 -13.5l-18 3l2 27l16 3q91 0 154 13.5t152 47.5q38 14 133 56q84 37 111 48q-42 11 -78 26.5t-82 39.5q-62 31 -104.5 46t-92.5 15q-68 0 -120 -41q-5 -4 -10 -4
q-4 0 -7.5 2.5t-4.5 5.5q-2 4 -2 6q0 7 10 15q16 16 52 32t82 16q54 0 97 -15.5t106 -47.5q55 -28 97 -45.5t95 -28.5q15 -3 15 -17zM366 -61.5q-8 7.5 -8 18.5q0 10 8 17.5t19 7.5q10 0 18 -7.5t8 -17.5t-7.5 -18t-18.5 -8t-19 7.5z" />
    <glyph glyph-name="uniFEA0" unicode="&#x62c;" horiz-adv-x="686" arabic-form="medial" 
d="M703 30v-27l-17 -3q-67 0 -103.5 14.5t-52 47t-17.5 89.5q-26 -11 -74 -33q-88 -40 -129 -55q-95 -36 -157 -49.5t-152 -13.5l-18 3l2 27l16 3q91 0 154 13.5t152 47.5q60 23 127 54q68 30 78 34v3l8 1l31 12q-42 11 -78 26.5t-82 39.5q-62 31 -104.5 46t-92.5 15
q-68 0 -120 -41q-5 -4 -10 -4q-4 0 -7.5 2.5t-4.5 5.5q-2 4 -2 6q0 7 10 15q16 16 52 32t82 16q54 0 97 -15.5t106 -47.5q55 -28 97 -45.5t95 -28.5q15 -3 15 -17q0 -8 -3.5 -12.5t-11.5 -7.5l-53 -21q2 -52 15 -79t44 -38.5t91 -11.5zM403 -25.5q8 -7.5 8 -17.5
q0 -11 -7.5 -18.5t-18.5 -7.5t-19 7.5t-8 18.5q0 10 8 17.5t19 7.5q10 0 18 -7.5z" />
    <glyph glyph-name="uniFEA2" unicode="&#x62d;" horiz-adv-x="665" arabic-form="final" 
d="M682 30v-27l-17 -3q-71 0 -109 20t-53.5 66t-17.5 130q-173 -63 -258.5 -105.5t-123.5 -90t-38 -117.5q0 -108 60 -161t185 -53q88 0 154.5 16.5t107.5 34.5q6 2 8 2q9 0 12 -9q2 -4 2 -6q0 -9 -12 -16q-35 -18 -104.5 -36.5t-171.5 -18.5q-268 0 -268 241v9
q0 83 48.5 139.5t151.5 104t304 115.5q-68 16 -161 56q-63 25 -102 37t-81 12q-66 0 -120 -38q-4 -3 -9 -3q-8 0 -12 9q-1 2 -1 6q0 9 8 16q21 16 54.5 29.5t81.5 13.5q44 0 81 -11.5t98 -37.5q53 -24 95.5 -39.5t95.5 -26.5q17 -4 17 -19q0 -9 -4 -14t-15 -9q-3 -1 -60 -22
q1 -76 14.5 -116.5t47 -57.5t95.5 -17z" />
    <glyph glyph-name="uniFEA3" unicode="&#x62d;" horiz-adv-x="669" arabic-form="initial" 
d="M604 203q0 -8 -3.5 -12.5t-11.5 -7.5q-45 -18 -147 -63q-90 -41 -132 -57q-95 -36 -157 -49.5t-152 -13.5l-18 3l2 27l16 3q91 0 154 13.5t152 47.5q38 14 133 56q84 37 111 48q-42 11 -78 26.5t-82 39.5q-62 31 -104.5 46t-92.5 15q-68 0 -120 -41q-5 -4 -10 -4
q-4 0 -7.5 2.5t-4.5 5.5q-2 4 -2 6q0 7 10 15q16 16 52 32t82 16q54 0 97 -15.5t106 -47.5q55 -28 97 -45.5t95 -28.5q15 -3 15 -17z" />
    <glyph glyph-name="uniFEA4" unicode="&#x62d;" horiz-adv-x="686" arabic-form="medial" 
d="M703 30v-27l-17 -3q-67 0 -103.5 14.5t-52 47t-17.5 89.5q-26 -11 -74 -33q-88 -40 -129 -55q-95 -36 -157 -49.5t-152 -13.5l-18 3l2 27l16 3q91 0 154 13.5t152 47.5q60 23 127 54q68 30 78 34v3l8 1l31 12q-42 11 -78 26.5t-82 39.5q-62 31 -104.5 46t-92.5 15
q-68 0 -120 -41q-5 -4 -10 -4q-4 0 -7.5 2.5t-4.5 5.5q-2 4 -2 6q0 7 10 15q16 16 52 32t82 16q54 0 97 -15.5t106 -47.5q55 -28 97 -45.5t95 -28.5q15 -3 15 -17q0 -8 -3.5 -12.5t-11.5 -7.5l-53 -21q2 -52 15 -79t44 -38.5t91 -11.5z" />
    <glyph glyph-name="uniFEA6" unicode="&#x62e;" horiz-adv-x="665" arabic-form="final" 
d="M682 30v-27l-17 -3q-71 0 -109 20t-53.5 66t-17.5 130q-173 -63 -258.5 -105.5t-123.5 -90t-38 -117.5q0 -108 60 -161t185 -53q88 0 154.5 16.5t107.5 34.5q6 2 8 2q9 0 12 -9q2 -4 2 -6q0 -9 -12 -16q-35 -18 -104.5 -36.5t-171.5 -18.5q-268 0 -268 241v9
q0 83 48.5 139.5t151.5 104t304 115.5q-68 16 -161 56q-63 25 -102 37t-81 12q-66 0 -120 -38q-4 -3 -9 -3q-8 0 -12 9q-1 2 -1 6q0 9 8 16q21 16 54.5 29.5t81.5 13.5q44 0 81 -11.5t98 -37.5q53 -24 95.5 -39.5t95.5 -26.5q17 -4 17 -19q0 -9 -4 -14t-15 -9q-3 -1 -60 -22
q1 -76 14.5 -116.5t47 -57.5t95.5 -17zM304 542.5q-8 7.5 -8 18.5t8 18.5t19 7.5t18.5 -7.5t7.5 -18.5q0 -10 -7.5 -18t-18.5 -8t-19 7.5z" />
    <glyph glyph-name="uniFEA7" unicode="&#x62e;" horiz-adv-x="669" arabic-form="initial" 
d="M604 203q0 -8 -3.5 -12.5t-11.5 -7.5q-45 -18 -147 -63q-90 -41 -132 -57q-95 -36 -157 -49.5t-152 -13.5l-18 3l2 27l16 3q91 0 154 13.5t152 47.5q38 14 133 56q84 37 111 48q-42 11 -78 26.5t-82 39.5q-62 31 -104.5 46t-92.5 15q-68 0 -120 -41q-5 -4 -10 -4
q-4 0 -7.5 2.5t-4.5 5.5q-2 4 -2 6q0 7 10 15q16 16 52 32t82 16q54 0 97 -15.5t106 -47.5q55 -28 97 -45.5t95 -28.5q15 -3 15 -17zM304 497.5q-8 7.5 -8 18.5t8 18.5t19 7.5t18.5 -7.5t7.5 -18.5q0 -10 -7.5 -18t-18.5 -8t-19 7.5z" />
    <glyph glyph-name="uniFEA8" unicode="&#x62e;" horiz-adv-x="686" arabic-form="medial" 
d="M703 30v-27l-17 -3q-67 0 -103.5 14.5t-52 47t-17.5 89.5q-26 -11 -74 -33q-88 -40 -129 -55q-95 -36 -157 -49.5t-152 -13.5l-18 3l2 27l16 3q91 0 154 13.5t152 47.5q60 23 127 54q68 30 78 34v3l8 1l31 12q-42 11 -78 26.5t-82 39.5q-62 31 -104.5 46t-92.5 15
q-68 0 -120 -41q-5 -4 -10 -4q-4 0 -7.5 2.5t-4.5 5.5q-2 4 -2 6q0 7 10 15q16 16 52 32t82 16q54 0 97 -15.5t106 -47.5q55 -28 97 -45.5t95 -28.5q15 -3 15 -17q0 -8 -3.5 -12.5t-11.5 -7.5l-53 -21q2 -52 15 -79t44 -38.5t91 -11.5zM304 497.5q-8 7.5 -8 18.5t8 18.5
t19 7.5t18.5 -7.5t7.5 -18.5q0 -10 -7.5 -18t-18.5 -8t-19 7.5z" />
    <glyph glyph-name="uniFEAA" unicode="&#x62f;" horiz-adv-x="543" arabic-form="final" 
d="M560 30v-27l-17 -3q-54 0 -85.5 16.5t-56.5 61.5q-17 -39 -65.5 -59t-138.5 -20q-58 0 -98.5 6t-58.5 13q-15 6 -11 20q1 7 6.5 10t13.5 1q59 -16 151 -16q89 0 133 17.5t56 51.5q-12 27 -28 73l-91 270q-1 2 -1 7q0 11 12 14h2q11 0 15 -13l89 -263q24 -69 43 -101.5
t44 -44t69 -11.5z" />
    <glyph glyph-name="uniFEAC" unicode="&#x630;" horiz-adv-x="543" arabic-form="final" 
d="M560 30v-27l-17 -3q-54 0 -85.5 16.5t-56.5 61.5q-17 -39 -65.5 -59t-138.5 -20q-58 0 -98.5 6t-58.5 13q-15 6 -11 20q1 7 6.5 10t13.5 1q59 -16 151 -16q89 0 133 17.5t56 51.5q-12 27 -28 73l-91 270q-1 2 -1 7q0 11 12 14h2q11 0 15 -13l89 -263q24 -69 43 -101.5
t44 -44t69 -11.5zM262 575.5q-8 7.5 -8 18.5t8 18.5t19 7.5t18.5 -7.5t7.5 -18.5q0 -10 -7.5 -18t-18.5 -8t-19 7.5z" />
    <glyph glyph-name="uniFEAE" unicode="&#x631;" horiz-adv-x="364" arabic-form="final" 
d="M381 30v-27l-17 -3q-84 0 -118 56q-1 -85 -27.5 -152.5t-73.5 -105t-108 -37.5q-28 0 -50 5t-33 11q-6 3 -9 9.5t0 12.5q5 11 20 7q36 -12 71 -12q52 0 93.5 33t65 94t23.5 141q0 38 -4 69.5t-8 57.5t-6 35v3q0 12 12 15h2q11 0 13 -15q13 -68 16 -102q20 -92 121 -92z
" />
    <glyph glyph-name="uniFEB0" unicode="&#x632;" horiz-adv-x="364" arabic-form="final" 
d="M381 30v-27l-17 -3q-84 0 -118 56q-1 -85 -27.5 -152.5t-73.5 -105t-108 -37.5q-28 0 -50 5t-33 11q-6 3 -9 9.5t0 12.5q5 11 20 7q36 -12 71 -12q52 0 93.5 33t65 94t23.5 141q0 38 -4 69.5t-8 57.5t-6 35v3q0 12 12 15h2q11 0 13 -15q13 -68 16 -102q20 -92 121 -92z
M194 351.5q-8 7.5 -8 18.5t8 18.5t19 7.5t18.5 -7.5t7.5 -18.5q0 -10 -7.5 -18t-18.5 -8t-19 7.5z" />
    <glyph glyph-name="uniFEB2" unicode="&#x633;" horiz-adv-x="1251" arabic-form="final" 
d="M1268 30v-27l-17 -3q-69 0 -107 16.5t-50 49.5q-11 -32 -42 -49t-82 -17q-57 0 -87.5 16.5t-39.5 49.5q-24 -66 -133 -66q-53 0 -80 8t-37 25q-1 -93 -29.5 -149t-90 -82t-164.5 -26q-100 0 -159 25t-85.5 77.5t-26.5 139.5q0 46 8 86t17.5 66t13.5 37q4 7 9.5 10t10.5 1
q9 -3 9 -13l-2 -8q-1 -3 -19 -49.5t-18 -129.5q0 -77 23.5 -122t76 -66t143.5 -21q95 0 150.5 22.5t80 71.5t24.5 133q-2 80 -27 205v4q0 13 12 14q13 0 16 -14q16 -79 25 -151q5 -37 31 -49t89 -12q65 0 93 22.5t28 77.5v109q0 15 14 15q5 0 9 -4t4 -11v-109q0 -56 24 -78
t87 -22q59 0 84.5 22.5t25.5 76.5v110q0 7 4 11t10 4t10 -4t4 -11v-110q0 -37 13 -58.5t44 -31t86 -9.5z" />
    <glyph glyph-name="uniFEB3" unicode="&#x633;" horiz-adv-x="754" arabic-form="initial" 
d="M696.5 228.5q7.5 -34.5 7.5 -73.5q0 -82 -34 -118.5t-104 -36.5q-55 0 -85 16.5t-39 49.5q-26 -66 -141 -66q-61 0 -94.5 16.5t-44.5 53.5q-11 -37 -49 -53.5t-113 -16.5l-17 3v27l17 3q59 0 90.5 9t45 32t13.5 67v101q0 7 4 11t10 4t10 -4t4 -11v-101q0 -62 29 -85
t96 -23q69 0 99 22.5t30 77.5v109q0 15 14 15q5 0 9 -4t4 -11v-109q0 -56 23.5 -78t85.5 -22q59 0 84 26.5t25 93.5q0 38 -5.5 64t-14.5 59q-1 2 -1 6q0 9 11 13h2q10 0 14 -13q7 -19 14.5 -53.5z" />
    <glyph glyph-name="uniFEB4" unicode="&#x633;" horiz-adv-x="848" arabic-form="medial" 
d="M865 30v-27l-17 -3q-70 0 -108 16.5t-50 49.5q-20 -66 -122 -66q-56 0 -86.5 17t-39.5 50q-24 -67 -141 -67q-61 0 -94.5 16.5t-44.5 53.5q-11 -37 -49 -53.5t-113 -16.5l-17 3v27l17 3q59 0 90.5 9t45 32t13.5 67v101q0 7 4 11t10 4t10 -4t4 -11v-101q0 -62 29 -85
t96 -23q69 0 99 22.5t30 77.5v109q0 15 14 15q5 0 9 -4t4 -11v-109q0 -56 24 -78t87 -22q58 0 83 22.5t25 76.5v110q0 15 14 15q5 0 9 -4t4 -11v-110q0 -37 13 -58.5t44.5 -31t86.5 -9.5z" />
    <glyph glyph-name="uniFEB6" unicode="&#x634;" horiz-adv-x="1251" arabic-form="final" 
d="M1268 30v-27l-17 -3q-69 0 -107 16.5t-50 49.5q-11 -32 -42 -49t-82 -17q-57 0 -87.5 16.5t-39.5 49.5q-24 -66 -133 -66q-53 0 -80 8t-37 25q-1 -93 -29.5 -149t-90 -82t-164.5 -26q-100 0 -159 25t-85.5 77.5t-26.5 139.5q0 46 8 86t17.5 66t13.5 37q4 7 9.5 10t10.5 1
q9 -3 9 -13l-2 -8q-1 -3 -19 -49.5t-18 -129.5q0 -77 23.5 -122t76 -66t143.5 -21q95 0 150.5 22.5t80 71.5t24.5 133q-2 80 -27 205v4q0 13 12 14q13 0 16 -14q16 -79 25 -151q5 -37 31 -49t89 -12q65 0 93 22.5t28 77.5v109q0 15 14 15q5 0 9 -4t4 -11v-109q0 -56 24 -78
t87 -22q59 0 84.5 22.5t25.5 76.5v110q0 7 4 11t10 4t10 -4t4 -11v-110q0 -37 13 -58.5t44 -31t86 -9.5zM863.5 473.5q7.5 -7.5 7.5 -17.5q0 -9 -7.5 -16.5t-17.5 -7.5t-17.5 7.5t-7.5 16.5q0 10 7.5 17.5t17.5 7.5t17.5 -7.5zM814.5 395.5q7.5 -7.5 7.5 -17.5t-7.5 -17
t-17.5 -7t-17.5 7t-7.5 17t7.5 17.5t17.5 7.5t17.5 -7.5zM911.5 395.5q7.5 -7.5 7.5 -17.5t-7.5 -17t-17.5 -7q-11 0 -18.5 7t-7.5 17t8 17.5t18 7.5t17.5 -7.5z" />
    <glyph glyph-name="uniFEB7" unicode="&#x634;" horiz-adv-x="754" arabic-form="initial" 
d="M696.5 228.5q7.5 -34.5 7.5 -73.5q0 -82 -34 -118.5t-104 -36.5q-55 0 -85 16.5t-39 49.5q-26 -66 -141 -66q-61 0 -94.5 16.5t-44.5 53.5q-11 -37 -49 -53.5t-113 -16.5l-17 3v27l17 3q59 0 90.5 9t45 32t13.5 67v101q0 7 4 11t10 4t10 -4t4 -11v-101q0 -62 29 -85
t96 -23q69 0 99 22.5t30 77.5v109q0 15 14 15q5 0 9 -4t4 -11v-109q0 -56 23.5 -78t85.5 -22q59 0 84 26.5t25 93.5q0 38 -5.5 64t-14.5 59q-1 2 -1 6q0 9 11 13h2q10 0 14 -13q7 -19 14.5 -53.5zM461.5 473.5q7.5 -7.5 7.5 -17.5q0 -9 -7.5 -16.5t-17.5 -7.5t-17.5 7.5
t-7.5 16.5q0 10 7.5 17.5t17.5 7.5t17.5 -7.5zM412.5 395.5q7.5 -7.5 7.5 -17.5t-7.5 -17t-17.5 -7t-17.5 7t-7.5 17t7.5 17.5t17.5 7.5t17.5 -7.5zM509.5 395.5q7.5 -7.5 7.5 -17.5t-7.5 -17t-17.5 -7q-11 0 -18.5 7t-7.5 17t8 17.5t18 7.5t17.5 -7.5z" />
    <glyph glyph-name="uniFEB8" unicode="&#x634;" horiz-adv-x="848" arabic-form="medial" 
d="M865 30v-27l-17 -3q-70 0 -108 16.5t-50 49.5q-20 -66 -122 -66q-56 0 -86.5 17t-39.5 50q-24 -67 -141 -67q-61 0 -94.5 16.5t-44.5 53.5q-11 -37 -49 -53.5t-113 -16.5l-17 3v27l17 3q59 0 90.5 9t45 32t13.5 67v101q0 7 4 11t10 4t10 -4t4 -11v-101q0 -62 29 -85
t96 -23q69 0 99 22.5t30 77.5v109q0 15 14 15q5 0 9 -4t4 -11v-109q0 -56 24 -78t87 -22q58 0 83 22.5t25 76.5v110q0 15 14 15q5 0 9 -4t4 -11v-110q0 -37 13 -58.5t44.5 -31t86.5 -9.5zM461.5 472.5q7.5 -7.5 7.5 -17.5q0 -9 -7.5 -16.5t-17.5 -7.5t-17.5 7.5t-7.5 16.5
q0 10 7.5 17.5t17.5 7.5t17.5 -7.5zM412.5 394.5q7.5 -7.5 7.5 -17.5t-7.5 -17t-17.5 -7t-17.5 7t-7.5 17t7.5 17.5t17.5 7.5t17.5 -7.5zM509.5 394.5q7.5 -7.5 7.5 -17.5t-7.5 -17t-17.5 -7q-11 0 -18.5 7t-7.5 17t8 17.5t18 7.5t17.5 -7.5z" />
    <glyph glyph-name="uniFEBA" unicode="&#x635;" horiz-adv-x="1343" arabic-form="final" 
d="M1360 30v-27l-17 -3q-69 0 -104.5 16t-49.5 50q-24 -35 -72 -50.5t-128 -15.5h-282q-51 0 -77.5 8.5t-36.5 25.5q-1 -93 -29 -149t-90 -82.5t-165 -26.5q-100 0 -159 25t-85.5 77.5t-26.5 139.5q0 46 8 86t17.5 66t13.5 37q4 7 9.5 10t10.5 1q9 -3 9 -13l-2 -8
q-1 -3 -19 -49.5t-18 -129.5q0 -77 23.5 -122t76 -66t143.5 -21q95 0 150.5 22.5t80 71.5t24.5 133q-2 72 -27 205v4q0 13 12 14q13 0 16 -14q15 -81 24 -151q4 -25 16 -38.5t37 -18.5q72 134 133 212.5t120 112.5t126 34q56 0 100 -27t68.5 -77t24.5 -117q0 -44 -11 -79
q10 -33 41 -48t98 -15zM1107.5 46.5q42.5 13.5 61.5 43.5t19 83q0 57 -21.5 100t-59.5 66t-86 23q-92 0 -174.5 -76.5t-174.5 -251.5q10 -1 35 -1h284q74 0 116.5 13.5z" />
    <glyph glyph-name="uniFEBB" unicode="&#x635;" horiz-adv-x="881" arabic-form="initial" 
d="M738 369q44 -27 68.5 -77t24.5 -117q0 -65 -22 -103t-71.5 -55t-133.5 -17h-297q-61 0 -95.5 19t-45.5 58q-11 -39 -50.5 -58t-115.5 -19l-17 3v27l17 3q60 0 93 11t47 35.5t14 68.5v94q0 7 4 11t10 4q5 0 9 -4t4 -11v-94q0 -50 19 -76.5t59 -34.5q72 134 133 212.5
t120 112.5t126 34q56 0 100 -27zM723.5 46.5q42.5 13.5 61.5 43.5t19 83q0 57 -21.5 100t-59.5 66t-86 23q-92 0 -175 -76.5t-175 -251.5q6 -1 19 -1h301q74 0 116.5 13.5z" />
    <glyph glyph-name="uniFEBC" unicode="&#x635;" horiz-adv-x="958" arabic-form="medial" 
d="M975 30v-27l-17 -3q-68 0 -103.5 16t-49.5 49q-24 -34 -72.5 -49.5t-128.5 -15.5h-297q-61 0 -95.5 19t-45.5 58q-11 -39 -50.5 -58t-115.5 -19l-17 3v27l17 3q60 0 93 11t47 35.5t14 68.5v94q0 7 4 11t10 4q5 0 9 -4t4 -11v-94q0 -50 19 -76.5t59 -34.5
q72 134 133 212.5t120 112.5t126 34q56 0 100 -27t68.5 -77t24.5 -117q0 -47 -12 -80q11 -32 42.5 -47t96.5 -15zM723.5 46.5q42.5 13.5 61.5 43.5t19 83q0 57 -21.5 100t-59.5 66t-86 23q-92 0 -175 -76.5t-175 -251.5q6 -1 19 -1h301q74 0 116.5 13.5z" />
    <glyph glyph-name="uniFEBE" unicode="&#x636;" horiz-adv-x="1343" arabic-form="final" 
d="M1360 30v-27l-17 -3q-69 0 -104.5 16t-49.5 50q-24 -35 -72 -50.5t-128 -15.5h-282q-51 0 -77.5 8.5t-36.5 25.5q-1 -93 -29 -149t-90 -82.5t-165 -26.5q-100 0 -159 25t-85.5 77.5t-26.5 139.5q0 46 8 86t17.5 66t13.5 37q4 7 9.5 10t10.5 1q9 -3 9 -13l-2 -8
q-1 -3 -19 -49.5t-18 -129.5q0 -77 23.5 -122t76 -66t143.5 -21q95 0 150.5 22.5t80 71.5t24.5 133q-2 72 -27 205v4q0 13 12 14q13 0 16 -14q15 -81 24 -151q4 -25 16 -38.5t37 -18.5q72 134 133 212.5t120 112.5t126 34q56 0 100 -27t68.5 -77t24.5 -117q0 -44 -11 -79
q10 -33 41 -48t98 -15zM1107.5 46.5q42.5 13.5 61.5 43.5t19 83q0 57 -21.5 100t-59.5 66t-86 23q-92 0 -174.5 -76.5t-174.5 -251.5q10 -1 35 -1h284q74 0 116.5 13.5zM997 508.5q-8 7.5 -8 18.5t8 18.5t19 7.5t18.5 -7.5t7.5 -18.5q0 -10 -7.5 -18t-18.5 -8t-19 7.5z" />
    <glyph glyph-name="uniFEBF" unicode="&#x636;" horiz-adv-x="881" arabic-form="initial" 
d="M738 369q44 -27 68.5 -77t24.5 -117q0 -65 -22 -103t-71.5 -55t-133.5 -17h-297q-61 0 -95.5 19t-45.5 58q-11 -39 -50.5 -58t-115.5 -19l-17 3v27l17 3q60 0 93 11t47 35.5t14 68.5v94q0 7 4 11t10 4q5 0 9 -4t4 -11v-94q0 -50 19 -76.5t59 -34.5q72 134 133 212.5
t120 112.5t126 34q56 0 100 -27zM723.5 46.5q42.5 13.5 61.5 43.5t19 83q0 57 -21.5 100t-59.5 66t-86 23q-92 0 -175 -76.5t-175 -251.5q6 -1 19 -1h301q74 0 116.5 13.5zM619 506.5q-8 7.5 -8 18.5t8 18.5t19 7.5t18.5 -7.5t7.5 -18.5q0 -10 -7.5 -18t-18.5 -8t-19 7.5z
" />
    <glyph glyph-name="uniFEC0" unicode="&#x636;" horiz-adv-x="958" arabic-form="medial" 
d="M975 30v-27l-17 -3q-68 0 -103.5 16t-49.5 49q-24 -34 -72.5 -49.5t-128.5 -15.5h-297q-61 0 -95.5 19t-45.5 58q-11 -39 -50.5 -58t-115.5 -19l-17 3v27l17 3q60 0 93 11t47 35.5t14 68.5v94q0 7 4 11t10 4q5 0 9 -4t4 -11v-94q0 -50 19 -76.5t59 -34.5
q72 134 133 212.5t120 112.5t126 34q56 0 100 -27t68.5 -77t24.5 -117q0 -47 -12 -80q11 -32 42.5 -47t96.5 -15zM723.5 46.5q42.5 13.5 61.5 43.5t19 83q0 57 -21.5 100t-59.5 66t-86 23q-92 0 -175 -76.5t-175 -251.5q6 -1 19 -1h301q74 0 116.5 13.5zM619 506.5
q-8 7.5 -8 18.5t8 18.5t19 7.5t18.5 -7.5t7.5 -18.5q0 -10 -7.5 -18t-18.5 -8t-19 7.5z" />
    <glyph glyph-name="uniFEC2" unicode="&#x637;" horiz-adv-x="846" arabic-form="final" 
d="M863 30v-27l-17 -3q-67 0 -102.5 15.5t-49.5 47.5q-24 -33 -72 -48t-127 -15h-184q-115 0 -171 4.5t-88 14.5q-16 7 -13 21q2 6 7.5 9.5t12.5 1.5q37 -11 90 -14q26 50 59 105v554q0 6 4 10t11 4q6 0 10 -4t4 -10v-485q0 -15 -5 -30q77 117 145.5 166t149.5 49
q57 0 101 -27t68.5 -77t24.5 -117q0 -49 -12 -84q11 -30 42 -44t95 -14zM611.5 46q42.5 13 62.5 43.5t20 83.5q0 86 -46.5 137.5t-120.5 51.5q-63 0 -118.5 -32.5t-111.5 -104t-119 -190.5q70 -2 133 -2h186q72 0 114.5 13z" />
    <glyph glyph-name="uniFEC3" unicode="&#x637;" horiz-adv-x="674" arabic-form="initial" 
d="M531 369q44 -27 68.5 -77t24.5 -117q0 -65 -22 -103t-70.5 -55t-133.5 -17h-398l-17 4v26l17 3h50q33 62 61 109v554q0 6 4 10t11 4q6 0 10 -4t4 -10v-485q0 -12 -4 -30q76 117 144.5 166t149.5 49q57 0 101 -27zM514.5 46q42.5 13 62.5 43.5t20 83.5q0 86 -46.5 137.5
t-120.5 51.5q-63 0 -118.5 -32.5t-111.5 -104.5t-120 -192h320q72 0 114.5 13z" />
    <glyph glyph-name="uniFEC4" unicode="&#x637;" horiz-adv-x="748" arabic-form="medial" 
d="M765 30v-27l-17 -3q-66 0 -101.5 15t-50.5 47q-24 -33 -71.5 -47.5t-126.5 -14.5h-398l-17 4v26l17 3h50q33 62 61 109v554q0 6 4 10t11 4q6 0 10 -4t4 -10v-485q0 -12 -4 -30q76 117 144.5 166t149.5 49q57 0 101 -27t68.5 -77t24.5 -117q0 -52 -13 -85q12 -30 43 -43.5
t94 -13.5zM514.5 46q42.5 13 62.5 43.5t20 83.5q0 86 -46.5 137.5t-120.5 51.5q-63 0 -118.5 -32.5t-111.5 -104.5t-120 -192h320q72 0 114.5 13z" />
    <glyph glyph-name="uniFEC6" unicode="&#x638;" horiz-adv-x="846" arabic-form="final" 
d="M863 30v-27l-17 -3q-67 0 -102.5 15.5t-49.5 47.5q-24 -33 -72 -48t-127 -15h-184q-115 0 -171 4.5t-88 14.5q-16 7 -13 21q2 6 7.5 9.5t12.5 1.5q37 -11 90 -14q26 50 59 105v554q0 6 4 10t11 4q6 0 10 -4t4 -10v-485q0 -15 -5 -30q77 117 145.5 166t149.5 49
q57 0 101 -27t68.5 -77t24.5 -117q0 -49 -12 -84q11 -30 42 -44t95 -14zM611.5 46q42.5 13 62.5 43.5t20 83.5q0 86 -46.5 137.5t-120.5 51.5q-63 0 -118.5 -32.5t-111.5 -104t-119 -190.5q70 -2 133 -2h186q72 0 114.5 13zM507 508.5q-8 7.5 -8 18.5t8 18.5t19 7.5
t18.5 -7.5t7.5 -18.5q0 -10 -7.5 -18t-18.5 -8t-19 7.5z" />
    <glyph glyph-name="uniFEC7" unicode="&#x638;" horiz-adv-x="674" arabic-form="initial" 
d="M531 369q44 -27 68.5 -77t24.5 -117q0 -65 -22 -103t-70.5 -55t-133.5 -17h-398l-17 4v26l17 3h50q33 62 61 109v554q0 6 4 10t11 4q6 0 10 -4t4 -10v-485q0 -12 -4 -30q76 117 144.5 166t149.5 49q57 0 101 -27zM514.5 46q42.5 13 62.5 43.5t20 83.5q0 86 -46.5 137.5
t-120.5 51.5q-63 0 -118.5 -32.5t-111.5 -104.5t-120 -192h320q72 0 114.5 13zM403 506.5q-8 7.5 -8 18.5t8 18.5t19 7.5t18.5 -7.5t7.5 -18.5q0 -10 -7.5 -18t-18.5 -8t-19 7.5z" />
    <glyph glyph-name="uniFEC8" unicode="&#x638;" horiz-adv-x="748" arabic-form="medial" 
d="M765 30v-27l-17 -3q-66 0 -101.5 15t-50.5 47q-24 -33 -71.5 -47.5t-126.5 -14.5h-398l-17 4v26l17 3h50q33 62 61 109v554q0 6 4 10t11 4q6 0 10 -4t4 -10v-485q0 -12 -4 -30q76 117 144.5 166t149.5 49q57 0 101 -27t68.5 -77t24.5 -117q0 -52 -13 -85q12 -30 43 -43.5
t94 -13.5zM514.5 46q42.5 13 62.5 43.5t20 83.5q0 86 -46.5 137.5t-120.5 51.5q-63 0 -118.5 -32.5t-111.5 -104.5t-120 -192h320q72 0 114.5 13zM403 506.5q-8 7.5 -8 18.5t8 18.5t19 7.5t18.5 -7.5t7.5 -18.5q0 -10 -7.5 -18t-18.5 -8t-19 7.5z" />
    <glyph glyph-name="uniFECA" unicode="&#x639;" horiz-adv-x="531" arabic-form="final" 
d="M155 -0.5q-41 -28.5 -66 -65.5t-25 -86q0 -78 51 -122t179 -44q78 0 136 11.5t86 23.5q2 1 6 1q10 0 13 -9q1 -2 1 -5q0 -12 -12 -16q-26 -13 -87.5 -26t-145.5 -13q-135 0 -194 51t-59 146q0 60 27.5 102t67.5 70.5t117 73.5q-34 40 -82.5 101.5t-72.5 95.5
q-15 23 -15 36q0 6 1 9q3 21 25 33q32 20 79 32t105 12q90 0 132 -30.5t42 -91.5t-49 -110.5t-119 -92.5q22 -23 44.5 -34t57 -15t95.5 -4h38l17 -3v-27l-17 -3h-39q-63 0 -100.5 5.5t-65.5 20t-55 44.5q-75 -42 -116 -70.5zM176 362.5q-49 -14.5 -73 -33.5
q16 -27 81 -109.5t93 -112.5q161 95 161 179q0 47 -36 69t-115 22q-62 0 -111 -14.5z" />
    <glyph glyph-name="uniFECB" unicode="&#x639;" horiz-adv-x="498" arabic-form="initial" 
d="M455 48q0 -11 -14 -15q-82 -19 -178.5 -26t-262.5 -7l-17 3v27l17 3q101 0 135 1q-34 19 -55.5 58t-21.5 100q0 98 51.5 151.5t141.5 53.5q42 0 74.5 -12.5t50.5 -23.5q15 -9 11 -21q-2 -6 -7.5 -8.5t-12.5 0.5q-4 1 -35.5 16t-80.5 15q-77 0 -121.5 -45t-44.5 -126
q0 -72 38.5 -112.5t118.5 -40.5q81 0 194 25h2q7 0 11.5 -3.5t5.5 -10.5v-2z" />
    <glyph glyph-name="uniFECC" unicode="&#x639;" horiz-adv-x="501" arabic-form="medial" 
d="M518 30v-27l-17 -3h-39q-92 0 -136 10.5t-83 44.5q-95 -55 -226 -55h-17l-17 3v27l17 3h20q113 0 201 44q-29 31 -78 93t-76 102q-19 26 -16 48q4 20 26 32q32 19 79 31.5t104 12.5q90 0 132 -30.5t42 -91.5t-47 -109t-118 -92q30 -24 68.5 -32t125.5 -8h38zM148.5 347.5
q-48.5 -14.5 -73.5 -32.5q19 -31 82 -114t91 -109q160 94 160 179q0 47 -36 69t-115 22q-60 0 -108.5 -14.5z" />
    <glyph glyph-name="uniFECE" unicode="&#x63a;" horiz-adv-x="531" arabic-form="final" 
d="M155 -0.5q-41 -28.5 -66 -65.5t-25 -86q0 -78 51 -122t179 -44q78 0 136 11.5t86 23.5q2 1 6 1q10 0 13 -9q1 -2 1 -5q0 -12 -12 -16q-26 -13 -87.5 -26t-145.5 -13q-135 0 -194 51t-59 146q0 60 27.5 102t67.5 70.5t117 73.5q-34 40 -82.5 101.5t-72.5 95.5
q-15 23 -15 36q0 6 1 9q3 21 25 33q32 20 79 32t105 12q90 0 132 -30.5t42 -91.5t-49 -110.5t-119 -92.5q22 -23 44.5 -34t57 -15t95.5 -4h38l17 -3v-27l-17 -3h-39q-63 0 -100.5 5.5t-65.5 20t-55 44.5q-75 -42 -116 -70.5zM176 362.5q-49 -14.5 -73 -33.5
q16 -27 81 -109.5t93 -112.5q161 95 161 179q0 47 -36 69t-115 22q-62 0 -111 -14.5zM268 521.5q-8 7.5 -8 18.5t8 18.5t19 7.5t18.5 -7.5t7.5 -18.5q0 -10 -7.5 -18t-18.5 -8t-19 7.5z" />
    <glyph glyph-name="uniFECF" unicode="&#x63a;" horiz-adv-x="498" arabic-form="initial" 
d="M455 48q0 -11 -14 -15q-82 -19 -178.5 -26t-262.5 -7l-17 3v27l17 3q101 0 135 1q-34 19 -55.5 58t-21.5 100q0 98 51.5 151.5t141.5 53.5q42 0 74.5 -12.5t50.5 -23.5q15 -9 11 -21q-2 -6 -7.5 -8.5t-12.5 0.5q-4 1 -35.5 16t-80.5 15q-77 0 -121.5 -45t-44.5 -126
q0 -72 38.5 -112.5t118.5 -40.5q81 0 194 25h2q7 0 11.5 -3.5t5.5 -10.5v-2zM229 507.5q-8 7.5 -8 18.5t8 18.5t19 7.5t18.5 -7.5t7.5 -18.5q0 -10 -7.5 -18t-18.5 -8t-19 7.5z" />
    <glyph glyph-name="uniFED0" unicode="&#x63a;" horiz-adv-x="501" arabic-form="medial" 
d="M518 30v-27l-17 -3h-39q-92 0 -136 10.5t-83 44.5q-95 -55 -226 -55h-17l-17 3v27l17 3h20q113 0 201 44q-29 31 -78 93t-76 102q-19 26 -16 48q4 20 26 32q32 19 79 31.5t104 12.5q90 0 132 -30.5t42 -91.5t-47 -109t-118 -92q30 -24 68.5 -32t125.5 -8h38zM148.5 347.5
q-48.5 -14.5 -73.5 -32.5q19 -31 82 -114t91 -109q160 94 160 179q0 47 -36 69t-115 22q-60 0 -108.5 -14.5zM235 506.5q-8 7.5 -8 18.5t8 18.5t19 7.5t18.5 -7.5t7.5 -18.5q0 -10 -7.5 -18t-18.5 -8t-19 7.5z" />
    <glyph glyph-name="uniFED2" unicode="&#x641;" horiz-adv-x="888" arabic-form="final" 
d="M905 30v-27l-18 -3q-139 0 -228 40q-51 -23 -120 -31.5t-182 -8.5q-121 0 -189.5 19.5t-99 66.5t-30.5 132q0 38 7 75.5t12 48.5q4 13 14 13q7 0 10.5 -5.5t1.5 -13.5q-4 -16 -10.5 -49t-6.5 -63q0 -74 28 -115t90.5 -58.5t174.5 -17.5q96 0 158.5 6t109.5 18
q-70 30 -99 71t-29 109q0 87 43 134t116 47t115.5 -47t42.5 -134q0 -67 -29 -108t-97 -70q76 -26 197 -26zM536 167.5q11 -27.5 40 -50t83 -46.5q52 23 80 45t39.5 50.5t11.5 70.5q0 72 -35.5 109.5t-96.5 37.5q-62 0 -97.5 -37.5t-35.5 -109.5q0 -42 11 -69.5zM639 528.5
q-8 7.5 -8 18.5t8 18.5t19 7.5t18.5 -7.5t7.5 -18.5q0 -10 -7.5 -18t-18.5 -8t-19 7.5z" />
    <glyph glyph-name="uniFED3" unicode="&#x641;" horiz-adv-x="406" arabic-form="initial" 
d="M314.5 429.5q41.5 -59.5 41.5 -157.5v-48q0 -89 -22.5 -136.5t-75.5 -67.5t-153 -20h-105l-17 3v27l17 3h104q92 0 139.5 15.5t67 53.5t19.5 111v18q-15 -28 -51.5 -42.5t-91.5 -14.5q-78 0 -113.5 31.5t-35.5 100.5q0 53 20.5 94.5t57 65t81.5 23.5q76 0 117.5 -59.5z
M330 257v18q0 81 -34.5 130.5t-99.5 49.5q-57 0 -94.5 -41.5t-37.5 -106.5q0 -54 28.5 -78t96.5 -24q110 0 141 52zM178 599.5q-8 7.5 -8 18.5t8 18.5t19 7.5t18.5 -7.5t7.5 -18.5q0 -10 -7.5 -18t-18.5 -8t-19 7.5z" />
    <glyph glyph-name="uniFED4" unicode="&#x641;" horiz-adv-x="461" arabic-form="medial" 
d="M478 30l-3 -27l-15 -3q-139 0 -234 42q-88 -42 -225 -42l-18 3v27l18 3q119 0 196 25q-68 29 -96.5 69.5t-28.5 106.5q0 87 42.5 133.5t115.5 46.5q74 0 116.5 -46.5t42.5 -133.5q0 -67 -29 -106.5t-97 -68.5q76 -26 197 -26zM109 165q11 -27 39.5 -48.5t82.5 -44.5
q53 23 81.5 44.5t39.5 49t11 68.5q0 72 -35.5 109t-97.5 37q-61 0 -96.5 -37t-35.5 -109q0 -42 11 -69zM211 524.5q-8 7.5 -8 18.5t8 18.5t19 7.5t18.5 -7.5t7.5 -18.5q0 -10 -7.5 -18t-18.5 -8t-19 7.5z" />
    <glyph glyph-name="uniFED6" unicode="&#x642;" horiz-adv-x="766" arabic-form="final" 
d="M783 28v-24l-17 -4h-98q-9 -84 -42.5 -130.5t-99 -66t-177.5 -19.5q-118 0 -185 24t-96.5 76.5t-29.5 144.5q0 57 11.5 107t20.5 72q6 14 19 11q6 -1 8.5 -6.5t-0.5 -12.5q-8 -24 -19 -73.5t-11 -95.5q0 -81 26 -127t87 -66.5t170 -20.5q104 0 164.5 16t91 55.5
t37.5 111.5h-149q-84 0 -121 33t-37 103q0 56 22 100t60 68.5t86 24.5q79 0 123 -62t44 -163v-31q0 -27 -1 -40h96zM646 32v25v47q0 84 -37.5 138t-105.5 54q-61 0 -101 -45t-40 -114q0 -55 30.5 -80t103.5 -25h150zM437.5 437.5q-7.5 7.5 -7.5 17.5t7.5 17.5t17.5 7.5
t17.5 -7.5t7.5 -17.5t-7.5 -17.5t-17.5 -7.5t-17.5 7.5zM534 437.5q-8 7.5 -8 17.5t8 17.5t18 7.5t17.5 -7.5t7.5 -17.5t-7.5 -17.5t-17.5 -7.5t-18 7.5z" />
    <glyph glyph-name="uniFED7" unicode="&#x642;" horiz-adv-x="406" arabic-form="initial" 
d="M314.5 429.5q41.5 -59.5 41.5 -157.5v-48q0 -89 -22.5 -136.5t-75.5 -67.5t-153 -20h-105l-17 3v27l17 3h104q92 0 139.5 15.5t67 53.5t19.5 111v18q-15 -28 -51.5 -42.5t-91.5 -14.5q-78 0 -113.5 31.5t-35.5 100.5q0 53 20.5 94.5t57 65t81.5 23.5q76 0 117.5 -59.5z
M330 257v18q0 81 -34.5 130.5t-99.5 49.5q-57 0 -94.5 -41.5t-37.5 -106.5q0 -54 28.5 -78t96.5 -24q110 0 141 52zM130.5 597.5q-7.5 7.5 -7.5 17.5t7.5 17.5t17.5 7.5t17.5 -7.5t7.5 -17.5t-7.5 -17.5t-17.5 -7.5t-17.5 7.5zM227 597.5q-8 7.5 -8 17.5t8 17.5t18 7.5
t17.5 -7.5t7.5 -17.5t-7.5 -17.5t-17.5 -7.5t-18 7.5z" />
    <glyph glyph-name="uniFED8" unicode="&#x642;" horiz-adv-x="461" arabic-form="medial" 
d="M478 30l-3 -27l-15 -3q-139 0 -234 42q-88 -42 -225 -42l-18 3v27l18 3q119 0 196 25q-68 29 -96.5 69.5t-28.5 106.5q0 87 42.5 133.5t115.5 46.5q74 0 116.5 -46.5t42.5 -133.5q0 -67 -29 -106.5t-97 -68.5q76 -26 197 -26zM109 165q11 -27 39.5 -48.5t82.5 -44.5
q53 23 81.5 44.5t39.5 49t11 68.5q0 72 -35.5 109t-97.5 37q-61 0 -96.5 -37t-35.5 -109q0 -42 11 -69zM163.5 522.5q-7.5 7.5 -7.5 17.5t7.5 17.5t17.5 7.5t17.5 -7.5t7.5 -17.5t-7.5 -17.5t-17.5 -7.5t-17.5 7.5zM260 522.5q-8 7.5 -8 17.5t8 17.5t18 7.5t17.5 -7.5
t7.5 -17.5t-7.5 -17.5t-17.5 -7.5t-18 7.5z" />
    <glyph glyph-name="uniFEDA" unicode="&#x643;" horiz-adv-x="870" arabic-form="final" 
d="M887 30v-27l-17 -3q-81 0 -119 24t-48 86q-27 -61 -105.5 -85.5t-232.5 -24.5q-123 0 -194 19t-102 62t-31 119q0 33 6 63t12 47q5 15 16 13q7 -1 9.5 -6.5t0.5 -12.5q-6 -16 -11.5 -43.5t-5.5 -56.5q0 -66 28 -102.5t92.5 -52.5t179.5 -16q127 0 196.5 14.5t100 51
t30.5 105.5v489q0 17 15 17q14 0 14 -17v-518q0 -58 14 -88.5t45.5 -42t89.5 -11.5zM272.5 290q-3.5 4 -3.5 9q0 16 18 13q3 -1 18 -3.5t49 -2.5q62 0 89.5 12t27.5 37q0 23 -14.5 33.5t-57.5 24.5q-44 15 -60.5 28.5t-16.5 40.5q0 20 12 34.5t41 29.5t85 35q3 1 7 1
q12 0 12 -11q0 -12 -14 -16q-73 -26 -96.5 -40.5t-23.5 -31.5t12.5 -24.5t56.5 -22.5t61.5 -30.5t17.5 -50.5q0 -38 -32.5 -57.5t-105.5 -19.5q-41 0 -73 7q-6 1 -9.5 5z" />
    <glyph glyph-name="uniFEDB" unicode="&#x643;" horiz-adv-x="430" arabic-form="initial" 
d="M423 697q0 -8 -10 -15l-358 -238q121 -55 186.5 -98t94 -86.5t28.5 -99.5q0 -85 -64 -122.5t-160 -37.5h-139l-18 3v27l18 3h139q79 0 138.5 26.5t59.5 97.5q0 47 -25 85t-88 79t-182 95q-21 9 -21 26q0 14 12 22l364 243q5 4 12 4q8 0 11 -7q2 -4 2 -7z" />
    <glyph glyph-name="uniFEDC" unicode="&#x643;" horiz-adv-x="501" arabic-form="medial" 
d="M518 30v-27l-17 -3q-47 0 -78 9.5t-58 33.5t-60 69q-11 -56 -57.5 -84t-158.5 -28h-88l-18 3v27l18 3h87q77 0 119 11.5t59 32t21 54.5q-67 94 -167 231l-46 64q-10 15 -10 27q0 13 19 25l353 229q5 4 12 4q8 0 11 -7q2 -4 2 -7q0 -8 -10 -15l-357 -232l142 -195l72 -100
q38 -53 65.5 -78.5t55.5 -34.5t72 -9z" />
    <glyph glyph-name="uniFEDE" unicode="&#x644;" horiz-adv-x="695" arabic-form="final" 
d="M712 30v-27l-17 -3q-60 0 -95.5 12.5t-53.5 43.5q-4 -133 -65 -191.5t-195 -58.5q-132 0 -190 55.5t-58 178.5q0 60 13.5 103.5t25.5 68.5q3 6 8.5 9t10.5 1q9 -3 9 -13l-2 -8q-1 -2 -18.5 -41t-17.5 -114q0 -74 21.5 -119t69 -66t128.5 -21q87 0 137 22.5t72 74
t22 141.5v615q0 17 15 17q6 0 10 -4.5t4 -12.5v-518q0 -58 14 -88.5t45.5 -42t89.5 -11.5z" />
    <glyph glyph-name="uniFEDF" unicode="&#x644;" horiz-adv-x="276" arabic-form="initial" 
d="M168 93.5q-12 -44.5 -50.5 -69t-117.5 -24.5l-17 3v27l17 3q70 0 102.5 20.5t40.5 55t8 97.5v487q0 17 15 17q14 0 14 -17v-479q0 -76 -12 -120.5z" />
    <glyph glyph-name="uniFEE0" unicode="&#x644;" horiz-adv-x="329" arabic-form="medial" 
d="M346 30v-27l-17 -3q-74 0 -112 20t-50 69q-15 -45 -54 -67t-113 -22l-17 3v27l17 3q70 0 102.5 20.5t40.5 55t8 97.5v487q0 17 15 17q14 0 14 -17v-518q0 -58 14 -88.5t45.5 -42t89.5 -11.5z" />
    <glyph glyph-name="uniFEE2" unicode="&#x645;" horiz-adv-x="660" arabic-form="final" 
d="M677 30v-27l-17 -3q-65 0 -98 20.5t-49 68.5q-20 -44 -60 -67t-109 -23q-104 0 -139 54l-34 -14q-61 -25 -78.5 -35t-17.5 -27l1 -295q0 -17 -15 -17t-15 17v294q0 40 34 58q31 16 111 47q-8 27 -8 60q0 58 23 102.5t61.5 68.5t82.5 24q67 0 105 -40.5t59 -111.5l17 -57
q11 -38 25.5 -58t38.5 -28t65 -8zM505 114l-16 52q-19 67 -51.5 101.5t-88.5 34.5q-37 0 -69 -19.5t-51 -56t-19 -84.5q0 -57 31.5 -83.5t104.5 -26.5q124 0 159 82z" />
    <glyph glyph-name="uniFEE3" unicode="&#x645;" horiz-adv-x="516" arabic-form="initial" 
d="M425 283.5q41 -52.5 41 -140.5q0 -144 -170 -144q-127 0 -155 83q-18 -49 -52.5 -65.5t-87.5 -16.5l-18 3v27l18 3q34 0 55.5 5t40.5 25t30 63l16 59q19 73 61 112t107 39q73 0 114 -52.5zM406.5 59q33.5 27 33.5 83q0 76 -35 118t-95 42q-54 0 -90 -33t-53 -96l-14 -53
q8 -39 39 -63.5t103 -24.5q78 0 111.5 27z" />
    <glyph glyph-name="uniFEE4" unicode="&#x645;" horiz-adv-x="624" arabic-form="medial" 
d="M641 30v-27l-17 -3q-65 0 -99 21t-49 69q-19 -45 -59.5 -68t-109.5 -23q-66 0 -102.5 20.5t-49.5 62.5q-12 -45 -49 -63.5t-106 -18.5l-16 3l-1 27l17 3q73 0 107 19t41 72q-1 5 -1 17q0 59 23 103t61 68t83 24q67 0 105 -40.5t58 -111.5l17 -57q16 -56 43 -75t87 -19z
M413.5 53.5q37.5 21.5 54.5 59.5l-15 53q-21 68 -53 102t-88 34q-37 0 -68.5 -19.5t-51 -56t-19.5 -84.5q0 -57 31.5 -83.5t105.5 -26.5q66 0 103.5 21.5z" />
    <glyph glyph-name="uniFEE6" unicode="&#x646;" horiz-adv-x="708" arabic-form="final" 
d="M725 30v-27l-17 -3q-46 0 -73.5 12t-41.5 37v-6q0 -95 -28 -153.5t-90 -86t-166 -27.5q-99 0 -158.5 26t-86 80t-26.5 143q0 63 13.5 109t25.5 70q2 6 7.5 9t11.5 1q9 -3 9 -13l-2 -8q-36 -81 -36 -168q0 -79 23.5 -126t76.5 -68.5t143 -21.5q94 0 149.5 23t80.5 72
t25 132q0 81 -15 199v2q0 6 4 10t10 4q13 0 15 -14q9 -67 11 -106q5 -39 16 -60t34.5 -29.5t67.5 -8.5zM303 377.5q-8 7.5 -8 18.5t8 18.5t19 7.5t18.5 -7.5t7.5 -18.5q0 -10 -7.5 -18t-18.5 -8t-19 7.5z" />
    <glyph glyph-name="uniFEE7" unicode="&#x646;" horiz-adv-x="229" arabic-form="initial" 
d="M-17 3v27l17 3q80 0 116 40t36 127q0 66 -13 128l-1 5q0 6 4 9.5t10 3.5q13 0 14 -15q13 -57 13 -131q0 -106 -46.5 -153t-132.5 -47zM130 456.5q-8 7.5 -8 18.5t8 18.5t19 7.5t18.5 -7.5t7.5 -18.5q0 -10 -7.5 -18t-18.5 -8t-19 7.5z" />
    <glyph glyph-name="uniFEE8" unicode="&#x646;" horiz-adv-x="329" arabic-form="medial" 
d="M346 30v-27l-17 -3q-77 0 -115 21t-48 73q-11 -52 -50.5 -73t-115.5 -21l-16 3l-1 27l17 3q58 0 90.5 11.5t47.5 42t15 87.5v102q0 7 4 11t10 4t10 -4t4 -11v-103q0 -57 14 -87t45.5 -41.5t88.5 -11.5zM148 401.5q-8 7.5 -8 18.5t8 18.5t19 7.5t18.5 -7.5t7.5 -18.5
q0 -10 -7.5 -18t-18.5 -8t-19 7.5z" />
    <glyph glyph-name="uniFEE9" unicode="&#x647;" horiz-adv-x="438" arabic-form="isolated" 
d="M78.5 36.5q40.5 -36.5 134.5 -36.5t134.5 37t40.5 114q0 119 -45.5 179.5t-129.5 60.5t-129.5 -60.5t-45.5 -179.5q0 -78 40.5 -114.5zM103 305.5q39 51.5 110 51.5t110 -51.5t39 -154.5q0 -61 -34 -89.5t-115 -28.5t-115 28.5t-34 89.5q0 103 39 154.5z" />
    <glyph glyph-name="uniFEEA" unicode="&#x647;" horiz-adv-x="479" arabic-form="final" 
d="M496 30v-27l-17 -3q-76 0 -109.5 33.5t-38.5 115.5q-15 -22 -51 -35t-91 -13q-80 0 -115.5 32t-35.5 91q0 45 28 79t90.5 66t173.5 69v58q0 15 14 15t14 -15v-303q0 -66 10 -99.5t35.5 -47t75.5 -13.5zM281.5 146.5q35.5 12.5 48.5 34.5v8v219q-101 -36 -158 -63.5
t-82.5 -56t-25.5 -63.5q0 -47 31.5 -69t97.5 -22q53 0 88.5 12.5z" />
    <glyph glyph-name="uniFEEB" unicode="&#x647;" horiz-adv-x="602" arabic-form="initial" 
d="M397.5 356.5q80.5 -41.5 117.5 -92t37 -115.5q0 -149 -157 -149q-89 0 -172 40q-44 -20 -94 -30t-129 -10l-17 3v27l17 3q129 0 195 23q-50 32 -80 73t-30 100q0 67 25 112.5t75 59.5l-10 2q-13 3 -13 16q0 9 6.5 13.5t15.5 1.5q133 -36 213.5 -77.5zM228 71
q52 26 83.5 62t31.5 95q0 70 -27.5 111t-87.5 41t-89 -42.5t-29 -106.5q0 -98 118 -160zM526 147q0 69 -46 116.5t-142 88.5q30 -45 30 -124q0 -61 -30.5 -101t-79.5 -69q67 -25 137 -25q131 0 131 114z" />
    <glyph glyph-name="uniFEEC" unicode="&#x647;" horiz-adv-x="492" arabic-form="medial" 
d="M509 30v-27l-17 -3h-115q35 -13 50 -37.5t15 -59.5q0 -68 -43 -107.5t-120 -39.5q-97 0 -145.5 62.5t-50.5 181.5h-82l-18 3v27l18 3h82v36q0 139 41 209t120 70q67 0 104.5 -53.5t37.5 -144.5q0 -47 -12.5 -75.5t-40.5 -41.5h159zM142 254q-33 -61 -33 -185v-37h114
q45 0 74 8.5t46 33t17 72.5q0 79 -30.5 124t-86.5 45q-68 0 -101 -61zM270 18v3h-3zM377.5 -21.5q-38.5 24.5 -137.5 24.5h-131q2 -104 44.5 -159t126.5 -55q64 0 100 30.5t36 84.5q0 50 -38.5 74.5z" />
    <glyph glyph-name="uniFEEE" unicode="&#x648;" horiz-adv-x="466" arabic-form="final" 
d="M483 27v-24l-17 -3h-77q-14 -113 -73 -176t-161 -63q-42 0 -74 8.5t-48 18.5q-5 2 -8.5 7t-3.5 11q0 9 7 13t15 0q20 -12 49 -18.5t62 -6.5q93 0 145 54.5t64 152.5h-148q-83 0 -120.5 33t-37.5 103q0 55 22 99t60 68.5t86 24.5q79 0 123.5 -64t44.5 -170v-24
q0 -26 -1 -38h74zM366 32q1 6 1 19v45q0 88 -37.5 144t-105.5 56q-61 0 -100.5 -44.5t-39.5 -113.5q0 -55 30 -80.5t103 -25.5h149z" />
    <glyph glyph-name="uniFEF0" unicode="&#x649;" horiz-adv-x="678" arabic-form="final" 
d="M695 30v-27l-17 -3h-91l-22 1q67 -33 67 -104q0 -84 -80 -132t-222 -48q-150 0 -221 59.5t-71 184.5q0 55 12.5 102t23.5 70q5 12 15 12q6 0 10 -3.5t4 -9.5l-2 -8q-1 -2 -17.5 -46t-16.5 -117q0 -109 63.5 -160t201.5 -51q129 0 201.5 39t72.5 108q0 50 -36 73t-113 37
q-7 1 -12 6t-5 11q1 7 6 12t13 4q63 -7 199 -7h20z" />
    <glyph glyph-name="uniFEF2" unicode="&#x64a;" horiz-adv-x="678" arabic-form="final" 
d="M695 30v-27l-17 -3h-91l-22 1q67 -33 67 -104q0 -84 -80 -132t-222 -48q-150 0 -221 59.5t-71 184.5q0 55 12.5 102t23.5 70q5 12 15 12q6 0 10 -3.5t4 -9.5l-2 -8q-1 -2 -17.5 -46t-16.5 -117q0 -109 63.5 -160t201.5 -51q129 0 201.5 39t72.5 108q0 50 -36 73t-113 37
q-7 1 -12 6t-5 11q1 7 6 12t13 4q63 -7 199 -7h20zM263.5 -418.5q-7.5 7.5 -7.5 17.5t7.5 17.5t17.5 7.5t17.5 -7.5t7.5 -17.5t-7.5 -17.5t-17.5 -7.5t-17.5 7.5zM360 -418.5q-8 7.5 -8 17.5t8 17.5t18 7.5t17.5 -7.5t7.5 -17.5t-7.5 -17.5t-17.5 -7.5t-18 7.5z" />
    <glyph glyph-name="uniFEF3" unicode="&#x64a;" horiz-adv-x="229" arabic-form="initial" 
d="M-17 3v27l17 3q80 0 116 40t36 127q0 66 -13 128l-1 5q0 6 4 9.5t10 3.5q13 0 14 -15q13 -57 13 -131q0 -106 -46.5 -153t-132.5 -47zM12 -137q-7 7 -7 17q0 9 7 16t17 7q9 0 16 -7t7 -16q0 -10 -7 -17t-16 -7q-10 0 -17 7zM103.5 -137q-7.5 7 -7.5 17q0 9 7.5 16t17.5 7
q9 0 16 -7t7 -16q0 -10 -7 -17t-16 -7q-10 0 -17.5 7z" />
    <glyph glyph-name="uniFEF4" unicode="&#x64a;" horiz-adv-x="329" arabic-form="medial" 
d="M346 30v-27l-17 -3q-77 0 -115 21t-48 73q-11 -52 -50.5 -73t-115.5 -21l-16 3l-1 27l17 3q58 0 90.5 11.5t47.5 42t15 87.5v102q0 7 4 11t10 4t10 -4t4 -11v-103q0 -57 14 -87t45.5 -41.5t88.5 -11.5zM100.5 -135.5q-7.5 7.5 -7.5 17.5t7.5 17.5t17.5 7.5t17.5 -7.5
t7.5 -17.5t-7.5 -17.5t-17.5 -7.5t-17.5 7.5zM197 -135.5q-8 7.5 -8 17.5t8 17.5t18 7.5t17.5 -7.5t7.5 -17.5t-7.5 -17.5t-17.5 -7.5t-18 7.5z" />
    <glyph glyph-name=".notdef" horiz-adv-x="712" 
d="M107 702v-27h-27v27h27zM182 702v-27h-27v27h27zM257 702v-27h-27v27h27zM332 702v-27h-27v27h27zM407 702v-27h-27v27h27zM482 702v-27h-27v27h27zM557 702v-27h-27v27h27zM632 702v-27h-27v27h27zM107 627v-27h-27v27h27zM632 627v-27h-27v27h27zM107 552v-27h-27v27
h27zM257 552v-27h-27v27h27zM332 552v-27h-27v27h27zM407 552v-27h-27v27h27zM482 552v-27h-27v27h27zM632 552v-27h-27v27h27zM107 477v-27h-27v27h27zM482 477v-27h-27v27h27zM632 477v-27h-27v27h27zM107 402v-27h-27v27h27zM332 402v-27h-27v27h27zM407 402v-27h-27v27
h27zM482 402v-27h-27v27h27zM632 402v-27h-27v27h27zM107 327v-27h-27v27h27zM332 327v-27h-27v27h27zM632 327v-27h-27v27h27zM107 252v-27h-27v27h27zM632 252v-27h-27v27h27zM107 177v-27h-27v27h27zM332 177v-27h-27v27h27zM632 177v-27h-27v27h27zM107 102v-27h-27v27
h27zM632 102v-27h-27v27h27zM107 27v-27h-27v27h27zM182 27v-27h-27v27h27zM257 27v-27h-27v27h27zM332 27v-27h-27v27h27zM407 27v-27h-27v27h27zM482 27v-27h-27v27h27zM557 27v-27h-27v27h27zM632 27v-27h-27v27h27z" />
    <glyph glyph-name=".null" horiz-adv-x="0" 
 />
    <glyph glyph-name="nonmarkingreturn" unicode="&#xd;" horiz-adv-x="261" 
 />
    <glyph glyph-name="space" unicode=" " horiz-adv-x="200" 
 />
    <glyph glyph-name="exclam" unicode="!" horiz-adv-x="246" 
d="M137 204q0 -7 -4 -11.5t-10 -4.5q-7 0 -11 4.5t-4 11.5v493q0 7 4 11t11 4q6 0 10 -4t4 -11v-493zM104.5 21q-7.5 7 -7.5 17q0 11 8 18.5t18 7.5t17.5 -8t7.5 -18t-7.5 -17t-17.5 -7q-11 0 -18.5 7z" />
    <glyph glyph-name="quotedbl" unicode="&#x22;" horiz-adv-x="393" 
d="M79 748q0 6 5.5 11t11.5 5q7 0 12.5 -4.5t4.5 -11.5l-1 -245q0 -7 -4 -11.5t-11 -4.5t-11 4.5t-4 11.5zM279 748q0 6 5.5 11t11.5 5q7 0 12.5 -4.5t4.5 -11.5l-1 -245q0 -7 -4 -11.5t-11 -4.5t-11 4.5t-4 11.5z" />
    <glyph glyph-name="numbersign" unicode="#" horiz-adv-x="586" 
d="M393 218h95q13 0 13 -14q0 -15 -14 -15h-98l-23 -178q-1 -5 -5 -9t-9 -4q-7 0 -11.5 5t-3.5 12l22 174h-200l-23 -178q-1 -5 -5 -9t-10 -4q-7 0 -11.5 5t-2.5 12l22 174h-69q-14 0 -14 15q0 6 4 10t10 4h73l43 327h-79q-6 0 -10 4t-4 11t4 11t10 4h83l22 168q1 5 5 9
t10 4t10.5 -4t3.5 -11l-22 -166h201l22 168q1 5 5 9t10 4q7 0 11 -4t3 -11l-22 -166h88q14 0 14 -15q0 -6 -4 -10.5t-11 -4.5h-91zM363 218l43 327h-201l-42 -327h200z" />
    <glyph glyph-name="dollar" unicode="$" horiz-adv-x="572" 
d="M302 764q112 0 190 -51q12 -9 12 -16t-3.5 -11t-8.5 -4q-4 0 -10 3q-46 26 -88.5 37.5t-92.5 11.5v-334l18 -2q99 -12 149.5 -56t50.5 -135q0 -95 -56.5 -150.5t-161.5 -64.5v-105q0 -7 -4.5 -11.5t-11.5 -4.5t-11.5 4.5t-4.5 11.5v103h-8q-54 0 -98.5 9.5t-91.5 34.5
q-9 5 -9 13q0 7 6.5 12t13.5 2q47 -22 89 -32t95 -10h3v353l-8 1q-203 25 -203 180q0 88 57 144.5t154 64.5v93q0 7 4.5 12t11.5 5t11.5 -5t4.5 -12v-91h1zM269 732q-91 -8 -134.5 -59t-43.5 -120t44.5 -103.5t133.5 -45.5v328zM301 20q93 9 139 58.5t46 128.5
q0 72 -41.5 110.5t-133.5 49.5l-10 1v-348z" />
    <glyph glyph-name="percent" unicode="%" horiz-adv-x="869" 
d="M340.5 391.5q-43.5 -49.5 -124.5 -49.5q-80 0 -123 49t-43 140v44q0 92 43 143.5t123 51.5t124 -51.5t44 -143.5v-44q0 -90 -43.5 -139.5zM192.5 -6q-3.5 3 -4.5 8q0 6 3 11l463 739q6 8 14 8t11.5 -7t-0.5 -14l-464 -740q-5 -8 -14 -8q-5 0 -8.5 3zM322 694.5
q-31 46.5 -105 46.5q-73 0 -104.5 -46t-31.5 -120v-44q0 -77 35 -119t102 -42q71 0 103 43.5t32 117.5v44q0 73 -31 119.5zM774.5 34.5q-43.5 -49.5 -124.5 -49.5q-80 0 -123 49t-43 140v45q0 92 43 143.5t123 51.5t124 -51.5t44 -143.5v-45q0 -90 -43.5 -139.5z
M755.5 337.5q-31.5 46.5 -105.5 46.5q-73 0 -104.5 -46t-31.5 -119v-45q0 -77 35 -118.5t103 -41.5q71 0 103 43.5t32 116.5v45q0 72 -31.5 118.5z" />
    <glyph glyph-name="ampersand" unicode="&#x26;" horiz-adv-x="703" 
d="M610 360.5q5 -4.5 5 -11.5q0 -122 -63 -216l124 -115q6 -6 6 -12t-5 -11t-11 -5t-11 5l-123 113q-45 -57 -108 -88t-132 -31q-62 0 -113.5 21t-83 63.5t-31.5 103.5q0 107 106 170l65 39l-27 26q-54 52 -80 91t-26 90q0 46 23.5 85.5t68 63t106.5 23.5q92 0 139.5 -45.5
t47.5 -118.5q0 -52 -30 -91.5t-101 -82.5l-72 -43l247 -230q52 84 52 195q0 7 4.5 11.5t11.5 4.5q6 0 11 -4.5zM264 404l73 44q59 35 88 68.5t29 83.5q0 59 -38.5 97.5t-115.5 38.5q-53 0 -90.5 -19.5t-56 -51.5t-18.5 -70q0 -43 22.5 -77t71.5 -81zM256 367l-61 -37
q-98 -61 -98 -151q0 -46 24.5 -82.5t69 -57t101.5 -20.5q66 0 123 29t96 81z" />
    <glyph glyph-name="quotesingle" unicode="'" horiz-adv-x="193" 
d="M79 748q0 6 5.5 11t11.5 5q7 0 12.5 -4.5t4.5 -11.5l-1 -245q0 -7 -4 -11.5t-11 -4.5t-11 4.5t-4 11.5z" />
    <glyph glyph-name="parenleft" unicode="(" horiz-adv-x="320" 
d="M264.5 -83.5q4.5 -4.5 4.5 -10.5t-4.5 -10t-10.5 -4h-38q-70 0 -103 29t-33 102v670q0 75 33 104.5t103 29.5h38q6 0 10 -4.5t4 -10.5t-4 -10t-10 -4h-37q-45 0 -67.5 -12.5t-29.5 -34t-7 -56.5v-671q0 -35 7 -56.5t29.5 -34t67.5 -12.5h37q6 0 10.5 -4.5z" />
    <glyph glyph-name="parenright" unicode=")" horiz-adv-x="320" 
d="M103 -79q45 0 67.5 12.5t29.5 34t7 56.5v671q0 35 -7 56.5t-29.5 34t-67.5 12.5h-37q-6 0 -10 4t-4 10t4 10.5t10 4.5h38q70 0 103 -29.5t33 -104.5v-670q0 -73 -33 -102t-103 -29h-38q-6 0 -10.5 4t-4.5 10t4.5 10.5t10.5 4.5h37z" />
    <glyph glyph-name="asterisk" unicode="*" horiz-adv-x="515" 
d="M67 617.5q5 3.5 13 1.5l162 -50v175q0 5 4.5 9t11.5 4q6 0 10 -4t4 -10v-175q16 7 80 26.5t87 25.5q7 0 11 -3.5t4 -9.5v-2q0 -8 -10 -12l-163 -51q27 -36 75.5 -101.5t48.5 -67.5q1 -2 1 -5q0 -8 -10 -11q-2 -1 -5 -1q-4 0 -9 5l-125 166l-124 -164q-4 -7 -14 -5
q-5 2 -8 6.5t-2 9.5q0 2 54.5 76.5t68.5 91.5l-163 51q-4 2 -6.5 6t-1.5 8q1 7 6 10.5z" />
    <glyph glyph-name="plus" unicode="+" horiz-adv-x="543" 
d="M481 400q6 0 9.5 -3.5t3.5 -10.5q0 -6 -4 -10t-9 -4h-191v-199q0 -5 -4 -9t-11 -4q-6 0 -10 4t-4 9v199h-199q-5 0 -9 4t-4 10t4 10t9 4h199v192q0 5 4 9t10 4t10.5 -4t4.5 -9v-192h191z" />
    <glyph glyph-name="comma" unicode="," horiz-adv-x="195" 
d="M78 -134.5q-4 -4.5 -11 -4.5q-9 0 -13.5 6t-2.5 12l34 207q3 15 17 15q8 0 12 -5t3 -14l-34 -206q-1 -6 -5 -10.5z" />
    <glyph glyph-name="hyphen" unicode="-" horiz-adv-x="444" 
d="M77 264q-4 4 -4 10t4 10t9 4h272q5 0 9 -4t4 -10t-4 -10t-9 -4h-272q-5 0 -9 4z" />
    <glyph glyph-name="period" unicode="." horiz-adv-x="190" 
d="M64.5 19q-8.5 8 -8.5 19t8.5 19.5t19.5 8.5t19.5 -8.5t8.5 -19.5t-8.5 -19t-19.5 -8t-19.5 8z" />
    <glyph glyph-name="slash" unicode="/" horiz-adv-x="430" 
d="M33.5 -162.5q-3.5 5.5 -0.5 14.5l338 936q3 12 15 12q7 0 10.5 -5.5t0.5 -13.5l-337 -938q-2 -5 -6.5 -8t-9.5 -3q-7 0 -10.5 5.5z" />
    <glyph glyph-name="zero" unicode="0" horiz-adv-x="614" 
d="M137.5 696q53.5 68 169.5 68t170.5 -67.5t54.5 -191.5v-263q0 -117 -55 -185t-170 -68q-116 0 -169.5 65t-53.5 188v263q0 123 53.5 191zM307 19q90 0 141 54t51 162v277q0 222 -192 222q-97 0 -143.5 -55t-46.5 -167v-277q0 -216 190 -216z" />
    <glyph glyph-name="one" unicode="1" horiz-adv-x="370" 
d="M226 754q10 4 16 4q8 0 13.5 -5t5.5 -15v-731q0 -7 -5 -11.5t-12 -4.5q-6 0 -11 4.5t-5 11.5v712l-178 -88q-6 -2 -8 -2q-6 0 -10 5t-4 12q0 8 10 14z" />
    <glyph glyph-name="two" unicode="2" horiz-adv-x="518" 
d="M422 453.5q-28 -54.5 -90 -128.5l-246 -295h362q6 0 10.5 -4.5t4.5 -10.5t-4.5 -10.5t-10.5 -4.5h-389q-15 0 -15 17q0 5 3.5 11t4.5 7l259 313q55 66 80.5 116t25.5 109q0 81 -47 121t-136 40q-43 0 -80.5 -10t-73.5 -35q-8 -4 -10 -4q-7 0 -11.5 4.5t-4.5 10.5q0 5 3 8
t7 6q72 50 174 50q107 0 159.5 -49t52.5 -139q0 -68 -28 -122.5z" />
    <glyph glyph-name="three" unicode="3" horiz-adv-x="545" 
d="M221 405q43 0 91.5 18.5t83 58t34.5 98.5q0 70 -48.5 112t-134.5 42q-45 0 -84.5 -13.5t-82.5 -43.5l-4 -1q-6 0 -10 4.5t-4 10.5q0 5 3 8t7 6q78 59 179 59q98 0 154.5 -51t56.5 -132q0 -76 -47 -123t-115 -65q79 -15 128 -66.5t49 -128.5q0 -62 -32 -109.5t-90 -73.5
t-135 -26q-47 0 -89.5 11t-72.5 28q-9 5 -9 14q0 6 4.5 10t10.5 4q3 0 9 -2q37 -19 70.5 -27t74.5 -8q104 0 165 47.5t61 131.5q0 60 -33 100t-83.5 58.5t-105.5 18.5h-40q-6 0 -11 4.5t-5 10.5t5 10.5t11 4.5h39z" />
    <glyph glyph-name="four" unicode="4" horiz-adv-x="543" 
d="M305 758q6 0 11 -4t5 -11q0 -3 -2 -9l-250 -527h310v225q0 7 5 11.5t11 4.5q7 0 12 -4.5t5 -11.5v-225h86q6 0 10.5 -4.5t4.5 -10.5t-4.5 -10.5t-10.5 -4.5h-86v-170q0 -7 -5 -11.5t-12 -4.5q-6 0 -11 4.5t-5 11.5v170h-330q-17 0 -17 18q0 8 6 20l252 531q5 12 15 12z
" />
    <glyph glyph-name="five" unicode="5" horiz-adv-x="553" 
d="M159 28.5q41 -9.5 88 -9.5q103 0 161 56.5t58 148.5q0 89 -54 137t-144 48q-44 0 -79.5 -10t-86.5 -34q-2 -1 -6 -1t-7 3.5t-3 8.5v358q0 10 6 15.5t14 5.5h341q6 0 10.5 -5t4.5 -11t-4.5 -10t-10.5 -4h-330v-324q39 18 76 28t81 10q104 0 164.5 -57.5t60.5 -156.5
q0 -72 -32.5 -125.5t-90 -82t-128.5 -28.5q-43 0 -91.5 10t-82.5 26q-9 5 -9 15q0 6 4 10.5t11 4.5l8 -2q30 -15 71 -24.5z" />
    <glyph glyph-name="six" unicode="6" horiz-adv-x="581" 
d="M169 19.5q-55 30.5 -85.5 84t-30.5 119.5q0 58 34 128l193 401q5 12 16 12q7 0 11.5 -3.5t4.5 -10.5q0 -5 -3 -11l-161 -332q28 24 66 37t81 13q71 0 126 -30.5t85.5 -84t30.5 -119.5t-30.5 -119.5t-85.5 -84t-126 -30.5t-126 30.5zM186.5 399.5q-47.5 -26.5 -74 -73
t-26.5 -103.5t26.5 -103.5t74 -73t108.5 -26.5t108.5 26.5t73.5 73t26 103.5t-26 103.5t-73.5 73t-108.5 26.5t-108.5 -26.5z" />
    <glyph glyph-name="seven" unicode="7" horiz-adv-x="477" 
d="M119 16l296 709h-378q-6 0 -10.5 4t-4.5 10t4.5 11t10.5 5h396q17 0 17 -20q0 -7 -3 -15l-298 -717q-5 -12 -17 -12q-5 0 -9.5 3.5t-5.5 9.5q0 7 2 12z" />
    <glyph glyph-name="eight" unicode="8" horiz-adv-x="604" 
d="M179 14q-53 25 -82.5 72t-29.5 110q0 73 38.5 125t106.5 73q-60 20 -93 65t-33 111q0 89 59.5 141.5t157.5 52.5t157.5 -52.5t59.5 -141.5q0 -66 -33.5 -111t-93.5 -65q67 -21 104.5 -73t37.5 -125q0 -63 -29.5 -110t-82.5 -72t-122 -25t-122 25zM169 690
q-51 -45 -51 -120t50.5 -118t135.5 -43q84 0 134.5 42.5t50.5 118.5q0 75 -50.5 120t-134.5 45t-135 -45zM157 329q-56 -50 -56 -133q0 -82 55 -129.5t146 -47.5q90 0 145.5 47.5t55.5 129.5q0 83 -55 133t-145 50t-146 -50z" />
    <glyph glyph-name="nine" unicode="9" horiz-adv-x="582" 
d="M412 733.5q55 -30.5 85.5 -84t30.5 -119.5q0 -58 -34 -128l-193 -401q-5 -12 -16 -12q-7 0 -11.5 4t-4.5 10q0 5 3 11l161 333q-28 -24 -65.5 -37.5t-81.5 -13.5q-71 0 -126 30.5t-85.5 84t-30.5 119.5t30.5 119.5t85.5 84t126 30.5t126 -30.5zM394.5 354q47.5 27 74 73
t26.5 103t-26.5 103.5t-74 73.5t-108.5 27t-108 -27t-73.5 -73.5t-26.5 -103.5t26.5 -103t73.5 -73t108 -27t108.5 27z" />
    <glyph glyph-name="colon" unicode=":" horiz-adv-x="313" 
d="M131.5 27q-8.5 8 -8.5 19t8.5 19.5t19.5 8.5t19.5 -8.5t8.5 -19.5t-8.5 -19t-19.5 -8t-19.5 8zM131.5 320q-8.5 8 -8.5 19t8.5 19.5t19.5 8.5t19.5 -8.5t8.5 -19.5t-8.5 -19t-19.5 -8t-19.5 8z" />
    <glyph glyph-name="semicolon" unicode=";" horiz-adv-x="224" 
d="M109.5 533q4.5 5 11.5 5t11.5 -5t4.5 -12v-89q0 -7 -5 -11.5t-12 -4.5q-6 0 -10.5 4.5t-4.5 11.5v89q0 7 4.5 12zM92 -134.5q-4 -4.5 -11 -4.5q-9 0 -13.5 6t-2.5 12l34 207q3 15 17 15q8 0 12 -5t3 -14l-34 -206q-1 -6 -5 -10.5z" />
    <glyph glyph-name="less" unicode="&#x3c;" horiz-adv-x="518" 
d="M437.5 132q-4.5 -4 -10.5 -4l-8 2l-365 232q-15 9 -15 26q0 8 3.5 14t12.5 11l364 226q2 2 7 2q6 0 10.5 -4t4.5 -10q0 -8 -8 -13l-367 -225l368 -234q8 -5 8 -12t-4.5 -11z" />
    <glyph glyph-name="equal" unicode="=" horiz-adv-x="612" 
d="M87 490q-4 4 -4 10t4 10t9 4h419q6 0 9.5 -3.5t3.5 -10.5q0 -6 -4 -10t-9 -4h-419q-5 0 -9 4zM87 240q-4 4 -4 10t4 10t9 4h419q6 0 9.5 -3.5t3.5 -10.5q0 -6 -4 -10t-9 -4h-419q-5 0 -9 4z" />
    <glyph glyph-name="greater" unicode="&#x3e;" horiz-adv-x="518" 
d="M85 614q-8 5 -8 13q0 9 8 13t14 -1l364 -226q9 -5 12.5 -11t3.5 -14q0 -17 -15 -26l-365 -232l-8 -2q-6 0 -10.5 4t-4.5 11t8 12l368 234z" />
    <glyph glyph-name="question" unicode="?" horiz-adv-x="469" 
d="M407.5 484.5q-14.5 -34.5 -35 -56.5t-53.5 -48q-39 -32 -57.5 -57t-18.5 -64v-39q0 -7 -4.5 -11.5t-11.5 -4.5t-11.5 4.5t-4.5 11.5v35q0 34 11 59t27 41.5t45 40.5q32 26 51 45.5t32 51t13 76.5q0 81 -42 126t-116 45q-72 0 -111 -40t-48 -103q-3 -18 -3 -31
q0 -7 -4.5 -11.5t-11.5 -4.5q-8 0 -12 4.5t-4 11.5q0 10 3 31q9 75 57.5 123.5t132.5 48.5q95 0 143 -56.5t48 -144.5q0 -49 -14.5 -83.5zM216.5 108q4.5 5 11.5 5t11.5 -5t4.5 -12v-89q0 -7 -5 -11.5t-12 -4.5q-6 0 -10.5 4.5t-4.5 11.5v89q0 7 4.5 12z" />
    <glyph glyph-name="at" unicode="@" horiz-adv-x="722" 
d="M465.5 -118.5q4.5 -4.5 4.5 -11.5q0 -6 -4.5 -10.5t-10.5 -4.5h-86q-293 0 -293 316v216q0 262 285 262q262 0 262 -219v-318q0 -7 -4.5 -11.5t-11.5 -4.5t-11.5 4.5t-4.5 11.5v107q-29 -61 -84.5 -97.5t-123.5 -36.5q-74 0 -113 40.5t-39 115.5q0 84 50.5 119.5
t148.5 35.5h161v29q0 95 -56.5 145.5t-173.5 50.5q-132 0 -192.5 -60t-60.5 -162v-231q0 -154 72 -218t194 -64h81q6 0 10.5 -4.5zM425 368q-82 0 -122 -29.5t-40 -96.5q0 -56 30 -92.5t90 -36.5q51 0 99 25.5t78.5 68.5t30.5 92v69h-166z" />
    <glyph glyph-name="A" unicode="A" horiz-adv-x="651" 
d="M142 222l-81 -219q-2 -6 -6.5 -9t-9.5 -3q-7 0 -12.5 4t-5.5 11l2 8l275 732q6 16 21 16q8 0 13 -4t8 -12l274 -728q2 -8 2 -11q0 -7 -5 -11.5t-13 -4.5q-12 0 -17 16l-81 215h-364zM495 252l-171 461l-171 -461h342z" />
    <glyph glyph-name="B" unicode="B" horiz-adv-x="636" 
d="M114 750q5 5 11 5h185q124 0 182 -48.5t58 -136.5q0 -72 -43 -116.5t-109 -65.5q77 -12 125 -58t48 -127q0 -90 -62 -146.5t-196 -56.5h-188q-6 0 -11 5t-5 12v721q0 7 5 12zM142 401h171q50 0 97 18t77 56t30 95q0 77 -53 116t-155 39h-167v-324zM142 30h169
q105 0 166 43.5t61 128.5q0 86 -60.5 127.5t-163.5 41.5h-172v-341z" />
    <glyph glyph-name="C" unicode="C" horiz-adv-x="582" 
d="M537 59q6 0 10.5 -4t4.5 -12q0 -7 -10 -13q-67 -41 -181 -41q-289 0 -289 339v92q0 170 74.5 257t217.5 87q98 0 176 -44q12 -7 12 -15t-7 -13t-14 -1q-39 22 -75.5 32.5t-91.5 10.5q-127 0 -192.5 -77t-65.5 -230v-106q0 -302 254 -302q55 0 93.5 8.5t71.5 27.5
q8 4 12 4z" />
    <glyph glyph-name="D" unicode="D" horiz-adv-x="676" 
d="M114 5q-5 5 -5 12v721q0 7 5 12t11 5h174q143 0 224 -84.5t81 -250.5v-92q0 -165 -80.5 -246.5t-224.5 -81.5h-174q-6 0 -11 5zM142 30h157q122 0 196.5 69t74.5 222v106q0 144 -71.5 221t-199.5 77h-157v-695z" />
    <glyph glyph-name="E" unicode="E" horiz-adv-x="583" 
d="M142 401h337q7 0 11.5 -4.5t4.5 -11.5q0 -6 -4.5 -10t-11.5 -4h-337v-341h374q6 0 10.5 -4.5t4.5 -10.5t-4.5 -10.5t-10.5 -4.5h-391q-6 0 -11 5t-5 12v721q0 7 5 12t11 5h382q7 0 11.5 -4.5t4.5 -11.5q0 -6 -4.5 -10t-11.5 -4h-365v-324z" />
    <glyph glyph-name="F" unicode="F" horiz-adv-x="558" 
d="M142 401h337q7 0 11.5 -4.5t4.5 -11.5q0 -6 -4.5 -10t-11.5 -4h-337v-363q0 -7 -5 -11.5t-12 -4.5q-6 0 -11 4.5t-5 11.5v730q0 7 4.5 12t11.5 5h382q7 0 11.5 -4.5t4.5 -11.5q0 -6 -4.5 -10t-11.5 -4h-365v-324z" />
    <glyph glyph-name="G" unicode="G" horiz-adv-x="659" 
d="M582 45q0 -8 -4 -12t-12 -8q-38 -17 -91.5 -26.5t-104.5 -9.5q-145 0 -221.5 85t-76.5 254v92q0 168 78.5 256t222.5 88q113 0 193 -45q10 -5 10 -14q0 -7 -4.5 -11.5t-10.5 -4.5t-10 4q-67 41 -177 41q-129 0 -199 -77.5t-70 -229.5v-106q0 -147 67 -224.5t198 -77.5
q45 0 93.5 8t85.5 25v308h-202q-6 0 -11 4.5t-5 10.5t5 10.5t11 4.5h220q6 0 10.5 -4.5t4.5 -10.5v-330z" />
    <glyph glyph-name="H" unicode="H" horiz-adv-x="717" 
d="M603 -3.5q-5 -4.5 -12 -4.5t-11.5 4.5t-4.5 11.5v368h-433v-368q0 -7 -5 -11.5t-12 -4.5q-6 0 -11 4.5t-5 11.5v740q0 6 5 11t11 5q7 0 12 -5t5 -11v-341h433v341q0 6 4.5 11t11.5 5t12 -5t5 -11v-740q0 -7 -5 -11.5z" />
    <glyph glyph-name="I" unicode="I" horiz-adv-x="251" 
d="M137 -3.5q-5 -4.5 -12 -4.5q-6 0 -11 4.5t-5 11.5v740q0 6 5 11t11 5q7 0 12 -5t5 -11v-740q0 -7 -5 -11.5z" />
    <glyph glyph-name="J" unicode="J" horiz-adv-x="468" 
d="M114 25q29 -6 53 -6q69 0 116.5 37.5t47.5 122.5v546h-266q-6 0 -11 4t-5 10q0 7 5 11.5t11 4.5h284q6 0 11 -4.5t5 -11.5v-564q0 -51 -22.5 -93.5t-67.5 -67.5t-108 -25q-47 0 -117 22q-12 3 -12 16q0 9 7 13t15 1q25 -10 54 -16z" />
    <glyph glyph-name="K" unicode="K" horiz-adv-x="611" 
d="M299 401l241 348q8 9 15 9t11.5 -4.5t4.5 -10.5q0 -3 -5 -13l-240 -341l252 -369q5 -7 5 -12q0 -7 -4.5 -11.5t-11.5 -4.5q-10 0 -17 11l-251 368h-157v-363q0 -7 -5 -11.5t-12 -4.5q-6 0 -11 4.5t-5 11.5v740q0 6 5 11t11 5q7 0 12 -5t5 -11v-347h157z" />
    <glyph glyph-name="L" unicode="L" horiz-adv-x="523" 
d="M114 759q5 5 11 5q7 0 12 -5t5 -11v-718h357q6 0 10.5 -4.5t4.5 -10.5t-4.5 -10.5t-10.5 -4.5h-374q-6 0 -11 5t-5 12v731q0 6 5 11z" />
    <glyph glyph-name="M" unicode="M" horiz-adv-x="824" 
d="M411 276l269 474q4 7 8 10t12 3q6 0 10.5 -4.5t4.5 -10.5v-740q0 -7 -4.5 -11.5t-11.5 -4.5t-11.5 4.5t-4.5 11.5v681l-250 -436q-8 -17 -22 -17q-12 0 -22 16l-248 435v-679q0 -7 -5 -11.5t-11 -4.5q-7 0 -11.5 4.5t-4.5 11.5v739q0 6 4.5 11t11.5 5q13 0 19 -13z" />
    <glyph glyph-name="N" unicode="N" horiz-adv-x="722" 
d="M141 8q0 -6 -5 -11t-11 -5q-7 0 -11.5 5t-4.5 11v739q0 6 4.5 11t11.5 5t11 -3t8 -10l437 -692v690q0 6 4.5 11t11.5 5t12 -5t5 -11v-740q0 -6 -4.5 -10.5t-11.5 -4.5q-12 0 -20 14l-437 690v-689z" />
    <glyph glyph-name="O" unicode="O" horiz-adv-x="701" 
d="M145 677q72 88 206 88q137 0 207.5 -90.5t70.5 -254.5v-110q0 -109 -37.5 -181t-100.5 -106t-141 -34t-140.5 34t-99.5 106t-37 181v110q0 169 72 257zM171.5 95.5q64.5 -76.5 178.5 -76.5q74 0 129.5 34t85.5 98t30 152v124q0 140 -62.5 224t-182.5 84
q-122 0 -182.5 -85t-60.5 -223v-124q0 -131 64.5 -207.5z" />
    <glyph glyph-name="P" unicode="P" horiz-adv-x="617" 
d="M142 315v-307q0 -6 -5 -11t-12 -5q-6 0 -11 5t-5 11v730q0 7 5 12t11 5h200q124 0 187.5 -59t63.5 -157q0 -107 -62.5 -165.5t-184.5 -58.5h-187zM142 345h186q214 0 214 192q0 88 -55.5 138t-162.5 50h-182v-380z" />
    <glyph glyph-name="Q" unicode="Q" horiz-adv-x="701" 
d="M145 677q72 88 206 88q137 0 207.5 -90.5t70.5 -254.5v-110q0 -95 -28.5 -161.5t-79.5 -105.5l71 -104q4 -6 4 -11q0 -6 -4.5 -10t-11.5 -4q-9 0 -14 8l-70 103q-62 -36 -146 -36q-78 0 -140.5 34t-99.5 106t-37 181v110q0 169 72 257zM373 228q4 4 11 4q8 0 14 -9
l105 -154q44 37 68 96.5t24 137.5v124q0 140 -62.5 224t-182.5 84q-122 0 -182.5 -85t-60.5 -223v-124q0 -131 64.5 -207.5t178.5 -76.5q74 0 128 33l-106 156q-3 5 -3 10q0 6 4 10z" />
    <glyph glyph-name="R" unicode="R" horiz-adv-x="650" 
d="M592 20q3 -6 3 -12t-4.5 -11t-12.5 -5q-9 0 -15 11l-161 327q-33 -6 -73 -6h-187v-316q0 -6 -5 -11t-12 -5q-6 0 -11 5t-5 11v730q0 7 5 12t11 5h200q125 0 188 -57.5t63 -155.5q0 -80 -35.5 -132t-106.5 -73zM142 354h186q117 0 165.5 50t48.5 137t-55 135.5t-163 48.5
h-182v-371z" />
    <glyph glyph-name="S" unicode="S" horiz-adv-x="585" 
d="M173 29.5q43 -10.5 97 -10.5q111 0 167.5 51.5t56.5 136.5q0 71 -43 110t-136 50l-50 6q-203 25 -203 180q0 63 30 111t85 74t129 26q118 0 192 -51q9 -9 9 -14q0 -6 -4 -10.5t-10 -4.5q-5 0 -12 4q-42 25 -84.5 35.5t-91.5 10.5q-107 0 -158.5 -52.5t-51.5 -128.5
q0 -69 44.5 -103.5t133.5 -45.5l50 -6q100 -12 152 -56.5t52 -134.5q0 -103 -68.5 -160t-193.5 -57q-53 0 -98 10t-92 34q-12 6 -12 15t6 13t13 1q48 -23 91 -33.5z" />
    <glyph glyph-name="T" unicode="T" horiz-adv-x="608" 
d="M327 8q0 -6 -5 -11t-11 -5q-7 0 -12 5t-5 11v716h-269q-6 0 -10.5 4.5t-4.5 10.5t4.5 11t10.5 5h558q6 0 10.5 -5t4.5 -11t-4.5 -10.5t-10.5 -4.5h-256v-716z" />
    <glyph glyph-name="U" unicode="U" horiz-adv-x="733" 
d="M604 759q5 5 11 5q7 0 12 -5t5 -11v-436q0 -169 -64.5 -246t-203.5 -77t-201 76.5t-62 246.5v436q0 6 5 11t12 5q6 0 11 -5t5 -11v-443q0 -148 52 -217t178 -69q131 0 183 73t52 213v443q0 6 5 11z" />
    <glyph glyph-name="V" unicode="V" horiz-adv-x="643" 
d="M31 738q-2 6 -2 8q0 8 4.5 13t13.5 5q12 0 18 -16l257 -703l259 708q4 11 16 11q9 0 14 -7t2 -15l-271 -732q-3 -9 -7.5 -13t-12.5 -4t-12.5 4t-7.5 13z" />
    <glyph glyph-name="W" unicode="W" horiz-adv-x="922" 
d="M554 388l-89 315l-210 -694q-4 -8 -8 -12t-12 -4q-14 0 -18 16l-172 730l-1 6q0 7 4.5 12.5t12.5 5.5q14 0 18 -15l158 -697l211 697q4 16 19 16q14 0 17 -16l195 -700l173 705q1 6 6 8.5t10 2.5q11 0 14.5 -7t1.5 -17l-185 -730q-3 -9 -7 -13t-12 -4q-16 0 -20 16z" />
    <glyph glyph-name="X" unicode="X" horiz-adv-x="584" 
d="M52 759.5q5 4.5 12 4.5q9 0 14 -9l214 -337l214 336q7 10 16 10q6 0 11 -4.5t5 -11.5q0 -3 -5 -11l-221 -344l242 -375q4 -4 4 -11q0 -6 -4.5 -10.5t-12.5 -4.5q-10 0 -15 9l-235 364l-235 -363q-7 -10 -14 -10t-11.5 4t-5.5 9q0 8 4 13l243 374l-220 345q-5 8 -5 11
q0 7 5 11.5z" />
    <glyph glyph-name="Y" unicode="Y" horiz-adv-x="573" 
d="M302 8q0 -6 -4.5 -11t-11.5 -5t-12 5t-5 11v321l-229 409q-2 6 -2 9q0 17 18 17q10 0 18 -16l212 -386l222 391q8 11 16 11q9 0 13.5 -7.5t0.5 -15.5l-236 -414v-319z" />
    <glyph glyph-name="Z" unicode="Z" horiz-adv-x="574" 
d="M55 724q-6 0 -11 4.5t-5 10.5t5 11t11 5h466q17 0 17 -18q0 -8 -7 -19l-454 -687h443q6 0 10.5 -5t4.5 -11t-4.5 -10.5t-10.5 -4.5h-466q-18 0 -18 18q0 8 8 19l454 687h-443z" />
    <glyph glyph-name="bracketleft" unicode="[" horiz-adv-x="266" 
d="M105.5 823q4.5 4 11.5 4h95q6 0 10.5 -4t4.5 -10q0 -7 -4.5 -11t-10.5 -4h-78v-872h78q6 0 10.5 -4t4.5 -11q0 -6 -4.5 -10t-10.5 -4h-95q-7 0 -11.5 4.5t-4.5 11.5v899q0 7 4.5 11z" />
    <glyph glyph-name="backslash" unicode="\" horiz-adv-x="430" 
d="M33 781q-1 2 -1 6q0 5 3 9t9 4q12 0 15 -12l337 -934q2 -6 2 -9q0 -13 -14 -13q-10 0 -14 11z" />
    <glyph glyph-name="bracketright" unicode="]" horiz-adv-x="266" 
d="M54 -103q-6 0 -10.5 4t-4.5 10q0 7 4.5 11t10.5 4h78v872h-78q-6 0 -10.5 4t-4.5 11q0 6 4.5 10t10.5 4h95q7 0 11 -4t4 -11v-899q0 -7 -4 -11.5t-11 -4.5h-95z" />
    <glyph glyph-name="asciicircum" unicode="^" horiz-adv-x="618" 
d="M75 399q-8 0 -12.5 4.5t-4.5 10.5t2 9l219 317q6 9 11.5 13t14.5 4t14 -3.5t11 -12.5l228 -318q3 -4 3 -9q0 -7 -4.5 -11.5t-11.5 -4.5q-9 0 -16 10l-225 314l-215 -314q-5 -9 -14 -9z" />
    <glyph glyph-name="underscore" unicode="_" horiz-adv-x="510" 
d="M48 -108q-6 0 -10 4t-4 11q0 5 4 9t10 4h414q5 0 9.5 -4t4.5 -9q0 -7 -4 -11t-10 -4h-414z" />
    <glyph glyph-name="grave" unicode="`" horiz-adv-x="485" 
d="M319 630l-73 125q-3 5 -3 10q0 13 13 13q9 0 14 -10l73 -124q3 -6 3 -10q0 -6 -4 -9.5t-10 -3.5q-8 0 -13 9z" />
    <glyph glyph-name="a" unicode="a" horiz-adv-x="518" 
d="M325.5 14.5q-49.5 -25.5 -113.5 -25.5q-74 0 -117.5 39.5t-43.5 108.5q0 77 52 115t157 38h141v54q0 84 -36 128.5t-119 44.5q-44 0 -80 -10t-70 -34q-6 -4 -10 -4q-7 0 -11 4t-4 11t7 13q69 49 171 49q98 0 141 -49.5t43 -149.5v-340q0 -7 -5 -11.5t-11 -4.5
q-7 0 -11.5 4.5t-4.5 11.5v82q-26 -49 -75.5 -74.5zM401 262h-139q-96 0 -137.5 -31.5t-41.5 -92.5q0 -56 37.5 -88.5t95.5 -32.5q63 0 115.5 30.5t69.5 93.5v121z" />
    <glyph glyph-name="b" unicode="b" horiz-adv-x="570" 
d="M95.5 759.5q4.5 4.5 11.5 4.5q6 0 11 -4.5t5 -11.5v-317q24 51 72.5 83t109.5 32q99 0 150 -69t51 -180v-59q0 -117 -50.5 -183t-148.5 -66q-64 0 -111.5 32.5t-72.5 87.5v-102q0 -7 -5 -11.5t-11 -4.5q-7 0 -11.5 4.5t-4.5 11.5v741q0 7 4.5 11.5zM123 182
q5 -41 28.5 -78.5t63 -61.5t89.5 -24q71 0 120.5 49.5t49.5 165.5v69q0 88 -41.5 151.5t-129.5 63.5q-49 0 -88.5 -23t-63 -60.5t-28.5 -79.5v-172z" />
    <glyph glyph-name="c" unicode="c" horiz-adv-x="477" 
d="M434 501q0 -6 -4 -10.5t-10 -4.5q-4 0 -9 3q-51 28 -127 28q-79 0 -133 -47t-54 -165v-76q0 -88 45.5 -149.5t142.5 -61.5q70 0 126 33q5 3 10 3q6 0 10.5 -4t4.5 -10q0 -9 -10 -14q-28 -17 -65.5 -27t-78.5 -10q-104 0 -160.5 67.5t-56.5 177.5v66q0 115 55.5 180.5
t162.5 65.5q77 0 142 -31q9 -4 9 -14z" />
    <glyph glyph-name="d" unicode="d" horiz-adv-x="571" 
d="M375.5 22.5q-47.5 -33.5 -109.5 -33.5q-98 0 -149.5 68.5t-51.5 180.5v59q0 116 51 182.5t148 66.5q64 0 111.5 -32t72.5 -87v321q0 7 5 11.5t11 4.5q7 0 11.5 -4.5t4.5 -11.5v-741q0 -7 -4.5 -11.5t-11.5 -4.5q-6 0 -11 4.5t-5 11.5v102q-25 -53 -72.5 -86.5zM423 424.5
q-23 40.5 -63.5 66.5t-92.5 26q-71 0 -120.5 -49.5t-49.5 -165.5v-69q0 -88 41.5 -151.5t129.5 -63.5q55 0 96 27t62.5 69.5t21.5 86.5v139q-2 44 -25 84.5z" />
    <glyph glyph-name="e" unicode="e" horiz-adv-x="531" 
d="M117.5 54q-52.5 65 -52.5 180v66q0 117 52.5 181.5t154.5 64.5q99 0 149.5 -59.5t50.5 -176.5v-39q0 -7 -5 -12t-13 -5h-357v-25q0 -211 191 -211q47 0 79.5 5.5t69.5 29.5q5 3 11 3q13 0 13 -14q0 -9 -9 -14q-36 -24 -77.5 -31.5t-89.5 -7.5q-115 0 -167.5 65zM439 282
v27q0 102 -38 155t-128 53q-176 0 -176 -212v-23h342z" />
    <glyph glyph-name="f" unicode="f" horiz-adv-x="301" 
d="M56 506q-6 0 -10 4t-4 10t4 10.5t10 4.5h52v65q0 80 32.5 122t105.5 42q19 0 37 -5q13 -4 13 -14q0 -7 -4.5 -11.5t-10.5 -3.5q-4 1 -14.5 3t-23.5 2q-52 0 -77.5 -34t-25.5 -96v-70h127q6 0 10 -4.5t4 -10.5t-4 -10t-10 -4h-127v-499q0 -7 -5 -11.5t-11 -4.5
q-7 0 -11.5 4.5t-4.5 11.5v499h-52z" />
    <glyph glyph-name="g" unicode="g" horiz-adv-x="571" 
d="M97 -188q0 7 6.5 12.5t14.5 1.5q71 -31 152 -31q96 0 137.5 44t41.5 134v139q-24 -53 -72 -88t-111 -35q-98 0 -149.5 68.5t-51.5 180.5v59q0 115 51 182t147 67q66 0 114 -32.5t72 -88.5v103q0 7 4.5 11.5t11.5 4.5q6 0 11 -4.5t5 -11.5v-556q0 -206 -211 -206
q-87 0 -164 32q-9 4 -9 14zM449 340q-2 44 -25.5 84.5t-64.5 66.5t-93 26q-70 0 -119.5 -49.5t-49.5 -165.5v-69q0 -88 41.5 -151.5t129.5 -63.5q51 0 91.5 26t64 66.5t25.5 83.5v146z" />
    <glyph glyph-name="h" unicode="h" horiz-adv-x="578" 
d="M95.5 759.5q4.5 4.5 11.5 4.5q6 0 11 -4.5t5 -11.5v-331q25 61 74.5 95t118.5 34q96 0 136 -53.5t40 -163.5v-322q0 -7 -4.5 -11.5t-11.5 -4.5q-6 0 -11 4.5t-5 11.5v315q0 102 -34.5 148t-114.5 46q-74 0 -123.5 -46t-63.5 -122l-1 1v-342q0 -7 -5 -11.5t-11 -4.5
q-7 0 -11.5 4.5t-4.5 11.5v741q0 7 4.5 11.5z" />
    <glyph glyph-name="i" unicode="i" horiz-adv-x="213" 
d="M95 754q5 5 11 5q7 0 12 -5t5 -11v-92q0 -7 -5 -11.5t-12 -4.5q-6 0 -11 4.5t-5 11.5v92q0 6 5 11zM95 539.5q5 4.5 11 4.5q7 0 12 -4.5t5 -11.5v-521q0 -7 -5 -11.5t-12 -4.5q-6 0 -11 4.5t-5 11.5v521q0 7 5 11.5z" />
    <glyph glyph-name="j" unicode="j" horiz-adv-x="221" 
d="M103.5 754q4.5 5 11.5 5q6 0 11 -5t5 -11v-92q0 -7 -5 -11.5t-11 -4.5q-7 0 -11.5 4.5t-4.5 11.5v92q0 6 4.5 11zM-63 -215q0 6 4.5 10.5t11.5 3.5q13 -3 34 -3q51 0 81.5 38t30.5 107v587q0 7 4.5 11.5t11.5 4.5q6 0 11 -4.5t5 -11.5v-588q0 -85 -39.5 -129.5
t-106.5 -44.5q-18 0 -36 4q-12 3 -12 15z" />
    <glyph glyph-name="k" unicode="k" horiz-adv-x="481" 
d="M431.5 537q4.5 -4 4.5 -10q0 -5 -4 -12l-171 -224l195 -274q4 -5 4 -12q0 -6 -4.5 -10t-11.5 -4q-8 0 -15 9l-192 273h-114v-266q0 -7 -5 -11.5t-11 -4.5q-7 0 -11.5 4.5t-4.5 11.5v741q0 7 4.5 11.5t11.5 4.5q6 0 11 -4.5t5 -11.5v-447h112l172 232q6 8 14 8
q6 0 10.5 -4z" />
    <glyph glyph-name="l" unicode="l" horiz-adv-x="254" 
d="M92.5 759.5q4.5 4.5 11.5 4.5q6 0 11 -4.5t5 -11.5v-635q0 -45 16 -68.5t46 -23.5q21 0 41 6l5 1q6 0 10 -3.5t4 -10.5q0 -10 -14 -15q-22 -8 -46 -8q-47 0 -70.5 29.5t-23.5 92.5v635q0 7 4.5 11.5z" />
    <glyph glyph-name="m" unicode="m" horiz-adv-x="927" 
d="M414.5 470q-34.5 46 -114.5 46q-73 0 -118 -45t-59 -123v-341q0 -7 -5 -11.5t-12 -4.5q-6 0 -11 4.5t-5 11.5v521q0 7 5 11.5t11 4.5q7 0 12 -4.5t5 -11.5v-106q24 59 69.5 91.5t112.5 32.5q77 0 117.5 -34.5t52.5 -103.5q46 138 183 138q96 0 139.5 -54.5t43.5 -162.5
v-322q0 -7 -5 -11.5t-11 -4.5q-7 0 -11.5 4.5t-4.5 11.5v315q0 101 -37.5 147.5t-118.5 46.5q-72 0 -115 -44t-58 -121q1 -7 1 -22v-322q0 -7 -4.5 -11.5t-11.5 -4.5q-6 0 -11 4.5t-5 11.5v315q0 102 -34.5 148z" />
    <glyph glyph-name="n" unicode="n" horiz-adv-x="577" 
d="M424.5 470q-34.5 46 -114.5 46q-74 0 -123.5 -46t-63.5 -122v-341q0 -7 -5 -11.5t-12 -4.5q-6 0 -11 4.5t-5 11.5v521q0 7 5 11.5t11 4.5q7 0 12 -4.5t5 -11.5v-108q25 59 74.5 92.5t117.5 33.5q96 0 136 -53.5t40 -163.5v-322q0 -7 -4.5 -11.5t-11.5 -4.5q-6 0 -11 4.5
t-5 11.5v315q0 102 -34.5 148z" />
    <glyph glyph-name="o" unicode="o" horiz-adv-x="550" 
d="M120.5 484.5q54.5 61.5 154.5 61.5t154.5 -61.5t54.5 -181.5v-72q0 -120 -54.5 -181t-154.5 -61t-154.5 61t-54.5 181v72q0 120 54.5 181.5zM143.5 71.5q45.5 -52.5 131.5 -52.5q87 0 132 53t45 154v82q0 104 -46.5 157t-130.5 53q-85 0 -131 -53.5t-46 -156.5v-82
q0 -102 45.5 -154.5z" />
    </font>
</defs>
</svg>
